<svg width="268" height="268" viewBox="0 0 268 268" fill="none" xmlns="http://www.w3.org/2000/svg">
<path d="M185.99 207.033C191.46 212.95 194.696 219.925 196.637 227.586C197.097 229.402 197.808 231.025 198.402 232.742C199.948 237.209 198.471 240.879 194.26 243.035C189.121 245.664 185.043 247.963 178.394 248.981C173.607 249.715 159.537 250.692 151.794 251.254C144.964 251.75 139.379 252.068 133.176 251.988C126.183 251.897 119.197 251.286 112.21 250.869C102.183 250.27 63.5711 248.229 69.6442 230.614C71.5109 225.199 73.1531 219.686 76.0611 214.677C81.8504 204.704 90.11 197.81 101.242 194.52C104.4 193.587 107.623 192.873 111.045 192C110.94 192.521 110.913 192.817 110.821 193.092C110.333 194.544 110.114 195.506 110.114 197.065C110.114 197.792 111.014 200.417 111.681 200.961C118.441 206.474 124.57 207.278 133.149 207.84C139.912 208.283 146.296 206.839 152.205 203.545C155.897 201.487 158.312 198.347 159.302 194.187C159.358 193.95 159.458 193.723 159.55 193.454C169.485 195.833 178.78 199.322 185.99 207.033Z" fill="#895794"/>
</svg>
