<svg width="268" height="268" viewBox="0 0 268 268" fill="none" xmlns="http://www.w3.org/2000/svg">
<path d="M157.853 147.055C151.651 147.638 147.112 141.035 149.645 133.642C150.987 129.726 153.887 127.554 157.382 127.693C160.455 127.815 163.061 130.257 164.154 134.161C165.888 140.356 163.185 146.061 157.853 147.055Z" fill="#3D2A36"/>
<path d="M164.652 126.423C161.846 126.337 159.217 126.008 156.668 126.326C154.278 126.624 151.972 127.607 149.547 128.312C150.518 122.641 163.272 121.491 166.989 126.248C166.112 126.336 165.487 126.399 164.652 126.423Z" fill="#3D2A36"/>
<path d="M109.132 146.778C115.333 147.361 119.873 140.757 117.339 133.365C115.997 129.449 113.098 127.277 109.603 127.415C106.529 127.537 103.924 129.979 102.831 133.884C101.096 140.079 103.799 145.784 109.132 146.778Z" fill="#3D2A36"/>
<path d="M102.333 126.145C105.138 126.06 107.767 125.73 110.316 126.048C112.707 126.346 115.012 127.329 117.438 128.035C116.466 122.364 103.712 121.214 99.9953 125.971C100.873 126.059 101.497 126.121 102.333 126.145Z" fill="#3D2A36"/>
</svg>
