<svg width="268" height="268" viewBox="0 0 268 268" fill="none" xmlns="http://www.w3.org/2000/svg">
<path d="M158.306 126.464C161.988 131.27 162.441 136.327 159.695 141.387C156.717 146.873 149.959 146.837 146.671 141.539C144.247 137.634 144.489 131.37 147.209 127.621C150.254 123.423 154.107 122.966 158.306 126.464Z" fill="#3D2A36"/>
<path d="M109.564 144.286C103.906 139.754 103.988 129.847 109.566 125.651C112.186 123.68 115.809 124.001 118.311 126.426C122.344 130.336 122.782 137.972 119.223 142.347C116.69 145.462 113.629 146.129 109.564 144.286Z" fill="#3D2A36"/>
<path d="M163.095 125.514C158.309 120.558 154.55 120.621 145.383 125.407C145.482 124.549 145.383 123.756 146.819 122.675C150.612 118.179 158.121 117.72 162.681 121.912C167.461 126.306 168.895 131.915 167.643 138.224C167.518 138.856 167.01 139.411 166.26 140.018C166.157 134.979 166.794 129.839 163.095 125.514Z" fill="#3D2A36"/>
<path d="M120.438 123.745C121.071 124.562 121.071 125.536 121.071 125.536C121.071 125.536 120.766 125.809 120.613 125.946C119.939 125.487 119.242 125.056 118.594 124.562C115.239 122.009 111.485 120.955 107.541 122.61C103.373 124.359 101.472 127.996 101.122 132.371C100.927 134.799 101.087 137.256 101.087 139.7C100.79 139.757 100.494 139.813 100.197 139.87C99.8123 138.621 99.1915 137.392 99.0855 136.12C98.6863 131.334 99.6411 126.834 102.883 123.137C107.904 117.413 115.078 117.641 120.438 123.745Z" fill="#3D2A36"/>
</svg>
