<svg width="268" height="268" viewBox="0 0 268 268" fill="none" xmlns="http://www.w3.org/2000/svg">
<path d="M116.942 130.81C117.204 133.537 116.51 135.099 116.174 135.809C115.372 137.5 113.324 139.327 111.143 138.95C109.206 138.615 107.485 136.752 107.148 134.313C106.849 132.152 106.949 129.989 107.954 128.007C108.945 126.05 110.279 124.874 112.308 125.011C114.26 125.142 115.489 126.446 116.305 128.387C116.6 129.091 116.732 129.89 116.942 130.81Z" fill="#3D2A36"/>
<path d="M158.942 130.81C159.204 133.537 158.51 135.099 158.174 135.809C157.372 137.5 155.324 139.327 153.143 138.95C151.206 138.615 149.485 136.752 149.148 134.313C148.849 132.152 148.949 129.989 149.954 128.007C150.945 126.05 152.279 124.874 154.308 125.011C156.26 125.142 157.489 126.446 158.305 128.387C158.6 129.091 158.732 129.89 158.942 130.81Z" fill="#3D2A36"/>
</svg>
