<svg width="268" height="268" viewBox="0 0 268 268" fill="none" xmlns="http://www.w3.org/2000/svg">
<path d="M98.5 135.712C97.1829 134.382 97.3976 134.706 96 133.294C100.826 129.051 109.508 125.89 115.818 129.73C117 130.712 117.921 131.555 118.5 132.712C119.5 134.712 119.766 136.619 119.5 138.712C118 144.212 111.718 146.165 107 142.212C104.109 139.094 104.5 135.712 106.509 132.148C105 132.212 103 132.712 98.5 135.712Z" fill="#3D2A36"/>
<path d="M168.094 135.712C169.411 134.382 169.196 134.706 170.594 133.294C165.768 129.051 157.085 125.89 150.776 129.73C149.594 130.712 148.672 131.555 148.094 132.712C147.094 134.712 146.828 136.619 147.094 138.712C148.594 144.212 154.875 146.165 159.594 142.212C162.485 139.094 162.094 135.712 160.085 132.148C161.594 132.212 163.594 132.712 168.094 135.712Z" fill="#3D2A36"/>
</svg>
