<svg width="268" height="268" viewBox="0 0 268 268" fill="none" xmlns="http://www.w3.org/2000/svg">
<path d="M100.501 128.045C106.35 128.044 111.997 128.03 117.643 128.056C118.48 128.06 119.566 127.708 120.02 128.722C120.433 129.647 119.42 129.921 118.9 130.393C118.388 130.857 118.496 131.507 118.401 132.093C117.424 138.129 112.211 140.945 106.551 138.427C103.861 137.231 102.664 134.993 102.509 132.144C102.481 131.622 102.804 131.087 102.246 130.277C100.909 130.277 99.3615 130.321 97.8183 130.259C97.009 130.227 96.0095 130.088 96.0001 129.046C95.989 127.826 97.0893 128.106 97.8499 128.062C98.6636 128.015 99.482 128.048 100.501 128.045Z" fill="#3D2A36"/>
<path d="M150.618 128.045C156.468 128.044 162.114 128.03 167.76 128.056C168.597 128.06 169.683 127.708 170.137 128.722C170.55 129.647 169.537 129.921 169.017 130.393C168.505 130.857 168.613 131.507 168.518 132.093C167.541 138.129 162.329 140.945 156.668 138.427C153.978 137.231 152.781 134.993 152.626 132.144C152.598 131.622 152.922 131.087 152.363 130.277C151.026 130.277 149.479 130.321 147.935 130.259C147.126 130.227 146.127 130.088 146.117 129.046C146.106 127.826 147.206 128.106 147.967 128.062C148.781 128.015 149.599 128.048 150.618 128.045Z" fill="#3D2A36"/>
</svg>
