<svg width="268" height="268" viewBox="0 0 268 268" fill="none" xmlns="http://www.w3.org/2000/svg">
<path d="M159.564 131.054C159.916 133.364 159.667 135.411 158.523 137.263C156.825 140.014 153.561 141.156 150.814 139.99C148.316 138.93 146.389 135.28 146.807 132.401C147.61 126.88 152.014 124.348 156.522 126.795C158.143 127.676 158.963 129.166 159.564 131.054Z" fill="#3D2A36"/>
<path d="M147.701 123.655C152.416 120.362 158.39 120.125 163.181 122.986C165.206 124.195 166.631 125.835 166.915 128.16C166.988 128.763 167.241 129.639 166.343 129.873C165.495 130.094 165.126 129.321 164.865 128.729C163.782 126.278 161.829 124.798 159.229 123.954C154.783 122.511 150.027 123.831 147.056 127.283C146.452 127.985 145.906 129.573 144.716 128.698C143.711 127.959 144.867 126.83 145.464 126.036C146.085 125.21 146.876 124.498 147.701 123.655Z" fill="#3D2A36"/>
<path d="M103.455 126.47C103.011 126.713 102.687 126.885 102.367 127.063C101.729 127.417 101.029 127.96 100.37 127.269C99.6455 126.51 100.105 125.722 100.725 125.112C102.391 123.47 104.577 122.762 106.908 122.64C110.32 122.461 113.397 123.519 116.099 125.424C116.824 125.936 117.429 126.643 117.94 127.353C118.445 128.056 119.094 129.004 118.156 129.681C117.192 130.377 116.626 129.322 116.066 128.799C112.164 125.161 108.243 124.393 103.455 126.47Z" fill="#3D2A36"/>
<path d="M108.824 129.53C112.335 128.467 115.551 129.422 117.221 131.946C117.615 132.542 118.152 133.172 117.562 133.917C117.033 134.584 116.361 134.303 115.729 134.057C112.982 132.985 110.288 132.897 107.672 134.453C107.181 134.745 106.637 134.943 106.136 134.562C105.58 134.139 105.61 133.53 105.783 132.904C106.217 131.33 107.302 130.331 108.824 129.53Z" fill="#3D2A36"/>
</svg>
