<svg width="268" height="268" viewBox="0 0 268 268" fill="none" xmlns="http://www.w3.org/2000/svg">
<path d="M115.287 141.854C111.796 142.39 109.003 141.494 107.372 138.496C105.24 134.578 106.124 130.844 108.918 127.166C106.494 127.595 104.35 127.974 102 128.39C104.884 122.858 112.766 122.759 117.575 126.944C122.932 131.607 121.881 138.784 115.287 141.854Z" fill="#3D2A36"/>
<path d="M158.726 138.508C156.563 141.437 153.643 142.57 150.641 141.73C147.663 140.898 145.241 137.867 145.024 134.701C144.741 130.566 146.982 127.133 151.284 125.117C155.23 123.267 160.097 123.749 162.909 126.311C163.45 126.804 163.864 127.43 164 128.434C161.802 127.97 159.604 127.506 156.93 126.942C159.904 130.681 161.096 134.307 158.726 138.508Z" fill="#3D2A36"/>
</svg>
