<svg width="268" height="268" viewBox="0 0 268 268" fill="none" xmlns="http://www.w3.org/2000/svg">
<path d="M113.508 189.496C114.323 188.059 114.572 187.536 114.902 185.926C114.994 183.479 114.895 183.022 115.004 182.468C115.657 182.468 116.306 182.478 116.954 182.466C120.274 182.405 123.594 182.355 126.914 182.269C130.198 182.184 133.481 182.077 136.764 181.951C140.116 181.822 143.467 181.671 146.818 181.507C148.457 181.427 150.093 181.302 151.73 181.187C152.117 181.16 152.509 181.129 152.882 181.031C153.3 180.921 153.477 181.072 153.633 181.463C154.487 183.601 154.359 187.733 155.464 189.75C155.947 190.632 157.356 191.579 158.27 192.121C159.305 192.736 160.008 193.996 159.952 195.075C158.008 200.996 150.836 206.072 144.248 207.741C140.265 208.751 136.216 209.14 132.124 208.949C129.638 208.834 127.193 208.362 124.76 207.834C122.048 207.244 119.363 206.552 116.759 205.563C114.476 204.697 112.353 203.572 110.822 201.531C109.663 199.986 109.056 198.232 109.014 196.276C109.002 195.729 109.011 195.183 109.014 194.636C109.02 193.617 109.868 192.348 110.845 192.183C111.926 192.001 113.056 190.497 113.508 189.496Z" fill="#B25822"/>
<path d="M114.991 187.756C117.493 183.353 112.418 182.411 119.479 184.854C129.558 188.34 139.58 188.344 149.628 185.613C150.351 185.417 151.978 184.568 153.514 183.913C153.93 185.956 154.038 188.665 154.745 190.358C151.852 192.18 148.834 194.103 146.925 194.965C136.064 199.865 127.012 196.816 119.008 190.996C116.507 188.879 116.656 188.648 114.991 187.756Z" fill="#904318"/>
<path d="M181.401 71.0645C198.288 107.598 199.258 187.935 130.93 186.294C103.683 185.639 83.4448 169.929 77.6727 144.177C76.1072 137.192 75.8604 129.77 76.0732 122.58C77.275 81.954 78.853 47.0255 140.986 45.9977C156.021 47.3448 174.888 56.9723 181.401 71.0645Z" fill="#B25822"/>
</svg>
