<svg width="268" height="268" viewBox="0 0 268 268" fill="none" xmlns="http://www.w3.org/2000/svg">
<path d="M102.37 111.271C108.477 109.933 115.085 112.234 117.987 115.442C118.673 116.199 119.623 117.019 118.435 117.791C117.37 118.482 116.112 117.363 115.039 116.714C109.986 113.661 104.919 113.261 99.8238 114.65C98.8671 114.911 97.4525 115.772 96.6399 115.702C96.002 115.647 95.9004 115.408 96.2892 114.708C97.4715 113.308 99.3385 111.934 102.37 111.271Z" fill="#B77958"/>
<path d="M165.068 111.271C158.961 109.933 152.352 112.234 149.45 115.442C148.765 116.199 147.815 117.019 149.003 117.791C150.068 118.482 151.325 117.363 152.399 116.714C157.451 113.661 162.518 113.261 167.614 114.65C168.57 114.911 169.985 115.772 170.798 115.702C171.436 115.647 171.537 115.408 171.148 114.708C169.966 113.308 168.099 111.934 165.068 111.271Z" fill="#B77958"/>
</svg>
