<svg width="268" height="268" viewBox="0 0 268 268" fill="none" xmlns="http://www.w3.org/2000/svg">
<path d="M151.223 110.823C154.362 109.135 157.447 108.47 160.788 109.468C162.98 110.123 164.227 111.31 163.579 114.045C158.5 112.375 153.539 112.198 148.701 115C148.491 114.666 148.292 114.403 148.07 113.997C147.531 113.013 150.259 111.344 151.223 110.823Z" fill="#C46735"/>
<path d="M113.527 110.823C110.388 109.135 107.303 108.47 103.962 109.468C101.77 110.123 100.523 111.31 101.171 114.045C106.25 112.375 111.211 112.198 116.049 115C116.259 114.666 116.458 114.403 116.68 113.997C117.219 113.013 114.491 111.344 113.527 110.823Z" fill="#C46735"/>
</svg>
