<svg width="268" height="268" viewBox="0 0 268 268" fill="none" xmlns="http://www.w3.org/2000/svg">
<path d="M143 115.581C146.694 107.607 158.965 106.908 164.49 113.329C165.511 114.515 166.955 116.069 165.118 117.355C164.349 117.894 162.241 117.433 161.293 116.716C156.163 112.835 152.548 112.824 147.237 117.018C145.234 118.6 143.731 118.374 143 115.581Z" fill="#824326"/>
<path d="M123 115.581C119.306 107.607 107.035 106.908 101.51 113.329C100.489 114.515 99.045 116.069 100.882 117.355C101.651 117.894 103.759 117.433 104.707 116.716C109.837 112.835 113.452 112.824 118.763 117.018C120.766 118.6 122.269 118.374 123 115.581Z" fill="#824326"/>
</svg>
