<svg width="268" height="268" viewBox="0 0 268 268" fill="none" xmlns="http://www.w3.org/2000/svg">
<path d="M143.74 118.049C146.359 115.835 150.943 113.188 156.36 112.306C161.855 111.412 168.215 112.344 174.09 117.344C174.93 118.06 175.032 119.322 174.316 120.163C173.6 121.004 172.338 121.106 171.497 120.39C166.641 116.257 161.512 115.521 157.004 116.255C152.418 117.001 148.485 119.275 146.322 121.104C145.478 121.817 144.216 121.711 143.503 120.867C142.79 120.024 142.896 118.762 143.74 118.049Z" fill="#8E4A1F"/>
<path d="M123.502 118.049C120.883 115.835 116.299 113.188 110.882 112.306C105.388 111.412 99.0269 112.344 93.1525 117.344C92.3118 118.06 92.2104 119.322 92.926 120.163C93.642 121.004 94.9046 121.106 95.7456 120.39C100.601 116.257 105.73 115.521 110.238 116.255C114.824 117.001 118.757 119.275 120.921 121.104C121.764 121.817 123.026 121.711 123.739 120.867C124.452 120.024 124.346 118.762 123.502 118.049Z" fill="#8E4A1F"/>
</svg>
