<svg width="268" height="268" viewBox="0 0 268 268" fill="none" xmlns="http://www.w3.org/2000/svg">
<path d="M102.64 113.616C106.977 112.106 112.6 113.488 115.072 116.489C115.656 117.198 116.45 117.947 115.577 118.832C114.794 119.626 113.778 118.49 112.862 118.035C108.759 115.997 104.757 115.413 100.884 117.263C100.157 117.611 99.1137 118.607 98.4767 118.607C97.9766 118.606 97.8815 118.373 98.1374 117.628C98.9643 116.107 100.326 114.552 102.64 113.616Z" fill="#5A311E"/>
<path d="M164.32 113.616C159.984 112.106 154.361 113.488 151.889 116.489C151.305 117.198 150.511 117.947 151.384 118.832C152.167 119.626 153.183 118.49 154.099 118.035C158.202 115.997 162.204 115.413 166.077 117.263C166.804 117.611 167.847 118.607 168.484 118.607C168.984 118.606 169.079 118.373 168.823 117.628C167.997 116.107 166.635 114.552 164.32 113.616Z" fill="#5A311E"/>
</svg>
