<svg width="268" height="268" viewBox="0 0 268 268" fill="none" xmlns="http://www.w3.org/2000/svg">
<path d="M116.719 121.013C112.763 115.267 99.9235 114.243 95.7861 119.074C95.2329 119.721 94.9009 120.856 95.0304 121.675C95.1091 122.173 96.4458 122.996 96.9188 122.829C103.206 120.604 109.48 120.159 115.852 122.437C115.995 122.488 116.719 122.076 116.719 121.013Z" fill="#744631"/>
<path d="M150 121.013C153.956 115.267 166.795 114.243 170.933 119.074C171.486 119.721 171.818 120.856 171.688 121.675C171.61 122.173 170.273 122.996 169.8 122.829C163.513 120.604 157.239 120.159 150.867 122.437C150.723 122.488 150 122.076 150 121.013Z" fill="#744631"/>
</svg>
