<svg width="268" height="268" viewBox="0 0 268 268" fill="none" xmlns="http://www.w3.org/2000/svg">
<path d="M150.86 113.806C148.571 114.609 146.497 115.444 147.059 117.114C147.92 119.242 150.092 117.285 151.507 116.773C157.092 114.753 161.955 116.026 166.484 119.444C167.334 120.085 168.287 121.5 169.376 120.197C170.425 118.943 169.093 117.959 168.161 117.162C163.136 112.868 157.41 111.816 150.86 113.806Z" fill="#3D2A36"/>
<path d="M116.359 113.807C118.647 114.61 120.721 115.445 120.159 117.115C119.299 119.243 117.127 117.286 115.712 116.774C110.126 114.754 105.264 116.027 100.734 119.445C99.8849 120.086 98.9316 121.501 97.8424 120.198C96.7939 118.944 98.1255 117.96 99.0575 117.163C104.083 112.869 109.809 111.817 116.359 113.807Z" fill="#3D2A36"/>
</svg>
