<svg width="268" height="268" viewBox="0 0 268 268" fill="none" xmlns="http://www.w3.org/2000/svg">
<path d="M74.0859 70.7148C77.3355 55.2869 87.6891 45.8044 101.001 38.9855C110.841 33.9445 121.596 32.9287 133.841 32.8857C131.517 30.0224 129.815 27.9262 128.117 25.8273C132.571 23.9203 137.589 25.3181 139.606 29.9396C140.947 33.0103 142.911 33.2752 145.51 33.4982C162.464 34.9538 175.771 42.7889 185.323 56.8012C187.465 59.943 188.788 63.6428 190.316 67.5823C190.232 69.3258 190.44 70.5789 190.376 71.8177C190.314 72.9992 190.372 74.5889 189.671 75.258C187.743 77.0963 185.616 78.878 183.264 80.0943C169.027 87.4566 153.621 90.3245 137.809 90.6491C128.505 90.8401 119.03 90.5721 109.898 88.9848C100.421 87.3375 91.1339 84.2179 82.0277 80.9963C78.0526 79.5899 73.2217 77.4705 74.5242 71.3163C74.5586 71.1538 74.24 70.9169 74.0859 70.7148Z" fill="#DE4226"/>
<path d="M74 71.0129C74.2371 70.9162 74.5558 71.1531 74.5214 71.3156C73.2188 77.4698 78.0497 79.5892 82.0248 80.9956C91.131 84.2172 100.418 87.3368 109.895 88.9841C119.028 90.5714 128.503 90.8394 137.806 90.6484C153.618 90.3238 169.025 87.4559 183.261 80.0936C185.613 78.8773 187.74 77.0956 189.668 75.2573C190.369 74.5882 190.312 72.9985 190.373 71.817C190.437 70.5782 190.229 69.3251 190.326 67.8594C194.27 79.776 190.546 87.7897 179.006 92.8179C168.518 97.3877 157.469 99.6659 146.174 100.461C127.087 101.805 108.138 100.911 89.8365 94.5802C82.8276 92.1555 75.9316 84.88 75.5185 83.4596C74.9846 79.4102 74.4508 75.361 74 71.0129Z" fill="#D0321B"/>
</svg>
