<svg width="268" height="268" viewBox="0 0 268 268" fill="none" xmlns="http://www.w3.org/2000/svg">
<path d="M62.2615 73.2246C62.2615 73.2246 62.4726 73.6945 62.669 74.4989C63.3449 80.3669 64.0207 86.2348 64.6233 92.9235C66.0083 101.191 69.3335 104.337 77.5887 103.888C82.1543 103.64 86.747 102.441 91.1625 101.119C119.659 92.5895 147.88 92.6137 175.896 103.237C178.871 104.365 182.09 105.132 185.256 105.427C195.85 106.411 201.026 101.539 201.074 90.9595C201.089 87.7402 201.216 84.5213 201.208 81.3065C201.208 81.3065 201.224 81.3886 201.827 80.9041C202.294 78.8947 202.76 76.8852 203.325 74.4126C203.325 74.4126 203.362 73.9405 204.061 73.6058C206.947 63.3711 210.282 53.2339 212.543 42.8628C213.779 37.1905 210.106 33.8193 204.135 35.3827C194.728 37.8457 185.65 41.5691 175.607 44.7036C153.082 35.7618 129.878 34.0795 106.14 38.258C98.7273 39.5629 91.4649 43.3777 83.1109 39.2449C82.6578 39.1309 81.4352 38.5525 81.4352 38.5525C81.4352 38.5525 80.8409 38.3456 79.729 38.1759C72.9177 37.104 66.1387 35.5692 59.286 35.0919C52.5386 34.622 49.6434 37.8235 51.6005 44.316C54.5184 53.9958 58.6523 63.3088 62.2774 72.6974C62.2774 72.6974 62.1981 72.7136 62.2615 73.2246Z" fill="#7F8088"/>
<path d="M80.0561 37.152C81.5673 37.4039 85.1867 38.5328 85.808 38.5249C93.495 42.5101 100.755 38.6233 108.166 37.2938C131.896 33.0364 155.093 34.7505 178.254 44.1577C186.355 42.0196 193.798 39.5323 201.285 37.1884C203.122 36.6132 205.174 36.0264 206.994 36.3152C208.973 36.6293 211.929 37.5336 212.436 38.9381C213.314 41.3755 213.597 44.306 210.06 46.3096C205.768 48.7407 204.844 58.6999 207.083 61.4246C206.423 66.0981 205.891 69.874 205.358 73.6497L204.971 74.6077L203.316 80.2939L202.893 81.3882C202.893 81.3882 201.06 83.9712 201.153 85.0705C201.675 91.2226 200.952 96.6633 194.652 99.5727C192.843 100.408 190.887 102.032 189.199 101.797C185.203 101.24 181.297 99.8893 177.412 98.6671C171.911 96.9363 166.567 94.0074 160.969 93.4085C148.053 92.0268 135.009 91.9403 122.045 90.9477C111.012 90.1029 100.787 93.3572 90.7066 96.9598C77.9112 101.533 74.8551 101.211 66.735 92.1546C66.0593 86.1759 65.3836 80.1973 64.7637 73.6886C64.6253 72.9057 64.4313 72.6525 64.2372 72.3995C64.2372 72.3995 64.3165 72.3831 64.3231 71.9811C64.0578 70.1789 64.1893 68.4869 63.4497 67.425C58.106 59.7508 59.1825 42.413 59.1825 42.413C59.1825 42.413 59.7094 40.7542 60.1254 39.9889C62.7443 35.1709 67.026 35.9703 71.3059 36.4927C75.8816 37.0513 76.8272 36.6139 80.0561 37.152ZM79.7121 45.0112C77.4778 44.4515 75.2526 43.4938 73.0068 43.4403C70.6069 43.3831 68.1875 44.1788 65.7767 44.6022C66.5888 47.5555 66.9353 50.7738 68.3618 53.3774C69.4797 55.4176 71.9346 56.6966 74.0607 58.5445C77.9231 54.9151 81.9127 51.166 86.4205 46.9301C83.6096 46.0768 82.0857 45.6143 79.7121 45.0112ZM200.461 53.5457C201.548 50.3279 202.635 47.11 203.722 43.8922C203.237 43.5246 202.752 43.1572 202.268 42.7896C196.202 44.7176 190.136 46.6455 183.413 48.7823C188.522 52.6632 192.687 55.8267 196.986 59.0919C198.115 57.2492 199.048 55.7253 200.461 53.5457Z" fill="#9C9FB7"/>
</svg>
