<svg width="268" height="268" viewBox="0 0 268 268" fill="none" xmlns="http://www.w3.org/2000/svg">
<path d="M74.8837 73.2304C77.0327 55.9823 81.1477 39.488 93.1173 26.0415C97.0985 21.5692 102.062 18.5905 108.018 18.0619C110.803 17.8146 114.039 18.3048 116.501 19.5692C123.476 23.1506 124.16 23.371 131.412 23.3708C133.714 23.3708 142.698 18.7703 145.065 18.6379C153.288 18.1776 161.179 19.4734 167.499 25.6598C181.294 39.163 187.542 56.3537 189.666 75.4275C185.135 77.2125 180.629 78.2943 176.262 79.7559C157.995 85.87 139.475 90.4377 120.006 87.7092C110.571 86.387 101.096 84.9522 91.8788 82.6207C85.7435 81.0687 80.0319 77.8415 74.1328 75.3668C74.135 75.3695 74.1404 75.3736 74.2554 75.1126C74.5414 74.3112 74.7125 73.7708 74.8837 73.2304Z" fill="#EF4745"/>
<path d="M75.1714 72.5352C75.2726 72.9431 75.1015 73.4835 74.7058 74.3308C74.5511 74.6039 74.6209 74.5701 74.6907 74.5364C80.5919 77.0138 86.3035 80.241 92.4389 81.793C101.656 84.1245 111.131 85.5593 120.566 86.8815C140.035 89.61 158.555 85.0423 176.822 78.9282C181.189 77.4666 185.592 76.1125 190.256 74.5776C196.301 79.4027 196.128 85.3537 189.855 89.1703C179.433 95.5103 167.71 97.7218 155.85 99.3206C152.456 99.7781 149.017 99.8981 144.975 99.8938C138.226 99.7912 132.101 99.9676 125.975 100.144C108.975 99.9293 92.5779 96.7784 76.7587 90.4464C67.5418 86.757 68.488 76.9086 75.1714 72.5352Z" fill="#DA3233"/>
<path d="M142.705 57.866C142.705 57.866 146.874 67.885 136.338 69.9791C132 69.9507 125.604 70.9323 121.272 63.4347C119.447 60.2762 120.533 59.1059 124.297 59.0969C125.652 59.0936 126.306 59.0969 127.869 59.0969C128.017 60.0443 128.596 60.8896 128.962 61.2803C129.876 62.2588 130.908 63.3015 132.107 63.7617C132.634 63.9642 134.429 63.3403 134.357 62.2865C134.266 60.9389 133.894 59.2285 132.97 58.4121C131.691 57.2824 129.873 56.5135 128.168 56.1639C123.585 55.2243 121.898 52.0893 121.488 47.9451C121.05 43.516 122.498 41.0304 124.15 39.7909C124.977 38.9646 127.184 38.0582 127.869 37.7252C129.415 36.9729 132.677 37.0154 134.233 37.0039C141.503 37.3122 142.958 43.1366 142.329 47.9451C136.915 47.6549 137.807 49.8726 135.719 45.162C135.565 44.8159 132 44.3355 131.069 45.2321C128.695 46.8144 131.501 50.2545 131.501 50.2545C131.501 50.2545 133.843 51.6828 135.196 51.6828C139.85 53.8379 142.705 57.866 142.705 57.866Z" fill="#FDBD5A"/>
<path d="M123.442 124.945C123.37 124.976 123.3 125.01 123.34 124.998C123.449 124.952 123.444 124.948 123.442 124.945Z" fill="#EF4745"/>
</svg>
