<svg width="268" height="268" viewBox="0 0 268 268" fill="none" xmlns="http://www.w3.org/2000/svg">
<path d="M108.872 41.3741C121.195 36.998 133.667 35.3376 146.401 39.0519C148.791 39.7489 151.112 40.7258 154.063 41.7469C158.131 43.7604 161.601 45.6005 165.251 47.7392C173.903 53.4224 180.182 61.1986 185.718 70.2406C187.269 73.2893 188.633 75.3111 190.087 78.7876C194.717 89.8572 194.875 96.6679 194.875 109.495C195.44 115.224 193.948 126.021 193.284 127.319C191.738 127.945 189.178 125.056 187.203 123.503C184.615 120.994 182.17 118.753 179.56 116.202C174.341 112.716 169.494 109.029 164.191 106.461C150.377 99.7737 135.822 98.711 120.804 99.531C107.959 100.232 96.7808 104.623 86.5955 112.737C85.2498 113.809 84.1105 115.188 82.5829 116.322C79.6308 118.76 76.9714 121.3 74.0127 123.978C73.3102 124.189 71.5354 125.058 70.6265 124.556C69.7677 123.615 69.7677 123.615 69.3632 122.999C68.8739 118.881 67.8157 114.728 68.0277 110.653C68.353 104.405 69.5535 98.2102 70.3808 91.9925C70.8591 88.3975 71.3338 84.8019 72.0593 80.5901C72.971 75.2977 75.7627 69.7487 77.2435 67.9153C87.4446 55.2853 95.3992 47.5862 108.872 41.3741Z" fill="#DB873A"/>
<path d="M126.975 80.361C116.751 80.9978 109.383 83.1906 101.31 86.2278C93.2832 89.2477 85.9162 94.351 78.2681 98.5589C77.2729 99.1063 76.3278 99.7617 75.0781 100.543C77.9863 91.6073 103.083 78.9849 122.589 77.6953C146.969 76.0834 169.662 81.2307 187.363 101.595C169.891 86.139 151.717 78.8202 126.975 80.361Z" fill="#C46735"/>
</svg>
