<svg width="268" height="268" viewBox="0 0 268 268" fill="none" xmlns="http://www.w3.org/2000/svg">
<path d="M123.497 25.5247C129.452 23.7358 135.445 23.4719 141.497 24.9946C151.961 30.3732 175.476 45.3172 180.848 52.7752C181.149 53.2617 181.455 53.602 181.762 53.9424C181.762 53.9424 181.726 53.959 181.731 54.0823C181.899 54.4141 182.062 54.6226 182.225 54.831C182.225 54.831 182.179 54.8264 182.171 54.9769C183.179 57.8211 184.195 60.515 185.214 63.3836C185.214 64.0252 185.213 64.4921 185.055 64.8901C179.478 63.8223 174.092 62.505 168.627 61.8941C158.743 60.7892 148.826 59.7764 138.896 59.3491C130.671 58.9952 122.402 59.4097 114.163 59.7345C109.162 59.9316 104.158 60.4386 99.195 61.1053C92.3857 62.02 85.6146 63.2181 78.6797 64.3181C79.0201 62.4012 79.3453 60.5702 79.6705 58.7393C79.6705 58.7393 79.6725 58.7818 79.808 58.727C80.1286 58.1012 80.3135 57.5303 80.4985 56.9594C80.4985 56.9594 80.5446 56.99 80.66 56.9294C89.6478 40.0942 106.407 30.6582 123.497 25.5247Z" fill="#FFBA21"/>
<path d="M74.8821 67.5395C75.0745 67.2873 75.2669 67.035 75.7188 66.7322C76.1465 66.488 76.3148 66.2943 76.483 66.1007C76.802 65.7545 76.9281 65.8111 76.9836 65.6978C76.9836 65.6978 77.0442 65.7728 77.1887 65.7958C78.5099 66.1403 78.5575 67.9909 80.4448 67.6205C86.6429 66.404 92.8727 65.2826 99.1361 64.4832C106.338 63.5639 113.581 62.545 120.82 62.4382C131.317 62.2834 141.828 62.8517 152.33 63.2274C156.397 63.3729 160.492 63.5835 164.505 64.2075C171.512 65.2973 178.467 66.73 185.663 68.0596C185.663 67.4143 185.663 66.6287 185.808 65.9048C186.46 66.0588 186.967 66.151 187.474 66.2432C188.004 66.8533 189.893 68.3774 189.7 69.0475C190.704 73.6565 191.007 78.1365 189.598 82.5894C189.123 84.0906 188.478 85.5382 187.911 87.0104C187.911 87.0104 187.891 86.9725 187.798 87.0103C187.425 87.3622 186.858 88.2602 186.384 88.267C183.368 88.9871 180.575 89.4291 177.641 88.3628C175.327 87.5214 172.859 87.0921 170.448 86.5299C160.222 84.1454 149.84 82.5349 139.376 82.2358C130.126 81.9715 120.803 82.2631 111.597 83.1739C104.252 83.9006 97.0322 85.912 89.7678 87.4069C75.5896 90.3243 72.1005 75.414 74.8821 67.5395Z" fill="#FFB31F"/>
<path d="M185.667 65.8432C185.667 66.6288 185.667 67.4143 185.667 68.0597C178.47 66.73 171.516 65.2973 164.508 64.2076C160.495 63.5835 156.4 63.3729 152.333 63.2274C141.832 62.8517 131.32 62.2834 120.823 62.4383C113.585 62.5451 106.341 63.564 99.1393 64.4832C92.8759 65.2827 86.646 66.4041 80.4479 67.6205C78.5607 67.9909 78.5131 66.1403 77.1719 65.7519C77.4406 64.5967 77.9048 63.5194 78.2981 62.4169C78.7078 61.2684 79.0492 60.0956 79.5484 58.8359C79.3511 60.5695 79.0259 62.4004 78.6855 64.3174C85.6204 63.2173 92.3915 62.0193 99.2007 61.1045C104.163 60.4379 109.168 59.9309 114.168 59.7338C122.408 59.409 130.677 58.9945 138.902 59.3484C148.832 59.7756 158.749 60.7885 168.632 61.8933C174.097 62.5043 179.483 63.8216 185.173 64.8917C185.515 64.963 185.589 64.9631 185.663 65.1098C185.664 65.452 185.665 65.6476 185.667 65.8432Z" fill="#F8A41E"/>
</svg>
