<svg width="268" height="268" viewBox="0 0 268 268" fill="none" xmlns="http://www.w3.org/2000/svg">
<path d="M189.024 133.557C188.425 127.585 185.647 121.885 181.154 117.705C176.497 113.389 170.452 111 164.079 111C152.778 111 143.029 118.438 139.979 129.187C138.073 127.287 134.941 126.011 132 126.011C129.059 126.011 125.927 127.287 124.021 129.187C120.971 118.438 111.222 111 99.9205 111C93.5754 111 87.5027 113.362 82.846 117.678C78.3527 121.885 75.575 127.585 74.9759 133.557H71V138.443H74.9759C75.575 144.415 78.3527 150.115 82.846 154.295C87.5027 158.611 93.5482 161 99.9205 161C113.754 161 125.001 149.817 125.001 136.027V136C125.001 133.313 128.133 130.137 132 130.137C135.867 130.137 138.999 133.313 138.999 136V136.027C138.999 149.817 150.246 161 164.079 161C170.425 161 176.497 158.638 181.154 154.295C185.647 150.115 188.425 144.388 189.024 138.416H193V133.53H189.024V133.557ZM164.079 156.901C152.506 156.901 143.111 147.509 143.111 136C143.111 124.464 152.533 115.099 164.079 115.099C175.653 115.099 185.048 124.491 185.048 136C185.048 147.536 175.653 156.901 164.079 156.901ZM99.9205 156.901C88.3469 156.901 78.9518 147.509 78.9518 136C78.9518 124.464 88.3741 115.099 99.9205 115.099C111.494 115.099 120.889 124.491 120.889 136C120.889 147.536 111.494 156.901 99.9205 156.901Z" fill="#412A1F"/>
</svg>
