<svg width="268" height="268" viewBox="0 0 268 268" fill="none" xmlns="http://www.w3.org/2000/svg">
<path d="M63.2608 73.2225C63.2608 73.2225 63.4719 73.6923 63.6683 74.4967C64.3441 80.3643 65.02 86.2319 65.6226 92.9202C67.0075 101.188 70.3324 104.333 78.5872 103.884C83.1525 103.636 87.745 102.437 92.1602 101.115C120.655 92.5862 148.874 92.6104 176.888 103.233C179.864 104.361 183.083 105.128 186.248 105.423C196.842 106.407 202.017 101.535 202.066 90.9563C202.081 87.7372 202.208 84.5185 202.2 81.3039C202.2 81.3039 202.216 81.386 202.818 80.9015C203.285 78.8922 203.752 76.8828 204.317 74.4104C204.317 74.4104 204.353 73.9383 205.052 73.6036C207.939 63.3695 211.273 53.2328 213.534 42.8623C214.77 37.1904 211.097 33.8194 205.126 35.3826C195.72 37.8455 186.643 41.5687 176.6 44.703C154.076 35.7618 130.873 34.0795 107.137 38.2578C99.7246 39.5626 92.4626 43.3772 84.109 39.2447C83.656 39.1306 82.4335 38.5523 82.4335 38.5523C82.4335 38.5523 81.8392 38.3454 80.7274 38.1757C73.9165 37.1039 67.1378 35.5692 60.2855 35.0919C53.5385 34.622 50.6434 37.8233 52.6005 44.3155C55.5182 53.9947 59.6519 63.3072 63.2767 72.6953C63.2767 72.6953 63.1974 72.7114 63.2608 73.2225Z" fill="#6B39CE"/>
<path d="M83.2152 37.69C84.9141 38.0298 86.4438 38.2281 86.8143 38.5247C94.5009 42.5097 101.761 38.6231 109.171 37.2936C132.9 33.0365 156.095 34.7506 179.255 44.1571C187.356 42.0192 194.799 39.5321 202.284 37.1883C204.122 36.6131 206.174 36.0263 207.994 36.3152C209.972 36.6292 212.929 37.5335 213.435 38.9379C214.313 41.3751 214.596 44.3055 211.059 46.309C206.767 48.7399 205.843 58.6985 208.082 61.4231C207.491 65.6146 207.562 70.6647 205.971 74.6055L204.316 80.2913L203.893 81.3856C203.893 81.3856 202.059 83.9684 202.153 85.0677C202.675 91.2195 201.952 96.6598 195.652 99.569C193.843 100.404 191.887 102.028 190.2 101.793C186.204 101.236 182.297 99.8856 178.413 98.6635C172.912 96.9328 167.569 94.004 161.971 93.4052C149.056 92.0235 136.013 91.937 123.05 90.9445C112.017 90.0998 101.793 93.3539 91.7127 96.9563C78.918 101.529 75.862 101.207 67.7424 92.1513C67.0667 86.173 66.3911 80.1947 65.7712 73.6864C65.6328 72.9035 65.4388 72.6504 65.2447 72.3974C65.2447 72.3974 65.324 72.381 65.3306 71.979C65.0654 70.1769 65.1968 68.485 64.4573 67.4231C59.1139 59.7494 60.1904 42.4126 60.1904 42.4126C60.1904 42.4126 60.7171 40.7539 61.1331 39.9887C63.7519 35.1709 68.0333 35.9702 72.313 36.4927C77.7174 36.7154 80.5246 37.1519 83.2152 37.69ZM80.7187 45.0106C78.4846 44.451 76.2595 43.4934 74.0138 43.4398C71.6141 43.3827 69.1948 44.1783 66.7841 44.6017C67.5961 47.5548 67.9427 50.7729 69.3691 53.3764C70.4869 55.4164 72.9417 56.6954 75.0677 58.5431C78.9298 54.9139 82.9192 51.1651 87.4267 46.9294C84.616 46.0762 83.0922 45.6137 80.7187 45.0106ZM201.461 53.5446C202.547 50.327 203.634 47.1093 204.721 43.8917C204.237 43.5242 203.752 43.1567 203.268 42.7892C197.202 44.7171 191.136 46.6448 184.413 48.7815C189.523 52.6622 193.687 55.8255 197.986 59.0906C199.115 57.2479 200.048 55.7242 201.461 53.5446Z" fill="#7E47EB"/>
<path d="M80.9651 44.2902C82.997 44.8595 84.5859 45.9263 87.5167 46.8381C82.8166 51.3646 78.9069 55.4479 74.6296 58.6766C72.4128 56.702 69.8532 55.3352 68.6876 53.1551C67.2002 50.3729 66.8389 46.9338 65.9922 43.7779C68.5059 43.3255 71.0285 42.4752 73.5307 42.5363C75.8724 42.5935 78.1925 43.6169 80.9651 44.2902Z" fill="#9C8AFF"/>
<path d="M201.299 54.2409C200.118 56.1968 199.178 57.8064 198.042 59.7528C193.713 56.3038 189.52 52.9624 184.375 48.8631C191.144 46.606 203.36 42.5332 203.36 42.5332C203.36 42.5332 203.999 42.8439 204.285 43.0713C204.571 43.2987 204.823 43.6979 204.823 43.6979C204.823 43.6979 202.635 50.4956 201.299 54.2409Z" fill="#9C8AFF"/>
</svg>
