<svg width="268" height="268" viewBox="0 0 268 268" fill="none" xmlns="http://www.w3.org/2000/svg">
<path d="M67.3037 87.1514C82.3347 38.5674 116.896 29.175 151.588 35.5342C155.166 36.7337 162.455 39.4933 166.262 41.6904C175.287 47.5287 181.837 56.5053 187.61 65.7939C191.233 72.8066 195.353 80.8486 197.405 89.125C198.14 89.6668 198.635 90.0913 199.355 90.792C202.394 93.7469 202.212 115.827 201.714 116.812C200.712 118.788 194.648 117.209 190.81 116.188C180.531 113.456 169.927 111.798 159.408 109.946C154.154 109.021 148.812 108.182 143.49 108.057C134.348 107.84 125.184 108.062 116.042 108.398C111.029 108.583 106.015 109.22 101.048 109.946C97.1833 110.511 93.3758 111.47 89.5703 112.359C75.5842 115.627 63.6957 122.858 62.5723 118.792C61.0694 113.351 62.928 102.955 63.5732 94.0742C63.5734 92.0971 65.0918 90.9098 65.3252 90.9043C65.8295 90.7118 66.3347 90.5239 66.8398 90.3379C66.9854 89.3997 67.1421 88.3479 67.3037 87.1514Z" fill="#864A99"/>
<path d="M70.5781 89.9267C70.8647 88.5666 71.1512 87.2066 71.8444 85.7291C73.2681 86.1877 74.1042 87.4187 74.8247 87.1668C81.0712 84.9828 87.6995 82.6823 93.7874 80.0994C94.7402 79.6952 95.3579 77.9754 95.676 76.749C97.225 70.7763 97.9756 64.5105 100.267 58.845C102.19 54.0924 105.846 50.024 108.99 45.639C109.415 45.6149 109.585 45.6045 109.746 45.9647C109.292 47.3581 109.02 48.505 108.374 49.3844C101.933 58.1587 100.166 67.5839 101.352 77.7733C113.865 75.7973 122.676 74.9471 134.886 74.8914C144.312 74.8484 151.519 75.9526 160.913 76.7859C166.116 77.2474 167.848 77.8677 167.42 72.8313C166.594 63.122 164.85 54.3656 159.119 46.6373C159.889 46.6413 160.329 46.6454 160.921 46.9459C168.096 55.1623 170.892 64.483 170.927 74.8914C170.933 76.6619 173.483 78.6993 174.928 79.2575C180.439 81.3875 184.565 84.2517 190.444 86.1781C191.531 87.2536 193.447 88.8349 193.947 89.6384C171.424 82.7178 149.345 78.2019 126.346 79.9499C107.155 81.4087 88.4922 83.9817 70.6157 90.8233C70.6078 90.3249 70.593 90.1258 70.5781 89.9267Z" fill="#733D85"/>
</svg>
