<svg width="87" height="87" viewBox="0 0 87 87" fill="none" xmlns="http://www.w3.org/2000/svg">
<rect width="87" height="87" rx="32" fill="url(#paint0_linear_3813_10863)"/>
<rect x="1" y="1" width="85" height="85" rx="31" stroke="white" stroke-opacity="0.3" stroke-width="2"/>
<path d="M73.4062 50.9722V46.0508L68.9364 46.193V21.0703H63.646V24.5009H60.2182V29.1707H56.8082V33.7303H54.239V36.8508H51.6698V41.6308H46.7081V43.4501H40.1274V41.6308H35.1635V36.8508H32.5943V33.7303H30.0251V29.1707H26.5167V24.5009H23.1068V21.0703H17.9595V25.8503H17.9617V46.193L13.5938 46.0508V50.9722L17.9617 50.83V53.6551L13.5938 53.5129V58.4343L17.9617 58.292V61.1172L13.5938 60.975V65.8963L17.9617 65.7541V67.1854C17.9617 70.6202 20.9557 73.4062 24.6519 73.4062H62.3692C66.0631 73.4062 69.0594 70.6202 69.0594 67.1854V65.7541L73.4062 65.8963V60.975L69.0594 61.1172V58.292L73.4062 58.4343V53.5129L68.9588 53.6551V50.83L73.4062 50.9722Z" fill="#1B1B1B"/>
<g clip-path="url(#clip0_3813_10863)">
<g filter="url(#filter0_i_3813_10863)">
<circle cx="32.1549" cy="60.152" r="7.68613" fill="url(#paint1_radial_3813_10863)"/>
</g>
<circle cx="34.0326" cy="62.5141" r="2.73574" fill="#1B1B1B"/>
<circle cx="32.209" cy="61.2119" r="1.30273" fill="#D9D9D9"/>
</g>
<g clip-path="url(#clip1_3813_10863)">
<g filter="url(#filter1_i_3813_10863)">
<circle cx="55.4908" cy="60.152" r="7.68613" fill="url(#paint2_radial_3813_10863)"/>
</g>
<circle cx="57.3686" cy="62.5141" r="2.73574" fill="#1B1B1B"/>
<circle cx="55.5469" cy="61.2119" r="1.30273" fill="#D9D9D9"/>
</g>
<defs>
<filter id="filter0_i_3813_10863" x="24.4688" y="51.0926" width="16.0596" height="16.7452" filterUnits="userSpaceOnUse" color-interpolation-filters="sRGB">
<feFlood flood-opacity="0" result="BackgroundImageFix"/>
<feBlend mode="normal" in="SourceGraphic" in2="BackgroundImageFix" result="shape"/>
<feColorMatrix in="SourceAlpha" type="matrix" values="0 0 0 0 0 0 0 0 0 0 0 0 0 0 0 0 0 0 127 0" result="hardAlpha"/>
<feOffset dx="0.686588" dy="-1.37318"/>
<feGaussianBlur stdDeviation="0.686588"/>
<feComposite in2="hardAlpha" operator="arithmetic" k2="-1" k3="1"/>
<feColorMatrix type="matrix" values="0 0 0 0 0 0 0 0 0 0 0 0 0 0 0 0 0 0 0.15 0"/>
<feBlend mode="normal" in2="shape" result="effect1_innerShadow_3813_10863"/>
</filter>
<filter id="filter1_i_3813_10863" x="47.8047" y="51.0926" width="16.0596" height="16.7452" filterUnits="userSpaceOnUse" color-interpolation-filters="sRGB">
<feFlood flood-opacity="0" result="BackgroundImageFix"/>
<feBlend mode="normal" in="SourceGraphic" in2="BackgroundImageFix" result="shape"/>
<feColorMatrix in="SourceAlpha" type="matrix" values="0 0 0 0 0 0 0 0 0 0 0 0 0 0 0 0 0 0 127 0" result="hardAlpha"/>
<feOffset dx="0.686588" dy="-1.37318"/>
<feGaussianBlur stdDeviation="0.686588"/>
<feComposite in2="hardAlpha" operator="arithmetic" k2="-1" k3="1"/>
<feColorMatrix type="matrix" values="0 0 0 0 0 0 0 0 0 0 0 0 0 0 0 0 0 0 0.15 0"/>
<feBlend mode="normal" in2="shape" result="effect1_innerShadow_3813_10863"/>
</filter>
<linearGradient id="paint0_linear_3813_10863" x1="0" y1="0" x2="87" y2="87" gradientUnits="userSpaceOnUse">
<stop stop-color="#C084FC"/>
<stop offset="1" stop-color="#6366F1"/>
</linearGradient>
<radialGradient id="paint1_radial_3813_10863" cx="0" cy="0" r="1" gradientUnits="userSpaceOnUse" gradientTransform="translate(32.1549 60.152) rotate(29.2803) scale(8.12578)">
<stop offset="0.634615" stop-color="white"/>
<stop offset="1" stop-color="#A8FFEA"/>
</radialGradient>
<radialGradient id="paint2_radial_3813_10863" cx="0" cy="0" r="1" gradientUnits="userSpaceOnUse" gradientTransform="translate(55.4908 60.152) rotate(29.2803) scale(8.12578)">
<stop offset="0.634615" stop-color="white"/>
<stop offset="1" stop-color="#A8FFEA"/>
</radialGradient>
<clipPath id="clip0_3813_10863">
<rect width="15.3723" height="15.3723" fill="white" transform="translate(24.4688 52.4658)"/>
</clipPath>
<clipPath id="clip1_3813_10863">
<rect width="15.3723" height="15.3723" fill="white" transform="translate(47.8066 52.4658)"/>
</clipPath>
</defs>
</svg>
