<svg width="99" height="74" viewBox="0 0 99 74" fill="none" xmlns="http://www.w3.org/2000/svg">
<g clip-path="url(#clip0_4036_11432)">
<path d="M10.121 0C3.4852 -2.62802e-06 0 4.04932 0 10.121V63.8778C0 69.9494 3.4852 73.9988 10.121 73.9988H88.4298C95.0655 73.9988 98.5507 69.9494 98.5507 63.8778V10.121C98.5507 4.04932 95.0655 -1.31401e-06 88.4298 0H10.121Z" fill="#D9D6CC"/>
<path d="M10.9182 4.14648C5.66583 4.14648 4.10156 7.29426 4.10156 11.2044V36.9364L27.2818 36.9793C33.4746 36.9907 36.0104 39.4822 38.591 42.9683C39.2482 43.8561 40.0477 45.0594 40.8284 45.8409C43.1596 48.1743 46.2166 49.3399 49.2737 49.34C52.3309 49.34 55.3878 48.1743 57.7191 45.8409C58.4998 45.0594 59.2993 43.8561 59.9565 42.9683C62.5371 39.4822 65.0728 36.9907 71.2657 36.9793L94.4459 36.9364V11.2044C94.4459 7.29426 92.8816 4.14648 87.6292 4.14648H10.9182Z" fill="#F16D5E"/>
<path d="M10.9182 4.14648C5.66583 4.14648 4.10156 7.29426 4.10156 11.2044V19.4486C4.10156 15.5384 5.66583 12.3907 10.9182 12.3907H87.6292C92.8816 12.3907 94.4459 15.5384 94.4459 19.4486V11.2044C94.4459 7.29426 92.8816 4.14648 87.6292 4.14648H10.9182Z" fill="#3295C9"/>
<mask id="mask0_4036_11432" style="mask-type:luminance" maskUnits="userSpaceOnUse" x="4" y="4" width="91" height="16">
<path d="M10.9182 4.14648C5.66583 4.14648 4.10156 7.29426 4.10156 11.2044V19.4486C4.10156 15.5384 5.66583 12.3907 10.9182 12.3907H87.6292C92.8816 12.3907 94.4459 15.5384 94.4459 19.4486V11.2044C94.4459 7.29426 92.8816 4.14648 87.6292 4.14648H10.9182Z" fill="white"/>
</mask>
<g mask="url(#mask0_4036_11432)">
<g filter="url(#filter0_f_4036_11432)">
<path d="M10.9182 12.3945C5.66583 12.3945 4.10156 15.5423 4.10156 19.4525V27.6966C4.10156 23.7865 5.66583 20.6387 10.9182 20.6387H87.6292C92.8816 20.6387 94.4459 23.7865 94.4459 27.6966V19.4525C94.4459 15.5423 92.8816 12.3945 87.6292 12.3945H10.9182Z" fill="black" fill-opacity="0.317757"/>
</g>
</g>
<path d="M10.9182 12.3945C5.66583 12.3945 4.10156 15.5423 4.10156 19.4525V27.6966C4.10156 23.7865 5.66583 20.6387 10.9182 20.6387H87.6292C92.8816 20.6387 94.4459 23.7865 94.4459 27.6966V19.4525C94.4459 15.5423 92.8816 12.3945 87.6292 12.3945H10.9182Z" fill="#FCAD00"/>
<mask id="mask1_4036_11432" style="mask-type:luminance" maskUnits="userSpaceOnUse" x="4" y="12" width="91" height="16">
<path d="M10.9182 12.3945C5.66583 12.3945 4.10156 15.5423 4.10156 19.4525V27.6966C4.10156 23.7865 5.66583 20.6387 10.9182 20.6387H87.6292C92.8816 20.6387 94.4459 23.7865 94.4459 27.6966V19.4525C94.4459 15.5423 92.8816 12.3945 87.6292 12.3945H10.9182Z" fill="white"/>
</mask>
<g mask="url(#mask1_4036_11432)">
<g filter="url(#filter1_f_4036_11432)">
<path d="M10.9182 20.6348C5.66583 20.6348 4.10156 23.7825 4.10156 27.6927V35.9369C4.10156 32.0267 5.66583 28.8789 10.9182 28.8789H87.6292C92.8816 28.8789 94.4459 32.0267 94.4459 35.9369V27.6927C94.4459 23.7825 92.8816 20.6348 87.6292 20.6348H10.9182Z" fill="black" fill-opacity="0.313725"/>
</g>
</g>
<path d="M10.9182 20.6348C5.66583 20.6348 4.10156 23.7825 4.10156 27.6927V35.9369C4.10156 32.0267 5.66583 28.8789 10.9182 28.8789H87.6292C92.8816 28.8789 94.4459 32.0267 94.4459 35.9369V27.6927C94.4459 23.7825 92.8816 20.6348 87.6292 20.6348H10.9182Z" fill="#50BE3D"/>
<mask id="mask2_4036_11432" style="mask-type:luminance" maskUnits="userSpaceOnUse" x="4" y="20" width="91" height="16">
<path d="M10.9182 20.6348C5.66583 20.6348 4.10156 23.7825 4.10156 27.6927V35.9369C4.10156 32.0267 5.66583 28.8789 10.9182 28.8789H87.6292C92.8816 28.8789 94.4459 32.0267 94.4459 35.9369V27.6927C94.4459 23.7825 92.8816 20.6348 87.6292 20.6348H10.9182Z" fill="white"/>
</mask>
<g mask="url(#mask2_4036_11432)">
<g filter="url(#filter2_f_4036_11432)">
<path d="M10.9182 28.8809C5.66583 28.8809 4.10156 32.0286 4.10156 35.9388V44.183C4.10156 40.2728 5.66583 37.125 10.9182 37.125H87.6292C92.8816 37.125 94.4459 40.2728 94.4459 44.183V35.9388C94.4459 32.0286 92.8816 28.8809 87.6292 28.8809H10.9182Z" fill="black" fill-opacity="0.313725"/>
</g>
</g>
<mask id="mask3_4036_11432" style="mask-type:luminance" maskUnits="userSpaceOnUse" x="4" y="28" width="91" height="22">
<path d="M10.9182 28.8809C5.66583 28.8809 4.10156 32.0286 4.10156 35.9388V36.9383L27.2818 36.9811C33.4746 36.9926 36.0104 39.484 38.591 42.9701C39.2482 43.858 40.0477 45.0613 40.8284 45.8428C43.1596 48.1762 46.2166 49.3418 49.2737 49.3418C52.3309 49.3418 55.3878 48.1762 57.7191 45.8428C58.4998 45.0613 59.2993 43.858 59.9565 42.9701C62.537 39.484 65.0728 36.9926 71.2657 36.9811L94.4459 36.9383V35.9388C94.4459 32.0286 92.8816 28.8809 87.6292 28.8809H10.9182Z" fill="white"/>
</mask>
<g mask="url(#mask3_4036_11432)">
<g filter="url(#filter3_f_4036_11432)">
<path d="M10.121 0C3.4852 -2.62802e-06 0 4.04932 0 10.121V63.8778C0 69.9494 3.4852 73.9988 10.121 73.9988H88.4298C95.0655 73.9988 98.5507 69.9494 98.5507 63.8778V10.121C98.5507 4.04932 95.0655 -1.31401e-06 88.4298 0H10.121ZM10.9199 4.14914H87.6308C92.8833 4.14914 94.4475 7.29691 94.4475 11.2071V36.9391L71.2673 36.9819C65.0745 36.9934 62.5387 39.4848 59.9581 42.9709C59.3009 43.8588 58.5014 45.0621 57.7207 45.8435C55.3895 48.1769 52.3325 49.3426 49.2754 49.3426C46.2182 49.3426 43.1613 48.1769 40.83 45.8435C40.0493 45.0621 39.2498 43.8588 38.5926 42.9709C36.012 39.4848 33.4763 36.9934 27.2834 36.9819L4.1032 36.9391V11.2071C4.1032 7.29691 5.66747 4.14914 10.9199 4.14914Z" fill="#F26D5F" fill-opacity="0.298039"/>
</g>
</g>
<path d="M0 30.8965H4.1032V36.9369H0V30.8965Z" fill="url(#paint0_linear_4036_11432)"/>
<path d="M94.4473 30.8965H98.5505V36.9369H94.4473V30.8965Z" fill="url(#paint1_linear_4036_11432)"/>
</g>
<defs>
<filter id="filter0_f_4036_11432" x="0.562408" y="8.85538" width="97.4221" height="22.381" filterUnits="userSpaceOnUse" color-interpolation-filters="sRGB">
<feFlood flood-opacity="0" result="BackgroundImageFix"/>
<feBlend mode="normal" in="SourceGraphic" in2="BackgroundImageFix" result="shape"/>
<feGaussianBlur stdDeviation="1.76958" result="effect1_foregroundBlur_4036_11432"/>
</filter>
<filter id="filter1_f_4036_11432" x="0.562408" y="17.0956" width="97.4221" height="22.381" filterUnits="userSpaceOnUse" color-interpolation-filters="sRGB">
<feFlood flood-opacity="0" result="BackgroundImageFix"/>
<feBlend mode="normal" in="SourceGraphic" in2="BackgroundImageFix" result="shape"/>
<feGaussianBlur stdDeviation="1.76958" result="effect1_foregroundBlur_4036_11432"/>
</filter>
<filter id="filter2_f_4036_11432" x="0.562408" y="25.3417" width="97.4221" height="22.381" filterUnits="userSpaceOnUse" color-interpolation-filters="sRGB">
<feFlood flood-opacity="0" result="BackgroundImageFix"/>
<feBlend mode="normal" in="SourceGraphic" in2="BackgroundImageFix" result="shape"/>
<feGaussianBlur stdDeviation="1.76958" result="effect1_foregroundBlur_4036_11432"/>
</filter>
<filter id="filter3_f_4036_11432" x="-4.40001" y="-4.40001" width="107.351" height="82.7981" filterUnits="userSpaceOnUse" color-interpolation-filters="sRGB">
<feFlood flood-opacity="0" result="BackgroundImageFix"/>
<feBlend mode="normal" in="SourceGraphic" in2="BackgroundImageFix" result="shape"/>
<feGaussianBlur stdDeviation="2.20001" result="effect1_foregroundBlur_4036_11432"/>
</filter>
<linearGradient id="paint0_linear_4036_11432" x1="0" y1="36.9369" x2="0" y2="33.8061" gradientUnits="userSpaceOnUse">
<stop stop-color="#CBC9BE"/>
<stop offset="1" stop-color="#C8C5BB" stop-opacity="0"/>
</linearGradient>
<linearGradient id="paint1_linear_4036_11432" x1="94.4473" y1="36.9369" x2="94.4473" y2="33.8061" gradientUnits="userSpaceOnUse">
<stop stop-color="#CBC9BE"/>
<stop offset="1" stop-color="#C8C5BB" stop-opacity="0"/>
</linearGradient>
<clipPath id="clip0_4036_11432">
<rect width="98.5507" height="73.9988" fill="white"/>
</clipPath>
</defs>
</svg>
