<svg width="268" height="268" viewBox="0 0 268 268" fill="none" xmlns="http://www.w3.org/2000/svg">
<path d="M123.011 155.273C129.787 152.904 141.5 154.567 141.5 154.567C141.5 154.567 145.478 155.246 145.5 156.067C145.656 161.923 139.429 167.939 133.579 167.753C127.556 167.561 122.733 162.043 123.011 155.273Z" fill="#BA553A"/>
<path d="M123.012 155.273C129.768 152.911 141.435 154.558 141.5 154.567C141.5 154.567 145.478 155.246 145.5 156.067C145.555 158.13 144.815 160.211 143.582 162.035C142.564 161.751 141.519 161.57 141.501 161.567C141.501 161.567 131.348 160.127 124.479 161.84C123.462 159.931 122.913 157.682 123.012 155.273Z" fill="#93442E"/>
</svg>
