<svg width="268" height="268" viewBox="0 0 268 268" fill="none" xmlns="http://www.w3.org/2000/svg">
<path d="M141.692 159.028C141.851 158.984 142.009 159.103 142.004 159.268C141.979 160.207 141.787 161.135 141.439 162.01C141.049 162.985 140.472 163.875 139.739 164.628C139.006 165.38 138.132 165.981 137.167 166.396C136.202 166.811 135.164 167.032 134.114 167.046C133.063 167.06 132.02 166.867 131.045 166.478C130.069 166.089 129.179 165.511 128.426 164.778C127.674 164.045 127.073 163.171 126.658 162.206C126.286 161.341 126.07 160.417 126.019 159.478C126.01 159.314 126.163 159.191 126.322 159.229C127.477 159.504 131.562 160.419 134.368 160.344C136.925 160.275 140.602 159.324 141.692 159.028Z" fill="#3D2A36"/>
<path d="M126.403 158.231L126.551 158.256L127.113 158.386C128.692 158.74 132.015 159.407 134.338 159.344L134.365 160.344L133.825 160.347C131.06 160.308 127.402 159.486 126.32 159.229C126.16 159.191 126.008 159.314 126.017 159.478C126.067 160.417 126.284 161.341 126.656 162.206C127.07 163.171 127.671 164.046 128.423 164.779C129.176 165.511 130.066 166.088 131.042 166.477C131.896 166.818 132.801 167.009 133.717 167.041L134.111 167.046C135.03 167.034 135.939 166.863 136.799 166.542L137.164 166.396C138.009 166.033 138.784 165.528 139.455 164.903L139.737 164.628C140.378 163.97 140.9 163.206 141.281 162.371L141.435 162.01C141.784 161.135 141.976 160.207 142.002 159.268C142.006 159.103 141.848 158.984 141.689 159.028C140.6 159.324 136.922 160.275 134.365 160.344L134.338 159.344C136.757 159.279 140.322 158.364 141.426 158.063C142.196 157.854 143.025 158.423 143.001 159.295C142.972 160.352 142.757 161.397 142.364 162.38C141.927 163.478 141.278 164.479 140.453 165.326C139.629 166.172 138.645 166.848 137.559 167.315C136.473 167.781 135.306 168.03 134.124 168.046C132.943 168.062 131.769 167.844 130.671 167.406C129.574 166.968 128.572 166.319 127.726 165.495C126.879 164.67 126.204 163.687 125.737 162.601C125.318 161.628 125.075 160.589 125.018 159.532C124.975 158.73 125.669 158.147 126.403 158.231Z" fill="#3D2A36"/>
<mask id="mask0_1281_2167" style="mask-type:alpha" maskUnits="userSpaceOnUse" x="126" y="158" width="17" height="10">
<path d="M142.006 158.941C142.02 159.991 141.827 161.034 141.438 162.01C141.049 162.986 140.472 163.876 139.739 164.628C139.006 165.381 138.132 165.982 137.167 166.397C136.201 166.812 135.164 167.032 134.113 167.046C133.063 167.06 132.02 166.867 131.044 166.478C130.068 166.089 129.179 165.511 128.426 164.779C127.673 164.046 127.072 163.172 126.657 162.206C126.243 161.241 126.022 160.204 126.008 159.153L142.006 158.941Z" fill="#171921"/>
</mask>
<g mask="url(#mask0_1281_2167)">
<path d="M139.508 168.092C139.547 171.06 137.173 173.499 134.205 173.538C131.237 173.577 128.798 171.203 128.759 168.235C128.719 165.267 131.094 162.828 134.062 162.789C137.03 162.749 139.469 165.124 139.508 168.092Z" fill="#A95427"/>
</g>
</svg>
