<svg width="268" height="268" viewBox="0 0 268 268" fill="none" xmlns="http://www.w3.org/2000/svg">
<path d="M91.57 52.2345C92.07 54.7285 91.07 57.2283 86.57 63.7283C82.57 68.7283 76.07 75.2285 69.5508 78.7345C69.0391 73.2285 68.6283 59.3407 69.5375 54.3366C70.5707 48.6506 71.3917 46.2014 77.07 47.2283C80.1664 47.7882 88.07 50.7345 91.57 52.2345Z" fill="#2B2636"/>
<path d="M171.117 52.2345C170.617 54.7285 171.617 57.2283 176.117 63.7283C180.117 68.7283 186.617 75.2285 193.137 78.7345C193.648 73.2285 194.059 59.3407 193.15 54.3366C192.117 48.6506 191.296 46.2014 185.617 47.2283C182.521 47.7882 174.617 50.7345 171.117 52.2345Z" fill="#2B2636"/>
</svg>
