<svg width="214" height="214" viewBox="0 0 214 214" fill="none" xmlns="http://www.w3.org/2000/svg">
<path fill-rule="evenodd" clip-rule="evenodd" d="M198.805 147.583C197.473 148.962 196.118 150.317 194.739 151.648C193.312 152.932 191.861 154.216 190.387 155.5C188.913 156.737 187.415 157.997 185.893 159.281C184.418 160.517 182.897 161.801 181.327 163.133C179.805 164.464 178.307 165.843 176.833 167.27C175.311 168.696 173.813 170.194 172.339 171.764C170.912 173.333 169.485 174.973 168.058 176.685C166.679 178.445 165.324 180.276 163.992 182.178C162.66 184.032 161.352 185.911 160.068 187.813C158.737 189.763 157.405 191.665 156.073 193.519C154.742 195.374 153.386 197.181 152.007 198.94C150.58 200.7 149.13 202.34 147.656 203.862C146.181 205.384 144.659 206.763 143.09 207.999C141.473 209.236 139.785 210.282 138.025 211.138C136.265 211.946 134.434 212.588 132.532 213.064C130.63 213.539 128.68 213.825 126.682 213.92C124.685 214.062 122.663 214.015 120.618 213.777C118.573 213.587 116.528 213.23 114.483 212.707C112.438 212.232 110.417 211.613 108.42 210.853C106.375 210.092 104.401 209.236 102.499 208.285C100.549 207.286 98.6701 206.216 96.8629 205.075C95.0081 203.886 93.2484 202.65 91.5838 201.366C89.8717 200.034 88.2072 198.679 86.5902 197.3C84.9256 195.873 83.3086 194.423 81.7392 192.949C80.1697 191.522 78.5765 190.072 76.9595 188.597C75.3425 187.076 73.7255 185.602 72.1085 184.175C70.444 182.748 68.7319 181.346 66.9722 179.966C65.2601 178.635 63.4529 177.351 61.5505 176.115C59.6957 174.878 57.7458 173.689 55.7008 172.548C53.7033 171.454 51.6583 170.384 49.5657 169.338C47.4731 168.34 45.3805 167.317 43.288 166.271C41.1478 165.272 39.0314 164.25 36.9389 163.204C34.8463 162.158 32.8013 161.088 30.8038 159.994C28.7588 158.853 26.8089 157.664 24.9541 156.427C23.0517 155.144 21.2445 153.788 19.5324 152.362C17.8203 150.887 16.227 149.318 14.7527 147.654C13.2784 145.989 11.8992 144.23 10.6151 142.375C9.37858 140.521 8.23717 138.595 7.19088 136.598C6.14459 134.6 5.21719 132.532 4.40869 130.392C3.6002 128.252 2.91059 126.065 2.33989 123.83C1.72163 121.594 1.24604 119.336 0.913127 117.053C0.532658 114.723 0.271085 112.393 0.128409 110.063C-0.0142676 107.733 -0.038047 105.402 0.0570705 103.072C0.104629 100.742 0.294864 98.4359 0.627775 96.1533C0.960686 93.8232 1.38871 91.5406 1.91186 89.3056C2.48257 87.0706 3.17217 84.9069 3.98067 82.8145C4.78916 80.6746 5.69278 78.6061 6.69151 76.6088C7.7378 74.6591 8.92677 72.7807 10.2584 70.9737C11.5425 69.1667 12.9693 67.4785 14.5387 65.9092C16.0606 64.2924 17.7251 62.8183 19.5324 61.4868C21.3396 60.1553 23.2419 58.8951 25.2394 57.7063C27.2369 56.565 29.3057 55.4712 31.4458 54.4251C33.586 53.3789 35.7737 52.3565 38.0089 51.3579C40.1966 50.3592 42.3843 49.3606 44.572 48.362C46.8073 47.3634 48.995 46.341 51.1351 45.2948C53.2753 44.201 55.3679 43.036 57.4129 41.7996C59.4104 40.5632 61.3365 39.2317 63.1913 37.8051C65.0461 36.3785 66.8057 34.8805 68.4703 33.3113C70.1824 31.742 71.8232 30.1252 73.3926 28.4608C74.9621 26.7489 76.5315 25.0607 78.1009 23.3964C79.6228 21.732 81.1447 20.0676 82.6666 18.4032C84.1885 16.7864 85.7341 15.2171 87.3036 13.6954C88.873 12.2213 90.49 10.8184 92.1545 9.48694C93.8191 8.20299 95.5788 7.03793 97.4336 5.99175C99.2408 4.94557 101.119 4.04205 103.069 3.2812C105.019 2.52034 107.04 1.90214 109.133 1.42661C111.178 0.951071 113.271 0.59442 115.411 0.356652C117.551 0.118884 119.715 0 121.903 0C124.09 0 126.278 0.118884 128.466 0.356652C130.653 0.59442 132.841 0.951071 135.029 1.42661C137.216 1.85459 139.357 2.40146 141.449 3.06721C143.589 3.6854 145.682 4.42248 147.727 5.27845C149.772 6.08686 151.769 7.01415 153.719 8.06033C155.669 9.05896 157.572 10.1527 159.426 11.3415C161.281 12.4828 163.065 13.7192 164.777 15.0507C166.536 16.3822 168.201 17.7613 169.77 19.1879C171.34 20.662 172.838 22.1837 174.265 23.753C175.691 25.3223 177.047 26.9629 178.331 28.6748C179.567 30.3392 180.733 32.0749 181.827 33.8819C182.92 35.6414 183.967 37.4484 184.965 39.303C185.917 41.1576 186.82 43.036 187.676 44.9381C188.58 46.8403 189.436 48.7424 190.244 50.6446C191.053 52.5942 191.861 54.5439 192.67 56.4936C193.431 58.4433 194.216 60.393 195.024 62.3427C195.833 64.2449 196.689 66.147 197.592 68.0492C198.448 69.9989 199.328 71.901 200.232 73.7556C201.135 75.6102 202.063 77.4648 203.014 79.3194C203.965 81.1264 204.893 82.9572 205.796 84.8118C206.652 86.6188 207.508 88.4259 208.364 90.2329C209.173 92.0399 209.91 93.8232 210.576 95.5827C211.289 97.3897 211.884 99.1968 212.359 101.004C212.882 102.811 213.287 104.642 213.572 106.496C213.857 108.303 214 110.134 214 111.989C214 113.796 213.881 115.627 213.643 117.481C213.453 119.336 213.12 121.166 212.645 122.974C212.169 124.781 211.598 126.588 210.932 128.395C210.267 130.154 209.506 131.89 208.65 133.602C207.794 135.314 206.842 136.978 205.796 138.595C204.797 140.212 203.704 141.757 202.515 143.231C201.326 144.753 200.089 146.203 198.805 147.583Z" fill="#F4F4F4"/>
<path d="M107 162.281C137.531 162.281 162.281 137.531 162.281 107C162.281 76.469 137.531 51.7188 107 51.7188C76.469 51.7188 51.7188 76.469 51.7188 107C51.7188 137.531 76.469 162.281 107 162.281Z" fill="#68B1FC"/>
<path d="M84.125 76.4998L76.5 89.8436L80.3125 99.3748L74.5938 105.094H66.9688L63.1563 99.3748L52.9197 95.5623C55.4107 83.8056 61.665 73.1807 70.7354 65.297C79.8059 57.4132 91.1984 52.7 103.188 51.8711L107 59.3436L101.281 66.9686L103.188 72.6873L93.6562 76.4998H84.125ZM135.594 145.125L141.579 150.119C134.239 156.007 125.518 159.923 116.241 161.498C106.964 163.072 97.4383 162.253 88.5666 159.117L91.75 152.75L95.5625 148.937V141.312L101.281 137.5H108.906L112.719 143.219L122.25 139.406L127.969 145.125H135.594ZM162.281 107C162.302 111.924 161.661 116.829 160.375 121.583L152.75 122.25L145.125 118.437L147.031 112.719L143.219 107L145.125 95.5623H150.844V84.1248L154.313 78.4061C159.526 87.0327 162.282 96.9204 162.281 107Z" fill="#59E78B"/>
<path d="M91.75 86.0312L87.9375 89.8438L107 103.188L116.531 93.6562L91.75 86.0312Z" fill="#FC6067"/>
<path d="M86.0312 114.625L91.75 120.344L99.375 114.625L89.8438 110.812L86.0312 114.625Z" fill="#FC6067"/>
<path d="M127.969 122.25L124.156 126.062L110.812 107L120.344 97.4688L127.969 122.25Z" fill="#FC6067"/>
<path d="M99.375 127.969L93.6562 122.25L99.375 114.625L103.188 124.156L99.375 127.969Z" fill="#FC6067"/>
<path d="M89.8438 124.156C93.3322 122.116 109.554 114.377 117.866 107.343C128.026 98.7455 129.074 88.6424 127.206 86.7743C125.3 84.868 115.311 86.0118 106.657 96.1149C99.0128 105.093 91.75 120.744 89.8438 124.156Z" fill="#E7EAEF"/>
<path d="M145.621 64.8717C147.813 59.3436 148.137 54.6542 145.316 51.833C142.075 48.5924 135.784 49.2786 127.702 53.7392C117.365 49.7358 106.088 48.8227 95.2417 51.1111C84.3956 53.3995 74.4483 58.7908 66.6101 66.629C58.7719 74.4672 53.3806 84.4145 51.0922 95.2606C48.8038 106.107 49.7169 117.384 53.7203 127.721C49.2788 135.822 48.5925 142.075 51.8141 145.315C52.5671 146.014 53.4533 146.552 54.4196 146.9C55.3859 147.247 56.4124 147.395 57.4375 147.336C60.0215 147.234 62.563 146.645 64.9291 145.601C70.0942 151.469 76.4076 156.216 83.4791 159.548C90.5506 162.88 98.2302 164.727 106.044 164.974C113.857 165.222 121.638 163.865 128.906 160.987C136.175 158.11 142.776 153.772 148.302 148.244C153.828 142.715 158.163 136.111 161.037 128.842C163.911 121.572 165.264 113.79 165.013 105.977C164.762 98.1638 162.911 90.4851 159.576 83.4151C156.24 76.3452 151.491 70.0341 145.621 64.8717ZM158.812 119.81L153.093 120.305L147.374 117.465L148.938 113.329C149.028 113.053 149.055 112.76 149.015 112.473C148.975 112.186 148.871 111.911 148.709 111.67L145.316 106.561L146.841 97.4686H150.844C151.349 97.4686 151.834 97.2678 152.192 96.9103C152.549 96.5528 152.75 96.0679 152.75 95.5624V84.6586L154.237 82.1805C160.325 93.7381 161.953 107.13 158.812 119.81ZM142.609 54.5399C143.848 55.7599 143.829 58.5049 142.609 62.1649C139.423 59.6215 135.971 57.4293 132.315 55.6264C137.138 53.4724 141.065 52.9767 142.609 54.5399ZM102.12 53.8536L104.77 59.1339L99.7563 65.8249C99.5698 66.072 99.4463 66.3608 99.3965 66.6664C99.3466 66.9719 99.372 67.285 99.4703 67.5786L100.805 71.5817L93.2941 74.5936H84.125C83.7891 74.5923 83.4588 74.6797 83.1676 74.8471C82.8764 75.0145 82.6345 75.2558 82.4666 75.5467L74.8416 88.8905C74.6985 89.1403 74.6139 89.4193 74.5941 89.7066C74.5743 89.9938 74.6198 90.2818 74.7272 90.5489L78.0822 98.9174L73.8122 103.187H67.9981L64.7385 98.3264C64.5197 97.9881 64.1994 97.7279 63.8235 97.583L55.15 94.3424C57.803 83.5504 63.7514 73.8528 72.1689 66.5968C80.5864 59.3408 91.0549 54.8868 102.12 53.8536ZM54.4638 142.609C52.9006 141.065 53.3963 137.138 55.6266 132.239C57.43 135.885 59.6154 139.329 62.146 142.513C58.5622 143.81 55.7981 143.867 54.54 142.609H54.4638ZM91.1781 158.011L93.2369 153.875L96.8397 150.291C97.0302 150.119 97.1841 149.911 97.2922 149.678C97.4003 149.446 97.4603 149.194 97.4688 148.937V142.342L101.853 139.406H107.877L111.137 144.267C111.377 144.632 111.736 144.902 112.152 145.034C112.568 145.166 113.018 145.151 113.424 144.991L121.793 141.636L126.615 146.478C126.793 146.655 127.005 146.795 127.237 146.89C127.469 146.984 127.718 147.033 127.969 147.031H134.908L138.51 150.043C129.378 156.761 118.337 160.381 107 160.375C101.663 160.373 96.3564 159.577 91.2544 158.011H91.1781ZM141.484 147.622L136.738 143.657C136.415 143.389 136.013 143.235 135.594 143.219H128.75L123.603 138.053C123.339 137.789 123.003 137.608 122.637 137.534C122.271 137.459 121.891 137.494 121.545 137.633L113.443 140.874L110.488 136.451C110.316 136.189 110.081 135.974 109.805 135.824C109.529 135.674 109.22 135.595 108.906 135.594H101.281C100.908 135.597 100.543 135.709 100.233 135.918L94.5141 139.73C94.2519 139.903 94.0363 140.138 93.8867 140.414C93.737 140.69 93.6579 140.998 93.6563 141.312V148.156L90.3966 151.396C90.2589 151.544 90.1434 151.711 90.0535 151.892L87.6325 156.715C80.4258 153.884 73.9212 149.52 68.57 143.924C74.826 140.501 80.5959 136.257 85.7263 131.305C85.909 131.132 86.0559 130.925 86.1587 130.695C86.2614 130.466 86.3179 130.218 86.325 129.967C86.3321 129.716 86.2896 129.465 86.1999 129.23C86.1103 128.995 85.9752 128.78 85.8025 128.598C85.6298 128.415 85.4228 128.268 85.1932 128.165C84.9637 128.063 84.7162 128.006 84.4649 127.999C84.2135 127.992 83.9632 128.034 83.7283 128.124C83.4934 128.214 83.2784 128.349 83.0956 128.521C78.0241 133.497 72.2424 137.691 65.9394 140.969C57.9905 131.433 53.6334 119.414 53.625 107C53.6302 104.023 53.8788 101.053 54.3685 98.1167L61.9935 100.938L65.4628 106.142C65.6282 106.394 65.8509 106.603 66.1127 106.752C66.3744 106.901 66.6678 106.986 66.9688 107H74.5938C74.8446 107.001 75.0933 106.953 75.3256 106.858C75.5578 106.763 75.7691 106.624 75.9472 106.447L81.666 100.728C81.9299 100.464 82.1103 100.128 82.1849 99.7619C82.2594 99.3959 82.2248 99.016 82.0853 98.6695L78.616 89.9961L85.2306 78.4061H93.6563C93.898 78.4097 94.1379 78.3643 94.3616 78.2727L103.893 74.4602C104.365 74.2991 104.755 73.9594 104.98 73.5139C105.204 73.0684 105.245 72.5527 105.094 72.0774L103.493 67.3117L108.525 60.4874C108.719 60.2129 108.837 59.8921 108.867 59.5573C108.898 59.2225 108.839 58.8858 108.697 58.5811L106.276 53.6249H107C119.414 53.6095 131.441 57.9467 140.988 65.882C138.339 71.0292 135.04 75.8149 131.171 80.1217C130.993 80.3073 130.854 80.5271 130.763 80.7677C130.672 81.0084 130.631 81.2651 130.641 81.5222C130.652 81.7793 130.715 82.0315 130.826 82.2637C130.937 82.4959 131.094 82.7033 131.287 82.8733C131.48 83.0433 131.706 83.1724 131.95 83.2529C132.194 83.3333 132.453 83.3635 132.709 83.3415C132.965 83.3195 133.215 83.2459 133.442 83.1249C133.669 83.004 133.869 82.8384 134.031 82.638C137.859 78.3244 141.179 73.5848 143.924 68.5127C147.018 71.4728 149.744 74.7945 152.045 78.4061L149.204 83.1145C149.029 83.4224 148.937 83.7706 148.938 84.1249V93.6561H145.125C144.668 93.6502 144.224 93.8087 143.874 94.1026C143.525 94.3965 143.292 94.8063 143.219 95.2574L141.313 106.695C141.241 107.168 141.349 107.651 141.618 108.048L144.915 113.005L143.295 117.827C143.15 118.262 143.167 118.735 143.342 119.158C143.517 119.582 143.839 119.928 144.248 120.134L151.873 123.946C152.144 124.085 152.445 124.157 152.75 124.156H152.922L157.668 123.737C154.59 133.024 149.017 141.287 141.56 147.622H141.484ZM124.156 103.53C127.374 99.7671 129.369 95.1125 129.875 90.1867C129.978 89.3582 129.916 88.5176 129.694 87.7129C129.472 86.9082 129.093 86.1554 128.579 85.4974C127.281 84.452 125.624 83.9591 123.966 84.1249C119 84.6303 114.302 86.6236 110.488 89.8436L92.3028 84.1249C91.9718 84.0237 91.6194 84.0146 91.2836 84.0986C90.9477 84.1826 90.6411 84.3564 90.3966 84.6014L86.5841 88.4139C86.3855 88.6118 86.2329 88.8511 86.1374 89.1147C86.0418 89.3783 86.0056 89.6597 86.0313 89.9389C86.0577 90.2167 86.1448 90.4853 86.2865 90.7258C86.4281 90.9662 86.6208 91.1727 86.851 91.3305L100.595 100.957C98.4981 104.102 96.5156 107.476 94.7619 110.641L90.5491 108.963C90.2026 108.824 89.8227 108.789 89.4567 108.864C89.0907 108.938 88.7547 109.119 88.4903 109.383L84.6778 113.195C84.4992 113.372 84.3573 113.583 84.2606 113.816C84.1638 114.048 84.114 114.297 84.114 114.549C84.114 114.8 84.1638 115.049 84.2606 115.282C84.3573 115.514 84.4992 115.725 84.6778 115.902L89.4816 120.687C88.9288 121.754 88.4903 122.593 88.1853 123.146C87.9815 123.51 87.9028 123.931 87.9613 124.344C88.0199 124.757 88.2124 125.14 88.5094 125.433C88.6789 125.622 88.8842 125.774 89.1133 125.882C89.3424 125.99 89.5907 126.051 89.8438 126.062C90.1859 126.062 90.5217 125.97 90.816 125.795C91.3306 125.49 92.1694 125.052 93.2178 124.499L98.0216 129.322C98.1988 129.501 98.4096 129.643 98.6419 129.739C98.8742 129.836 99.1234 129.886 99.375 129.886C99.6267 129.886 99.8758 129.836 100.108 129.739C100.34 129.643 100.551 129.501 100.728 129.322L104.541 125.51C104.805 125.245 104.985 124.909 105.06 124.543C105.134 124.177 105.1 123.797 104.96 123.451L103.188 119.143C106.39 117.37 109.764 115.33 112.871 113.424L122.555 127.244C122.713 127.474 122.919 127.667 123.16 127.809C123.4 127.95 123.669 128.037 123.947 128.064H124.156C124.407 128.065 124.656 128.017 124.888 127.922C125.12 127.828 125.332 127.688 125.51 127.511L129.322 123.699C129.567 123.454 129.741 123.147 129.825 122.812C129.909 122.476 129.9 122.123 129.799 121.792L124.156 103.53ZM124.557 87.9374C124.987 87.9038 125.419 87.9757 125.815 88.147C126.692 89.4814 125.91 98.1167 116.646 105.951C110.813 110.812 100.652 116.283 94.3616 119.6C97.6022 113.29 102.768 103.607 108.106 97.3733C114.625 89.8436 121.64 87.9374 124.557 87.9374ZM90.8922 89.653L92.2838 88.2614L107.172 92.8555C106.523 93.5036 105.856 94.2089 105.265 94.9524C104.674 95.6958 103.645 96.8586 102.863 98.0024L90.8922 89.653ZM90.3013 113.119L92.9319 114.167C92.341 115.254 91.8072 116.302 91.2925 117.275L88.7191 114.625L90.3013 113.119ZM100.957 123.775L99.375 125.357L96.7444 122.726L99.8706 121.049L100.957 123.775ZM124.423 123.184L116.055 111.232C117.141 110.45 118.171 109.65 119.105 108.868C120.039 108.086 120.553 107.572 121.24 106.962L125.815 121.85L124.423 123.184Z" fill="#554992"/>
</svg>
