<svg width="214" height="214" viewBox="0 0 214 214" fill="none" xmlns="http://www.w3.org/2000/svg">
<path fill-rule="evenodd" clip-rule="evenodd" d="M15.195 66.4175C16.5267 65.0384 17.8821 63.6831 19.2613 62.3516C20.6881 61.0677 22.1386 59.7838 23.6129 58.4998C25.0872 57.2634 26.5854 56.0032 28.1072 54.7193C29.5816 53.4829 31.1034 52.199 32.6729 50.8675C34.1947 49.536 35.6928 48.1569 37.1672 46.7303C38.689 45.3037 40.1871 43.8058 41.6615 42.2365C43.0882 40.6672 44.515 39.0266 45.9417 37.3147C47.321 35.5552 48.6764 33.7244 50.008 31.8223C51.3397 29.9677 52.6475 28.0893 53.9316 26.1872C55.2633 24.2375 56.5949 22.3353 57.9265 20.4807C59.2582 18.6261 60.6136 16.8191 61.9928 15.0596C63.4196 13.3001 64.8701 11.6595 66.3445 10.1378C67.8188 8.61612 69.3406 7.23706 70.9101 6.00066C72.5271 4.76427 74.2154 3.7181 75.9751 2.86214C77.7348 2.05371 79.5658 1.41175 81.4681 0.936207C83.3705 0.460667 85.3204 0.175358 87.3178 0.0802502C89.3153 -0.0624041 91.3366 -0.0148728 93.3816 0.222905C95.4266 0.413121 97.4716 0.769765 99.5167 1.29285C101.562 1.76839 103.583 2.3866 105.58 3.14745C107.625 3.90832 109.599 4.76427 111.501 5.71535C113.451 6.71398 115.33 7.78393 117.137 8.92522C118.992 10.1141 120.752 11.3505 122.416 12.6344C124.128 13.9659 125.793 15.3212 127.41 16.7002C129.074 18.1268 130.691 19.5772 132.261 21.0514C133.83 22.478 135.423 23.9284 137.04 25.4025C138.657 26.9242 140.274 28.3984 141.891 29.825C143.556 31.2516 145.268 32.6544 147.028 34.0335C148.74 35.365 150.547 36.649 152.45 37.8854C154.304 39.1217 156.254 40.3106 158.299 41.4519C160.297 42.5456 162.342 43.6156 164.434 44.6617C166.527 45.6604 168.619 46.6828 170.712 47.7289C172.852 48.7276 174.969 49.75 177.061 50.7961C179.154 51.8423 181.199 52.9123 183.196 54.006C185.241 55.1473 187.191 56.3361 189.046 57.5725C190.948 58.8565 192.756 60.2117 194.468 61.6383C196.18 63.1125 197.773 64.6818 199.247 66.3462C200.722 68.0105 202.101 69.77 203.385 71.6246C204.621 73.4792 205.763 75.4051 206.809 77.4024C207.855 79.3996 208.783 81.4682 209.591 83.6081C210.4 85.748 211.089 87.9355 211.66 90.1705C212.278 92.4055 212.754 94.6643 213.087 96.9469C213.467 99.277 213.729 101.607 213.872 103.937C214.014 106.267 214.038 108.598 213.943 110.928C213.895 113.258 213.705 115.564 213.372 117.847C213.039 120.177 212.611 122.459 212.088 124.694C211.517 126.929 210.828 129.093 210.019 131.185C209.211 133.325 208.307 135.394 207.308 137.391C206.262 139.341 205.073 141.219 203.742 143.026C202.458 144.833 201.031 146.521 199.461 148.091C197.939 149.708 196.275 151.182 194.468 152.513C192.66 153.845 190.758 155.105 188.761 156.294C186.763 157.435 184.694 158.529 182.554 159.575C180.414 160.621 178.226 161.644 175.991 162.642C173.803 163.641 171.616 164.639 169.428 165.638C167.193 166.637 165.005 167.659 162.865 168.705C160.725 169.799 158.632 170.964 156.587 172.2C154.59 173.437 152.664 174.768 150.809 176.195C148.954 177.622 147.194 179.119 145.53 180.689C143.818 182.258 142.177 183.875 140.607 185.539C139.038 187.251 137.469 188.939 135.899 190.604C134.377 192.268 132.855 193.932 131.333 195.597C129.812 197.214 128.266 198.783 126.696 200.305C125.127 201.779 123.51 203.182 121.845 204.513C120.181 205.797 118.421 206.962 116.566 208.008C114.759 209.054 112.881 209.958 110.931 210.719C108.981 211.48 106.96 212.098 104.867 212.573C102.822 213.049 100.729 213.406 98.5892 213.643C96.4491 213.881 94.2852 214 92.0975 214C89.9098 214 87.7221 213.881 85.5344 213.643C83.3467 213.406 81.159 213.049 78.9713 212.573C76.7836 212.145 74.6434 211.599 72.5508 210.933C70.4107 210.315 68.3181 209.578 66.2731 208.722C64.2281 207.913 62.2306 206.986 60.2807 205.94C58.3308 204.941 56.4284 203.847 54.5736 202.658C52.7189 201.517 50.9354 200.281 49.2233 198.949C47.4636 197.618 45.7991 196.239 44.2296 194.812C42.6602 193.338 41.1621 191.816 39.7353 190.247C38.3086 188.678 36.9531 187.037 35.6691 185.325C34.4325 183.661 33.2673 181.925 32.1735 180.118C31.0796 178.359 30.0333 176.552 29.0346 174.697C28.0834 172.842 27.1798 170.964 26.3238 169.062C25.4202 167.16 24.5641 165.258 23.7556 163.355C22.9471 161.406 22.1386 159.456 21.3301 157.506C20.5692 155.557 19.7844 153.607 18.9759 151.657C18.1674 149.755 17.3114 147.853 16.4078 145.951C15.5517 144.001 14.6719 142.099 13.7683 140.244C12.8646 138.39 11.9373 136.535 10.9861 134.681C10.0349 132.874 9.10751 131.043 8.20388 129.188C7.34783 127.381 6.49178 125.574 5.63573 123.767C4.82723 121.96 4.09007 120.177 3.42425 118.417C2.71087 116.61 2.11639 114.803 1.6408 112.996C1.11765 111.189 0.713388 109.358 0.428034 107.504C0.142694 105.697 9.62823e-06 103.866 9.79036e-06 102.011C9.94834e-06 100.204 0.118907 98.3735 0.3567 96.5189C0.546931 94.6643 0.879863 92.8335 1.35545 91.0264C1.83104 89.2194 2.40174 87.4124 3.06756 85.6053C3.73338 83.8459 4.4943 82.1102 5.35037 80.3982C6.20642 78.6863 7.1576 77.0219 8.20388 75.4051C9.20262 73.7883 10.2965 72.2428 11.4854 70.7686C12.6744 69.2469 13.9109 67.7965 15.195 66.4175Z" fill="#F4F4F4"/>
<path d="M123.916 177.484H91.0839C90.1722 177.484 89.2837 177.198 88.5442 176.664C87.8046 176.131 87.2515 175.379 86.9632 174.514L79.2656 151.422H135.734L128.037 174.514C127.749 175.379 127.195 176.131 126.456 176.664C125.716 177.198 124.828 177.484 123.916 177.484Z" fill="#64B5F6"/>
<path d="M135.734 151.422L128.046 174.509C127.756 175.374 127.201 176.126 126.461 176.66C125.721 177.194 124.832 177.482 123.919 177.484H91.0806C90.1681 177.482 89.2791 177.194 88.5389 176.66C87.7987 176.126 87.2444 175.374 86.9541 174.509L85.7812 170.969H115.232C116.144 170.966 117.033 170.678 117.774 170.145C118.514 169.611 119.068 168.858 119.358 167.993L124.875 151.422H135.734Z" fill="#42A5F5"/>
<path d="M124.875 134.047H133.562C133.562 138.655 131.732 143.074 128.473 146.333C125.215 149.591 120.796 151.422 116.188 151.422H107.5C107.5 146.814 109.331 142.394 112.589 139.136C115.847 135.877 120.267 134.047 124.875 134.047Z" fill="#81C784"/>
<path d="M124.875 134.047C124.875 138.655 123.044 143.074 119.786 146.333C116.528 149.591 112.108 151.422 107.5 151.422H116.188C120.796 151.422 125.215 149.591 128.473 146.333C131.732 143.074 133.562 138.655 133.562 134.047H124.875Z" fill="#66BB6A"/>
<path d="M107.5 151.422H98.8125C94.2044 151.422 89.785 149.591 86.5265 146.333C83.2681 143.074 81.4375 138.655 81.4375 134.047H90.125C94.7331 134.047 99.1525 135.877 102.411 139.136C105.669 142.394 107.5 146.814 107.5 151.422Z" fill="#81C784"/>
<path d="M90.125 134.047H81.4375C86.0456 134.047 90.465 135.877 93.7235 139.136C96.9819 142.394 98.8125 146.814 98.8125 151.422H107.5C107.5 146.814 105.669 142.394 102.411 139.136C99.1525 135.877 94.7331 134.047 90.125 134.047Z" fill="#66BB6A"/>
<path d="M107.5 125.359C126.692 125.359 142.25 109.801 142.25 90.6094C142.25 71.4175 126.692 55.8594 107.5 55.8594C88.3081 55.8594 72.75 71.4175 72.75 90.6094C72.75 109.801 88.3081 125.359 107.5 125.359Z" fill="#FFD54F"/>
<path d="M107.5 55.8594C106.4 55.8594 105.316 55.9245 104.242 56.0238C112.855 56.8323 120.857 60.8255 126.681 67.2221C132.505 73.6187 135.733 81.9584 135.733 90.6094C135.733 99.2603 132.505 107.6 126.681 113.997C120.857 120.393 112.855 124.386 104.242 125.195C105.316 125.295 106.4 125.359 107.5 125.359C116.716 125.359 125.555 121.698 132.072 115.181C138.589 108.664 142.25 99.8256 142.25 90.6094C142.25 81.3931 138.589 72.5543 132.072 66.0374C125.555 59.5205 116.716 55.8594 107.5 55.8594Z" fill="#FFCA28"/>
<path d="M107.5 116.672C121.894 116.672 133.562 105.003 133.562 90.6094C133.562 76.2155 121.894 64.5469 107.5 64.5469C93.1061 64.5469 81.4375 76.2155 81.4375 90.6094C81.4375 105.003 93.1061 116.672 107.5 116.672Z" fill="#FFB74D"/>
<path d="M87.9544 90.6094C87.957 84.2643 90.2752 78.1382 94.474 73.381C98.6728 68.6239 104.463 65.5626 110.759 64.7719C107.08 64.2853 103.339 64.59 99.7874 65.6657C96.2356 66.7414 92.9544 68.5633 90.1635 71.0094C87.3725 73.4555 85.1362 76.4695 83.604 79.8497C82.0719 83.2298 81.2793 86.8982 81.2793 90.6094C81.2793 94.3206 82.0719 97.9889 83.604 101.369C85.1362 104.749 87.3725 107.763 90.1635 110.209C92.9544 112.655 96.2356 114.477 99.7874 115.553C103.339 116.629 107.08 116.933 110.759 116.447C104.463 115.656 98.6728 112.595 94.474 107.838C90.2752 103.081 87.957 96.9545 87.9544 90.6094Z" fill="#FFA726"/>
<path d="M163.969 97.125C167.567 97.125 170.484 94.2079 170.484 90.6094C170.484 87.0109 167.567 84.0938 163.969 84.0938C160.37 84.0938 157.453 87.0109 157.453 90.6094C157.453 94.2079 160.37 97.125 163.969 97.125Z" fill="#FFB74D"/>
<path d="M155.281 129.703C158.88 129.703 161.797 126.786 161.797 123.188C161.797 119.589 158.88 116.672 155.281 116.672C151.683 116.672 148.766 119.589 148.766 123.188C148.766 126.786 151.683 129.703 155.281 129.703Z" fill="#FFB74D"/>
<path d="M155.281 64.5469C158.88 64.5469 161.797 61.6297 161.797 58.0312C161.797 54.4328 158.88 51.5156 155.281 51.5156C151.683 51.5156 148.766 54.4328 148.766 58.0312C148.766 61.6297 151.683 64.5469 155.281 64.5469Z" fill="#FFB74D"/>
<path d="M51.0312 97.125C54.6297 97.125 57.5469 94.2079 57.5469 90.6094C57.5469 87.0109 54.6297 84.0938 51.0312 84.0938C47.4328 84.0938 44.5156 87.0109 44.5156 90.6094C44.5156 94.2079 47.4328 97.125 51.0312 97.125Z" fill="#FFB74D"/>
<path d="M59.7188 64.5469C63.3172 64.5469 66.2344 61.6297 66.2344 58.0312C66.2344 54.4328 63.3172 51.5156 59.7188 51.5156C56.1203 51.5156 53.2031 54.4328 53.2031 58.0312C53.2031 61.6297 56.1203 64.5469 59.7188 64.5469Z" fill="#FFB74D"/>
<path d="M59.7188 129.703C63.3172 129.703 66.2344 126.786 66.2344 123.188C66.2344 119.589 63.3172 116.672 59.7188 116.672C56.1203 116.672 53.2031 119.589 53.2031 123.188C53.2031 126.786 56.1203 129.703 59.7188 129.703Z" fill="#FFB74D"/>
<path d="M170.484 90.6094C170.483 91.7528 170.182 92.8759 169.61 93.866C169.038 94.8561 168.216 95.6783 167.226 96.2504C166.236 96.8224 165.112 97.1241 163.969 97.1251C162.826 97.1261 161.702 96.8265 160.711 96.2563C161.702 95.6835 162.524 94.8602 163.096 93.8691C163.668 92.8779 163.969 91.7537 163.969 90.6094C163.969 89.4651 163.668 88.341 163.096 87.3498C162.524 86.3586 161.702 85.5353 160.711 84.9626C161.702 84.3923 162.826 84.0927 163.969 84.0938C165.112 84.0948 166.236 84.3965 167.226 84.9685C168.216 85.5405 169.038 86.3628 169.61 87.3529C170.182 88.3429 170.483 89.466 170.484 90.6094ZM161.797 123.188C161.796 124.331 161.494 125.454 160.922 126.444C160.35 127.434 159.528 128.256 158.538 128.829C157.548 129.401 156.425 129.702 155.282 129.703C154.138 129.704 153.015 129.405 152.023 128.834C153.014 128.262 153.837 127.438 154.408 126.447C154.98 125.456 155.281 124.332 155.281 123.188C155.281 122.043 154.98 120.919 154.408 119.928C153.837 118.937 153.014 118.113 152.023 117.541C153.015 116.97 154.138 116.671 155.282 116.672C156.425 116.673 157.548 116.975 158.538 117.547C159.528 118.119 160.35 118.941 160.922 119.931C161.494 120.921 161.796 122.044 161.797 123.188ZM161.797 58.0313C161.796 59.1747 161.494 60.2978 160.922 61.2879C160.35 62.2779 159.528 63.1002 158.538 63.6723C157.548 64.2443 156.425 64.5459 155.282 64.547C154.138 64.548 153.015 64.2484 152.023 63.6782C153.014 63.1054 153.837 62.2821 154.408 61.2909C154.98 60.2998 155.281 59.1756 155.281 58.0313C155.281 56.887 154.98 55.7628 154.408 54.7717C153.837 53.7805 153.014 52.9572 152.023 52.3844C153.015 51.8142 154.138 51.5146 155.282 51.5156C156.425 51.5167 157.548 51.8183 158.538 52.3904C159.528 52.9624 160.35 53.7847 160.922 54.7747C161.494 55.7648 161.796 56.8879 161.797 58.0313ZM57.5469 90.6094C57.5459 91.7528 57.2443 92.8759 56.6723 93.866C56.1003 94.8561 55.2781 95.6783 54.2881 96.2504C53.298 96.8224 52.175 97.1241 51.0315 97.1251C49.8881 97.1261 48.7645 96.8265 47.7734 96.2563C48.7641 95.6835 49.5866 94.8602 50.1584 93.8691C50.7303 92.8779 51.0313 91.7537 51.0313 90.6094C51.0313 89.4651 50.7303 88.341 50.1584 87.3498C49.5866 86.3586 48.7641 85.5353 47.7734 84.9626C48.7645 84.3923 49.8881 84.0927 51.0315 84.0938C52.175 84.0948 53.298 84.3965 54.2881 84.9685C55.2781 85.5405 56.1003 86.3628 56.6723 87.3529C57.2443 88.3429 57.5459 89.466 57.5469 90.6094ZM66.2344 58.0313C66.2334 59.1747 65.9318 60.2978 65.3598 61.2879C64.7878 62.2779 63.9656 63.1002 62.9756 63.6723C61.9855 64.2443 60.8625 64.5459 59.719 64.547C58.5756 64.548 57.452 64.2484 56.4609 63.6782C57.4516 63.1054 58.2741 62.2821 58.8459 61.2909C59.4178 60.2998 59.7188 59.1756 59.7188 58.0313C59.7188 56.887 59.4178 55.7628 58.8459 54.7717C58.2741 53.7805 57.4516 52.9572 56.4609 52.3844C57.452 51.8142 58.5756 51.5146 59.719 51.5156C60.8625 51.5167 61.9855 51.8183 62.9756 52.3904C63.9656 52.9624 64.7878 53.7847 65.3598 54.7747C65.9318 55.7648 66.2334 56.8879 66.2344 58.0313ZM66.2344 123.188C66.2334 124.331 65.9318 125.454 65.3598 126.444C64.7878 127.434 63.9656 128.256 62.9756 128.829C61.9855 129.401 60.8625 129.702 59.719 129.703C58.5756 129.704 57.452 129.405 56.4609 128.834C57.4516 128.262 58.2741 127.438 58.8459 126.447C59.4178 125.456 59.7188 124.332 59.7188 123.188C59.7188 122.043 59.4178 120.919 58.8459 119.928C58.2741 118.937 57.4516 118.113 56.4609 117.541C57.452 116.97 58.5756 116.671 59.719 116.672C60.8625 116.673 61.9855 116.975 62.9756 117.547C63.9656 118.119 64.7878 118.941 65.3598 119.931C65.9318 120.921 66.2334 122.044 66.2344 123.188Z" fill="#FFA726"/>
<path d="M163.97 81.9232C162.049 81.9288 160.185 82.5715 158.668 83.7506C157.152 84.9297 156.07 86.5786 155.591 88.4388H144.313C144.1 84.7227 143.321 81.0608 142.004 77.5794H150.939C152.666 77.5775 154.322 76.8904 155.544 75.6689C156.765 74.4474 157.453 72.7913 157.454 71.0638V66.4116C159.502 65.883 161.286 64.6259 162.473 62.8758C163.659 61.1258 164.167 59.003 163.901 56.9053C163.634 54.8077 162.612 52.8793 161.025 51.4815C159.439 50.0837 157.397 49.3125 155.283 49.3125C153.168 49.3125 151.126 50.0837 149.54 51.4815C147.953 52.8793 146.931 54.8077 146.664 56.9053C146.398 59.003 146.906 61.1258 148.092 62.8758C149.279 64.6259 151.063 65.883 153.111 66.4116V71.0638C153.11 71.6397 152.881 72.1918 152.474 72.599C152.067 73.0062 151.515 73.2351 150.939 73.2357H140.062C136.916 67.3316 132.225 62.3938 126.49 58.9507C120.754 55.5076 114.191 53.6887 107.501 53.6887C100.812 53.6887 94.2481 55.5076 88.5128 58.9507C82.7774 62.3938 78.0861 67.3316 74.941 73.2357H64.0638C63.4879 73.2351 62.9358 73.0062 62.5286 72.599C62.1214 72.1918 61.8924 71.6397 61.8919 71.0638V66.4116C63.9393 65.883 65.7235 64.6259 66.9103 62.8758C68.097 61.1258 68.6047 59.003 68.3383 56.9053C68.0719 54.8077 67.0496 52.8793 65.463 51.4815C63.8764 50.0837 61.8345 49.3125 59.72 49.3125C57.6056 49.3125 55.5637 50.0837 53.9771 51.4815C52.3905 52.8793 51.3682 54.8077 51.1018 56.9053C50.8354 59.003 51.3431 61.1258 52.5298 62.8758C53.7166 64.6259 55.5008 65.883 57.5482 66.4116V71.0638C57.5501 72.7913 58.2371 74.4474 59.4586 75.6689C60.6802 76.8904 62.3363 77.5775 64.0638 77.5794H72.9989C71.6817 81.0608 70.903 84.7227 70.6895 88.4388H59.4116C58.883 86.3915 57.6259 84.6072 55.8758 83.4205C54.1258 82.2337 52.003 81.726 49.9053 81.9924C47.8077 82.2588 45.8793 83.2812 44.4815 84.8677C43.0837 86.4543 42.3125 88.4962 42.3125 90.6107C42.3125 92.7251 43.0837 94.767 44.4815 96.3536C45.8793 97.9402 47.8077 98.9625 49.9053 99.2289C52.003 99.4954 54.1258 98.9876 55.8758 97.8009C57.6259 96.6141 58.883 94.8299 59.4116 92.7825H70.6895C70.903 96.4987 71.6817 100.161 72.9989 103.642H64.0638C62.3363 103.644 60.6802 104.331 59.4586 105.552C58.2371 106.774 57.5501 108.43 57.5482 110.158V114.81C55.5008 115.338 53.7166 116.595 52.5298 118.346C51.3431 120.096 50.8354 122.218 51.1018 124.316C51.3682 126.414 52.3905 128.342 53.9771 129.74C55.5637 131.138 57.6056 131.909 59.72 131.909C61.8345 131.909 63.8764 131.138 65.463 129.74C67.0496 128.342 68.0719 126.414 68.3383 124.316C68.6047 122.218 68.097 120.096 66.9103 118.346C65.7235 116.595 63.9393 115.338 61.8919 114.81V110.158C61.8924 109.582 62.1214 109.03 62.5286 108.622C62.9358 108.215 63.4879 107.986 64.0638 107.986H74.941C77.9222 113.553 82.2811 118.263 87.6012 121.666C92.9213 125.069 99.0251 127.051 105.329 127.422V139.164C103.501 136.889 101.187 135.054 98.5556 133.793C95.9245 132.532 93.044 131.877 90.1263 131.876H81.4388C80.8628 131.876 80.3104 132.105 79.903 132.512C79.4957 132.92 79.2669 133.472 79.2669 134.048C79.2675 136.966 79.9224 139.846 81.1836 142.478C82.4448 145.109 84.28 147.423 86.5542 149.251H79.2669C78.9227 149.251 78.5833 149.333 78.2768 149.489C77.9703 149.646 77.7055 149.874 77.5043 150.153C77.3031 150.432 77.1712 150.755 77.1196 151.096C77.068 151.436 77.0982 151.784 77.2075 152.11L84.9045 175.203C85.336 176.501 86.1653 177.63 87.2748 178.429C88.3843 179.229 89.7174 179.659 91.085 179.658H123.918C125.285 179.659 126.618 179.229 127.728 178.429C128.837 177.63 129.667 176.501 130.098 175.203L137.795 152.11C137.904 151.784 137.935 151.436 137.883 151.096C137.831 150.755 137.7 150.432 137.498 150.153C137.297 149.874 137.032 149.646 136.726 149.489C136.419 149.333 136.08 149.251 135.736 149.251H128.448C130.723 147.423 132.558 145.109 133.819 142.478C135.08 139.846 135.735 136.966 135.736 134.048C135.736 133.472 135.507 132.92 135.1 132.512C134.692 132.105 134.14 131.876 133.564 131.876H124.876C121.959 131.877 119.078 132.532 116.447 133.793C113.816 135.054 111.501 136.889 109.673 139.164V127.422C115.978 127.051 122.081 125.069 127.401 121.666C132.722 118.263 137.08 113.553 140.062 107.986H150.939C151.515 107.986 152.067 108.215 152.474 108.622C152.881 109.03 153.11 109.582 153.111 110.158V114.81C151.063 115.338 149.279 116.595 148.092 118.346C146.906 120.096 146.398 122.218 146.664 124.316C146.931 126.414 147.953 128.342 149.54 129.74C151.126 131.138 153.168 131.909 155.283 131.909C157.397 131.909 159.439 131.138 161.025 129.74C162.612 128.342 163.634 126.414 163.901 124.316C164.167 122.218 163.659 120.096 162.473 118.346C161.286 116.595 159.502 115.338 157.454 114.81V110.158C157.453 108.43 156.765 106.774 155.544 105.552C154.322 104.331 152.666 103.644 150.939 103.642H142.004C143.321 100.161 144.1 96.4987 144.313 92.7825H155.591C156 94.3522 156.841 95.7758 158.018 96.8916C159.195 98.0075 160.662 98.7708 162.251 99.095C163.84 99.4191 165.489 99.2911 167.009 98.7255C168.529 98.1598 169.86 97.1792 170.851 95.895C171.842 94.6108 172.453 93.0745 172.615 91.4605C172.776 89.8465 172.482 88.2196 171.765 86.7644C171.049 85.3093 169.938 84.0843 168.56 83.2285C167.182 82.3727 165.592 81.9205 163.97 81.9232ZM150.939 58.0325C150.939 57.1734 151.194 56.3336 151.671 55.6193C152.148 54.905 152.827 54.3482 153.62 54.0194C154.414 53.6907 155.287 53.6047 156.13 53.7723C156.973 53.9399 157.747 54.3536 158.354 54.961C158.962 55.5685 159.375 56.3425 159.543 57.1851C159.71 58.0277 159.624 58.9011 159.296 59.6948C158.967 60.4885 158.41 61.1669 157.696 61.6442C156.981 62.1215 156.142 62.3763 155.283 62.3763C154.131 62.375 153.027 61.9169 152.213 61.1026C151.398 60.2883 150.94 59.1842 150.939 58.0325ZM55.3763 58.0325C55.3763 57.1734 55.631 56.3336 56.1083 55.6193C56.5856 54.905 57.264 54.3482 58.0578 54.0194C58.8515 53.6907 59.7249 53.6047 60.5675 53.7723C61.4101 53.9399 62.1841 54.3536 62.7915 54.961C63.399 55.5685 63.8127 56.3425 63.9803 57.1851C64.1479 58.0277 64.0619 58.9011 63.7331 59.6948C63.4044 60.4885 62.8476 61.1669 62.1333 61.6442C61.419 62.1215 60.5792 62.3763 59.72 62.3763C58.5684 62.375 57.4643 61.9169 56.65 61.1026C55.8357 60.2883 55.3776 59.1842 55.3763 58.0325ZM51.0325 94.9544C50.1734 94.9544 49.3336 94.6997 48.6193 94.2224C47.905 93.7451 47.3482 93.0667 47.0194 92.273C46.6907 91.4792 46.6047 90.6059 46.7723 89.7632C46.9399 88.9206 47.3536 88.1467 47.961 87.5392C48.5685 86.9317 49.3425 86.518 50.1851 86.3504C51.0277 86.1828 51.9011 86.2688 52.6948 86.5976C53.4885 86.9263 54.1669 87.4831 54.6442 88.1974C55.1215 88.9117 55.3763 89.7516 55.3763 90.6107C55.375 91.7623 54.9169 92.8664 54.1026 93.6807C53.2883 94.495 52.1842 94.9531 51.0325 94.9544ZM64.0638 123.189C64.0638 124.048 63.809 124.888 63.3317 125.602C62.8544 126.316 62.176 126.873 61.3823 127.202C60.5886 127.531 59.7152 127.617 58.8726 127.449C58.03 127.281 57.256 126.868 56.6485 126.26C56.0411 125.653 55.6274 124.879 55.4598 124.036C55.2922 123.194 55.3782 122.32 55.7069 121.527C56.0357 120.733 56.5925 120.054 57.3068 119.577C58.0211 119.1 58.8609 118.845 59.72 118.845C60.8716 118.847 61.9755 119.305 62.7898 120.119C63.6041 120.933 64.0622 122.037 64.0638 123.189ZM159.626 123.189C159.626 124.048 159.372 124.888 158.894 125.602C158.417 126.316 157.739 126.873 156.945 127.202C156.151 127.531 155.278 127.617 154.435 127.449C153.593 127.281 152.819 126.868 152.211 126.26C151.604 125.653 151.19 124.879 151.022 124.036C150.855 123.194 150.941 122.32 151.269 121.527C151.598 120.733 152.155 120.054 152.869 119.577C153.584 119.1 154.423 118.845 155.283 118.845C156.434 118.847 157.538 119.305 158.352 120.119C159.167 120.933 159.625 122.037 159.626 123.189ZM83.7655 136.22H90.1263C93.781 136.225 97.3121 137.543 100.075 139.936C102.838 142.328 104.648 145.635 105.175 149.251H98.8138C95.1591 149.247 91.628 147.928 88.8652 145.535C86.1024 143.143 84.2924 139.837 83.7655 136.22ZM124.876 136.22H131.237C130.71 139.837 128.9 143.143 126.137 145.535C123.375 147.928 119.843 149.247 116.189 149.251H109.828C110.355 145.635 112.165 142.328 114.928 139.936C117.69 137.543 121.222 136.225 124.876 136.22ZM132.722 153.595L125.979 173.829C125.835 174.262 125.558 174.638 125.188 174.904C124.818 175.171 124.374 175.314 123.918 175.314H91.085C90.629 175.314 90.1845 175.171 89.8145 174.904C89.4444 174.638 89.1677 174.262 89.0234 173.829L82.2808 153.595H132.722ZM107.501 123.189C101.058 123.189 94.7593 121.278 89.4019 117.698C84.0444 114.119 79.8688 109.031 77.403 103.078C74.9373 97.1249 74.2921 90.5745 75.5491 84.255C76.8062 77.9355 79.9089 72.1306 84.4651 67.5745C89.0212 63.0183 94.8261 59.9156 101.146 58.6585C107.465 57.4015 114.016 58.0466 119.968 60.5124C125.921 62.9782 131.009 67.1538 134.589 72.5112C138.169 77.8687 140.079 84.1673 140.079 90.6107C140.07 99.248 136.634 107.529 130.527 113.636C124.419 119.744 116.139 123.179 107.501 123.189ZM163.97 94.9544C163.111 94.9544 162.271 94.6997 161.557 94.2224C160.842 93.7451 160.286 93.0667 159.957 92.273C159.628 91.4792 159.542 90.6059 159.71 89.7632C159.877 88.9206 160.291 88.1467 160.899 87.5392C161.506 86.9317 162.28 86.518 163.123 86.3504C163.965 86.1828 164.839 86.2688 165.632 86.5976C166.426 86.9263 167.104 87.4831 167.582 88.1974C168.059 88.9117 168.314 89.7516 168.314 90.6107C168.312 91.7623 167.854 92.8664 167.04 93.6807C166.226 94.495 165.122 94.9531 163.97 94.9544ZM103.158 85.181C103.159 86.0447 103.502 86.8728 104.113 87.4835C104.724 88.0943 105.552 88.4378 106.415 88.4388H108.587C110.509 88.4326 112.361 89.1561 113.77 90.4629C115.178 91.7697 116.039 93.5625 116.177 95.4791C116.314 97.3957 115.72 99.2932 114.513 100.788C113.305 102.283 111.576 103.264 109.673 103.533V105.814C109.673 106.39 109.444 106.942 109.037 107.35C108.63 107.757 108.077 107.986 107.501 107.986C106.925 107.986 106.373 107.757 105.966 107.35C105.558 106.942 105.329 106.39 105.329 105.814V103.642H100.986C100.41 103.642 99.8572 103.413 99.4499 103.006C99.0426 102.598 98.8138 102.046 98.8138 101.47C98.8138 100.894 99.0426 100.342 99.4499 99.9343C99.8572 99.527 100.41 99.2982 100.986 99.2982H108.587C109.451 99.2982 110.28 98.9549 110.891 98.344C111.502 97.733 111.845 96.9044 111.845 96.0404C111.845 95.1763 111.502 94.3477 110.891 93.7367C110.28 93.1258 109.451 92.7825 108.587 92.7825H106.415C104.495 92.7867 102.645 92.0624 101.238 90.7558C99.8307 89.4492 98.9716 87.6575 98.8338 85.7422C98.696 83.827 99.2898 81.9308 100.495 80.4362C101.701 78.9416 103.428 77.9599 105.329 77.6891V75.4075C105.329 74.8315 105.558 74.2791 105.966 73.8718C106.373 73.4645 106.925 73.2357 107.501 73.2357C108.077 73.2357 108.63 73.4645 109.037 73.8718C109.444 74.2791 109.673 74.8315 109.673 75.4075V77.5794H114.017C114.593 77.5794 115.145 77.8082 115.553 78.2155C115.96 78.6228 116.189 79.1753 116.189 79.7513C116.189 80.3273 115.96 80.8797 115.553 81.287C115.145 81.6943 114.593 81.9232 114.017 81.9232H106.415C105.552 81.9241 104.724 82.2677 104.113 82.8784C103.502 83.4892 103.159 84.3173 103.158 85.181ZM107.501 62.3763C101.917 62.3763 96.4582 64.0322 91.8151 67.1346C87.172 70.2371 83.5531 74.6467 81.4161 79.8058C79.2791 84.965 78.72 90.642 79.8094 96.1189C80.8989 101.596 83.5879 106.627 87.5366 110.575C91.4852 114.524 96.5161 117.213 101.993 118.303C107.47 119.392 113.147 118.833 118.306 116.696C123.465 114.559 127.875 110.94 130.977 106.297C134.08 101.654 135.736 96.1949 135.736 90.6107C135.727 83.125 132.75 75.9484 127.457 70.6553C122.164 65.3621 114.987 62.3847 107.501 62.3763ZM107.501 114.501C102.776 114.501 98.1572 113.1 94.2284 110.475C90.2996 107.85 87.2375 104.119 85.4292 99.7532C83.621 95.3878 83.1479 90.5842 84.0697 85.9498C84.9915 81.3155 87.2669 77.0586 90.6081 73.7174C93.9492 70.3763 98.2061 68.1009 102.84 67.1791C107.475 66.2573 112.278 66.7304 116.644 68.5386C121.009 70.3468 124.74 73.409 127.366 77.3377C129.991 81.2665 131.392 85.8855 131.392 90.6107C131.385 96.9446 128.865 103.017 124.387 107.496C119.908 111.975 113.835 114.494 107.501 114.501Z" fill="#554992"/>
</svg>
