<svg width="214" height="214" viewBox="0 0 214 214" fill="none" xmlns="http://www.w3.org/2000/svg">
<path fill-rule="evenodd" clip-rule="evenodd" d="M195.169 181.985C194.503 183.982 193.742 185.956 192.886 187.906C192.03 189.856 191.103 191.734 190.104 193.542C189.058 195.349 187.941 197.085 186.752 198.749C185.563 200.414 184.303 201.983 182.971 203.458C181.64 204.885 180.261 206.192 178.834 207.381C177.408 208.618 175.933 209.688 174.412 210.592C172.89 211.495 171.344 212.232 169.775 212.803C168.158 213.374 166.542 213.73 164.925 213.873C163.26 214.063 161.596 214.04 159.932 213.802C158.267 213.564 156.603 213.088 154.938 212.375C153.227 211.662 151.538 210.758 149.874 209.664C148.162 208.57 146.45 207.334 144.738 205.955C143.026 204.575 141.291 203.077 139.531 201.46C137.772 199.843 135.988 198.179 134.181 196.467C132.374 194.707 130.543 192.947 128.689 191.188C126.834 189.428 124.932 187.692 122.982 185.98C121.08 184.268 119.131 182.603 117.133 180.986C115.089 179.417 113.02 177.942 110.928 176.563C108.835 175.231 106.695 174.042 104.508 172.996C102.32 171.95 100.085 171.07 97.8028 170.357C95.4727 169.691 93.1188 169.191 90.7411 168.859C88.3634 168.478 85.9382 168.24 83.4654 168.145C81.0402 168.05 78.5912 168.026 76.1184 168.074C73.6456 168.169 71.1491 168.312 68.6287 168.502C66.1559 168.644 63.6831 168.811 61.2104 169.001C58.7376 169.239 56.2648 169.429 53.792 169.572C51.3668 169.715 48.9653 169.81 46.5876 169.857C44.21 169.857 41.8798 169.786 39.5973 169.643C37.3147 169.453 35.1035 169.144 32.9635 168.716C30.7761 168.288 28.6599 167.693 26.6151 166.932C24.5703 166.124 22.6206 165.196 20.7661 164.15C18.9115 163.104 17.152 161.915 15.4876 160.583C13.8232 159.252 12.2777 157.825 10.8511 156.303C9.37697 154.781 8.04547 153.164 6.85663 151.452C5.66779 149.74 4.64539 147.98 3.78943 146.173C2.88591 144.366 2.12505 142.511 1.50685 140.608C0.936211 138.754 0.508229 136.851 0.222907 134.901C-0.0148605 132.999 -0.0624141 131.097 0.0802466 129.194C0.175354 127.292 0.484452 125.413 1.00754 123.558C1.53063 121.751 2.26771 119.968 3.21878 118.208C4.16985 116.496 5.28736 114.808 6.57131 113.143C7.85526 111.478 9.30564 109.861 10.9225 108.292C12.5393 106.723 14.2512 105.201 16.0582 103.726C17.9128 102.204 19.8625 100.73 21.9073 99.3034C23.9046 97.829 25.9732 96.4023 28.1131 95.023C30.2054 93.5963 32.3453 92.2171 34.5328 90.8854C36.7203 89.5062 38.9077 88.127 41.0952 86.7478C43.2351 85.4161 45.3512 84.0607 47.4436 82.6815C49.536 81.3498 51.557 79.9944 53.5067 78.6152C55.4564 77.2359 57.311 75.8567 59.0704 74.4775C60.8299 73.0983 62.4943 71.7191 64.0636 70.3399C65.6804 68.9131 67.2021 67.4863 68.6287 66.0596C70.1029 64.6328 71.5295 63.1822 72.9085 61.7079C74.24 60.2811 75.5478 58.8306 76.8317 57.3563C78.1632 55.8819 79.4472 54.4076 80.6835 52.9333C81.9675 51.4589 83.2514 49.9608 84.5354 48.4389C85.8193 46.917 87.1033 45.3951 88.3872 43.8732C89.7187 42.3514 91.074 40.8057 92.4531 39.2362C93.8797 37.7143 95.33 36.1687 96.8042 34.5992C98.3259 33.0298 99.919 31.4603 101.583 29.8909C103.2 28.3214 104.912 26.752 106.719 25.1825C108.479 23.6131 110.309 22.0912 112.212 20.6169C114.114 19.095 116.063 17.6206 118.061 16.1939C120.058 14.7671 122.103 13.4117 124.195 12.1276C126.287 10.8435 128.427 9.63071 130.615 8.4893C132.755 7.34788 134.942 6.30158 137.177 5.3504C139.412 4.39921 141.671 3.56693 143.954 2.85354C146.236 2.14016 148.519 1.54567 150.801 1.07008C153.131 0.594488 155.462 0.285354 157.792 0.142677C160.122 -0.0475591 162.452 -0.0475591 164.782 0.142677C167.065 0.285354 169.371 0.594488 171.701 1.07008C173.984 1.54567 176.219 2.14016 178.406 2.85354C180.641 3.61449 182.829 4.51811 184.969 5.56441C187.061 6.56315 189.082 7.70457 191.032 8.98867C193.029 10.2252 194.907 11.5806 196.667 13.055C198.474 14.5769 200.138 16.1701 201.66 17.8347C203.229 19.4992 204.679 21.2589 206.011 23.1137C207.295 24.9685 208.436 26.9184 209.435 28.9635C210.481 30.961 211.337 33.0298 212.003 35.1699C212.668 37.3101 213.168 39.5216 213.501 41.8044C213.834 44.0397 214 46.3225 214 48.6529C214 51.0309 213.881 53.4326 213.643 55.8581C213.406 58.2837 213.049 60.7329 212.573 63.206C212.145 65.6791 211.622 68.1759 211.004 70.6966C210.433 73.2172 209.791 75.7616 209.078 78.3298C208.412 80.898 207.723 83.4662 207.01 86.0344C206.296 88.555 205.583 91.0994 204.87 93.6676C204.156 96.2358 203.491 98.7802 202.872 101.301C202.254 103.821 201.707 106.318 201.232 108.791C200.709 111.264 200.281 113.714 199.948 116.139C199.663 118.565 199.425 120.967 199.235 123.344C199.092 125.722 198.973 128.077 198.878 130.407C198.83 132.737 198.807 135.02 198.807 137.255C198.807 139.538 198.83 141.797 198.878 144.033C198.878 146.268 198.878 148.479 198.878 150.667C198.926 152.807 198.926 154.947 198.878 157.088C198.83 159.228 198.735 161.368 198.593 163.508C198.45 165.601 198.236 167.67 197.951 169.715C197.665 171.807 197.309 173.876 196.881 175.921C196.405 177.966 195.835 179.987 195.169 181.985Z" fill="#F4F4F4"/>
<g clip-path="url(#clip0_2824_4527)">
<path d="M91.9168 64.9763C91.916 71.5028 89.4553 77.7893 85.0253 82.582C80.5953 87.3748 74.5216 90.3217 68.0153 90.8352C67.3421 90.8895 66.6624 90.9167 65.9765 90.9167C60.2947 90.9255 54.7687 89.0599 50.2548 85.6091V85.6064C46.7448 82.9315 43.9753 79.4052 42.2083 75.3613C40.4414 71.3174 39.7353 66.8895 40.157 62.4966C40.5788 58.1037 42.1143 53.891 44.6183 50.2571C47.1224 46.6232 50.5122 43.6883 54.467 41.73C58.4218 39.7716 62.8108 38.8547 67.2189 39.0659C71.6269 39.277 75.9082 40.6094 79.6577 42.9368C83.4072 45.2642 86.5008 48.5098 88.646 52.3664C90.7912 56.223 91.917 60.5632 91.9168 64.9763Z" fill="white"/>
<path d="M85.0103 82.5954C80.5835 87.382 74.5151 90.324 68.0153 90.8349C63.043 90.454 58.2881 88.6386 54.3271 85.6088V85.6061C54.3027 85.5355 54.2782 85.4677 54.2538 85.3998C54.9402 81.9988 56.7059 78.9102 59.2883 76.5931C61.8707 74.2761 65.132 72.8543 68.5872 72.5393C72.0424 72.2242 75.5071 73.0327 78.466 74.8445C81.4249 76.6563 83.7201 79.3746 85.0103 82.5954Z" fill="#DEDEDE"/>
<path d="M70.0489 72.4709C75.6401 72.4709 80.1726 67.9384 80.1726 62.3473C80.1726 56.7561 75.6401 52.2236 70.0489 52.2236C64.4578 52.2236 59.9253 56.7561 59.9253 62.3473C59.9253 67.9384 64.4578 72.4709 70.0489 72.4709Z" fill="#DEDEDE"/>
<path d="M81.7742 85.4007C81.709 85.4985 81.6411 85.6016 81.5705 85.7048C77.0536 89.104 71.5498 90.9343 65.8967 90.9172C60.2437 90.9 54.751 89.0363 50.2548 85.6098V85.607C50.2304 85.5365 50.206 85.4686 50.1815 85.4007C50.9172 81.7535 52.8924 78.4732 55.7717 76.1167C58.6511 73.7602 62.2571 72.4727 65.9778 72.4727C69.6985 72.4727 73.3046 73.7602 76.1839 76.1167C79.0633 78.4732 81.0384 81.7535 81.7742 85.4007Z" fill="#66C1FF"/>
<path d="M77.3706 77.1911C75.8757 75.693 74.0996 74.5049 72.1442 73.6952C70.1889 72.8855 68.0928 72.47 65.9764 72.4727C65.2917 72.4732 64.6076 72.517 63.9283 72.6038C67.4749 73.0484 70.772 74.6626 73.2984 77.1911C74.6007 78.4934 75.8563 81.1974 76.6504 83.211C76.9321 83.9237 76.9529 84.713 76.7091 85.4395C76.4654 86.1661 75.9727 86.7831 75.3182 87.1817C71.8653 89.274 67.969 90.5257 63.9435 90.8359C64.6144 90.888 65.292 90.9173 65.9764 90.9173C71.6038 90.9267 77.0799 89.0962 81.5705 85.7048C81.6411 85.6017 81.7089 85.4985 81.7741 85.4008C81.1492 82.2894 79.617 79.4327 77.3706 77.1911Z" fill="#4EB7FF"/>
<path d="M65.9767 72.4709C71.5678 72.4709 76.1003 67.9384 76.1003 62.3473C76.1003 56.7561 71.5678 52.2236 65.9767 52.2236C60.3855 52.2236 55.853 56.7561 55.853 62.3473C55.853 67.9384 60.3855 72.4709 65.9767 72.4709Z" fill="#FFCD85"/>
<path d="M65.9764 52.2236C65.2926 52.2233 64.6104 52.292 63.9403 52.4286C66.2242 52.8981 68.276 54.1414 69.7494 55.9484C71.2228 57.7555 72.0274 60.0157 72.0274 62.3473C72.0274 64.6789 71.2228 66.9391 69.7494 68.7461C68.276 70.5532 66.2242 71.7965 63.9403 72.266C65.3272 72.5505 66.7583 72.541 68.1413 72.2381C69.5243 71.9352 70.8284 71.3457 71.9693 70.5075C73.1103 69.6693 74.0628 68.6011 74.7653 67.3719C75.4678 66.1428 75.9047 64.7799 76.0478 63.3714C76.1909 61.9629 76.037 60.54 75.596 59.1947C75.1551 57.8493 74.4369 56.6114 73.4878 55.5609C72.5387 54.5104 71.3798 53.6706 70.086 53.0957C68.7922 52.5209 67.3922 52.2238 65.9764 52.2236Z" fill="#FFC166"/>
<path d="M174.964 64.9765C174.974 71.5127 172.506 77.8099 168.057 82.5985C167.043 83.693 165.937 84.6985 164.751 85.6039C160.787 88.6378 156.028 90.4561 151.051 90.8381C150.384 90.8897 149.705 90.9168 149.023 90.9168C143.893 90.9168 138.878 89.3954 134.612 86.5451C130.346 83.6947 127.021 79.6434 125.058 74.9034C123.094 70.1634 122.581 64.9477 123.582 59.9158C124.582 54.8838 127.053 50.2617 130.681 46.6339C134.309 43.0061 138.931 40.5355 143.963 39.5346C148.995 38.5337 154.21 39.0474 158.95 41.0107C163.69 42.9741 167.742 46.2989 170.592 50.5648C173.442 54.8307 174.964 59.846 174.964 64.9765Z" fill="white"/>
<path d="M168.057 82.5988C167.043 83.6933 165.937 84.6988 164.751 85.6042C160.787 88.6381 156.028 90.4564 151.052 90.8384C146.045 90.4479 141.261 88.6063 137.285 85.539C137.29 85.4929 137.295 85.444 137.301 85.4005C137.988 82 139.754 78.912 142.337 76.5955C144.919 74.279 148.18 72.8578 151.635 72.543C155.09 72.2283 158.555 73.0369 161.513 74.8486C164.472 76.6603 166.767 79.3784 168.057 82.5988Z" fill="#DEDEDE"/>
<path d="M153.095 72.4709C158.687 72.4709 163.219 67.9384 163.219 62.3473C163.219 56.7561 158.687 52.2236 153.095 52.2236C147.504 52.2236 142.972 56.7561 142.972 62.3473C142.972 67.9384 147.504 72.4709 153.095 72.4709Z" fill="#DEDEDE"/>
<path d="M164.818 85.4005C164.797 85.4683 164.775 85.5335 164.751 85.6041C160.218 89.0615 154.671 90.9288 148.97 90.917C143.269 90.9053 137.731 89.0151 133.212 85.5389C133.218 85.4928 133.223 85.4439 133.229 85.4005C133.964 81.7536 135.939 78.4736 138.818 76.1173C141.697 73.761 145.303 72.4736 149.024 72.4736C152.744 72.4736 156.35 73.761 159.229 76.1173C162.108 78.4736 164.083 81.7536 164.818 85.4005Z" fill="#63EA86"/>
<path d="M160.415 77.1911C158.921 75.6928 157.145 74.5046 155.19 73.6949C153.235 72.8851 151.14 72.4698 149.024 72.4727C148.339 72.4732 147.655 72.517 146.976 72.6038C150.521 73.0479 153.818 74.6622 156.343 77.1911C157.634 78.4822 158.91 81.1284 159.74 83.1102C160.04 83.8247 160.074 84.6227 159.837 85.3603C159.6 86.0979 159.107 86.7264 158.447 87.1323C154.974 89.2542 151.048 90.5233 146.99 90.8356C147.661 90.8877 148.339 90.9173 149.024 90.9173C154.708 90.9269 160.237 89.0592 164.751 85.6044C164.775 85.5338 164.797 85.4686 164.819 85.4008C164.195 82.289 162.662 79.432 160.415 77.1911Z" fill="#3CE568"/>
<path d="M149.023 72.4709C154.614 72.4709 159.147 67.9384 159.147 62.3473C159.147 56.7561 154.614 52.2236 149.023 52.2236C143.432 52.2236 138.9 56.7561 138.9 62.3473C138.9 67.9384 143.432 72.4709 149.023 72.4709Z" fill="#FFCD85"/>
<path d="M149.024 52.2236C148.34 52.2233 147.658 52.292 146.987 52.4286C149.271 52.8981 151.323 54.1414 152.797 55.9484C154.27 57.7555 155.075 60.0157 155.075 62.3473C155.075 64.6789 154.27 66.9391 152.797 68.7461C151.323 70.5532 149.271 71.7965 146.987 72.266C148.374 72.5509 149.806 72.5418 151.189 72.2391C152.572 71.9364 153.877 71.3469 155.018 70.5087C156.159 69.6705 157.112 68.6023 157.815 67.3729C158.518 66.1436 158.955 64.7805 159.098 63.3717C159.241 61.9629 159.087 60.5398 158.646 59.1942C158.205 57.8487 157.486 56.6106 156.537 55.56C155.587 54.5094 154.428 53.6696 153.134 53.095C151.84 52.5203 150.44 52.2234 149.024 52.2236Z" fill="#FFC166"/>
<path d="M174.964 147.929C174.964 154.456 172.504 160.743 168.074 165.536C163.644 170.33 157.569 173.277 151.062 173.79C150.389 173.842 149.709 173.868 149.023 173.869C143.893 173.869 138.878 172.348 134.612 169.497C130.346 166.647 127.021 162.596 125.058 157.856C123.094 153.116 122.581 147.9 123.582 142.868C124.582 137.836 127.053 133.214 130.681 129.586C134.309 125.958 138.931 123.488 143.963 122.487C148.995 121.486 154.21 122 158.95 123.963C163.69 125.926 167.742 129.251 170.592 133.517C173.442 137.783 174.964 142.798 174.964 147.929Z" fill="white"/>
<path d="M168.057 165.551C163.631 170.338 157.562 173.281 151.062 173.791C146.056 173.405 141.271 171.566 137.295 168.499C137.295 168.445 137.298 168.399 137.301 168.353C137.988 164.952 139.754 161.864 142.337 159.548C144.919 157.231 148.18 155.81 151.635 155.495C155.09 155.18 158.555 155.989 161.513 157.801C164.472 159.612 166.767 162.331 168.057 165.551Z" fill="#DEDEDE"/>
<path d="M153.095 155.423C158.687 155.423 163.219 150.891 163.219 145.299C163.219 139.708 158.687 135.176 153.095 135.176C147.504 135.176 142.972 139.708 142.972 145.299C142.972 150.891 147.504 155.423 153.095 155.423Z" fill="#DEDEDE"/>
<path d="M164.854 168.48C160.322 171.971 154.762 173.866 149.042 173.869C143.321 173.873 137.76 171.985 133.223 168.499C133.223 168.445 133.226 168.399 133.229 168.353C133.964 164.706 135.939 161.426 138.818 159.069C141.697 156.713 145.303 155.426 149.024 155.426C152.744 155.426 156.35 156.713 159.229 159.069C162.108 161.426 164.083 164.706 164.818 168.353C164.829 168.396 164.843 168.439 164.854 168.48Z" fill="#FF6666"/>
<path d="M164.819 168.352C164.083 164.705 162.108 161.425 159.229 159.068C156.35 156.712 152.744 155.424 149.024 155.424C148.339 155.424 147.655 155.468 146.976 155.555C150.522 155.998 153.819 157.612 156.343 160.142C157.616 161.415 158.896 163.989 159.753 165.942C160.074 166.67 160.12 167.49 159.884 168.25C159.647 169.01 159.143 169.658 158.464 170.075C154.986 172.203 151.053 173.474 146.987 173.786C147.659 173.839 148.338 173.868 149.024 173.868C154.752 173.878 160.321 171.983 164.854 168.48C164.843 168.439 164.829 168.395 164.819 168.352Z" fill="#FF4E4E"/>
<path d="M149.023 155.423C154.614 155.423 159.147 150.891 159.147 145.299C159.147 139.708 154.614 135.176 149.023 135.176C143.432 135.176 138.9 139.708 138.9 145.299C138.9 150.891 143.432 155.423 149.023 155.423Z" fill="#FFCD85"/>
<path d="M149.024 135.176C148.34 135.175 147.658 135.244 146.987 135.381C149.271 135.85 151.323 137.094 152.797 138.901C154.27 140.708 155.075 142.968 155.075 145.299C155.075 147.631 154.27 149.891 152.797 151.698C151.323 153.505 149.271 154.749 146.987 155.218C148.374 155.503 149.806 155.494 151.189 155.191C152.572 154.889 153.877 154.299 155.018 153.461C156.159 152.623 157.112 151.554 157.815 150.325C158.518 149.096 158.955 147.733 159.098 146.324C159.241 144.915 159.087 143.492 158.646 142.146C158.205 140.801 157.486 139.563 156.537 138.512C155.587 137.462 154.428 136.622 153.134 136.047C151.84 135.472 150.44 135.176 149.024 135.176Z" fill="#FFC166"/>
<path d="M91.9168 147.929C91.9154 154.456 89.4539 160.743 85.0229 165.537C80.592 170.33 74.5172 173.277 68.0099 173.79C67.3393 173.842 66.6615 173.868 65.9765 173.869C60.846 173.869 55.8307 172.348 51.5648 169.497C47.2989 166.647 43.9741 162.596 42.0107 157.856C40.0474 153.116 39.5337 147.9 40.5346 142.868C41.5355 137.836 44.0061 133.214 47.6339 129.586C51.2617 125.958 55.8838 123.488 60.9158 122.487C65.9477 121.486 71.1634 122 75.9034 123.963C80.6434 125.926 84.6947 129.251 87.5451 133.517C90.3954 137.783 91.9168 142.798 91.9168 147.929Z" fill="white"/>
<path d="M85.0102 165.547C80.582 170.336 74.5117 173.279 68.0099 173.79C63.0045 173.404 58.2206 171.565 54.2456 168.499L54.2537 168.352C54.951 164.892 56.7654 161.756 59.4179 159.427C62.0704 157.099 65.4143 155.705 68.9356 155.462C69.3021 155.437 69.6741 155.424 70.0487 155.424C70.4206 155.424 70.7899 155.437 71.1564 155.462C74.1803 155.67 77.0841 156.727 79.5346 158.511C81.9851 160.295 83.8829 162.734 85.0102 165.547Z" fill="#DEDEDE"/>
<path d="M70.049 155.522C75.6675 155.522 80.2221 150.967 80.2221 145.349C80.2221 139.73 75.6675 135.176 70.049 135.176C64.4306 135.176 59.876 139.73 59.876 145.349C59.876 150.967 64.4306 155.522 70.049 155.522Z" fill="#DEDEDE"/>
<path d="M81.7741 168.352C81.7633 168.412 81.7524 168.469 81.7388 168.528C77.207 171.997 71.6578 173.874 65.951 173.868C60.2442 173.863 54.6985 171.976 50.1733 168.498L50.1815 168.352C50.9172 164.705 52.8924 161.424 55.7717 159.068C58.651 156.711 62.2571 155.424 65.9778 155.424C69.6985 155.424 73.3046 156.711 76.1839 159.068C79.0632 161.424 81.0384 164.705 81.7741 168.352Z" fill="#FFE966"/>
<path d="M77.3707 160.142C75.8762 158.644 74.1001 157.455 72.1447 156.646C70.1892 155.836 68.093 155.421 65.9765 155.424C65.2919 155.424 64.608 155.468 63.929 155.555C67.4757 155.998 70.773 157.613 73.2984 160.142C74.5866 161.43 75.8675 164.062 76.7056 166.035C77.0095 166.754 77.0452 167.558 76.8062 168.3C76.5672 169.043 76.0693 169.675 75.4032 170.082C71.9289 172.205 68.0009 173.475 63.9412 173.787C64.6131 173.839 65.2913 173.868 65.9765 173.868C71.6762 173.878 77.2187 172 81.7389 168.528L81.785 168.406C81.1672 165.274 79.6304 162.397 77.3707 160.142Z" fill="#FFE236"/>
<path d="M65.9768 155.522C71.5952 155.522 76.1498 150.967 76.1498 145.349C76.1498 139.73 71.5952 135.176 65.9768 135.176C60.3583 135.176 55.8037 139.73 55.8037 145.349C55.8037 150.967 60.3583 155.522 65.9768 155.522Z" fill="#FFCD85"/>
<path d="M65.9764 135.176C65.2926 135.176 64.6105 135.244 63.9403 135.38C66.2375 135.85 68.3019 137.098 69.7845 138.915C71.2671 140.731 72.0768 143.004 72.0768 145.349C72.0768 147.694 71.2671 149.966 69.7845 151.783C68.3019 153.599 66.2375 154.848 63.9403 155.318C65.3339 155.602 66.7716 155.592 68.1608 155.286C69.5499 154.981 70.8596 154.388 72.0053 153.545C73.151 152.702 74.1072 151.628 74.8122 150.393C75.5173 149.157 75.9555 147.788 76.0985 146.373C76.2416 144.958 76.0863 143.528 75.6428 142.177C75.1992 140.826 74.4772 139.582 73.5234 138.527C72.5696 137.472 71.4052 136.629 70.1052 136.051C68.8053 135.474 67.3988 135.176 65.9764 135.176Z" fill="#FFC166"/>
<path d="M115.423 52.7431L115.45 52.7472C115.549 52.7617 115.649 52.7689 115.749 52.7689C116.263 52.7681 116.757 52.5729 117.133 52.2225C117.51 51.8721 117.739 51.3924 117.776 50.8798C117.813 50.3671 117.655 49.8594 117.334 49.4585C117.012 49.0576 116.55 48.7932 116.042 48.7184L116.015 48.714C115.481 48.6355 114.937 48.7724 114.504 49.0947C114.071 49.417 113.783 49.8982 113.705 50.4325C113.626 50.9668 113.763 51.5104 114.085 51.9437C114.408 52.3771 114.889 52.6646 115.423 52.7431ZM107.513 52.1665H107.54C108.08 52.1665 108.598 51.952 108.98 51.5701C109.362 51.1883 109.576 50.6704 109.576 50.1304C109.576 49.5903 109.362 49.0724 108.98 48.6906C108.598 48.3087 108.08 48.0942 107.54 48.0942H107.513C107.246 48.0942 106.981 48.1469 106.734 48.2492C106.487 48.3515 106.262 48.5015 106.073 48.6906C105.884 48.8797 105.734 49.1041 105.632 49.3512C105.53 49.5982 105.477 49.863 105.477 50.1304C105.477 50.3977 105.53 50.6625 105.632 50.9095C105.734 51.1566 105.884 51.381 106.073 51.5701C106.262 51.7592 106.487 51.9092 106.734 52.0115C106.981 52.1138 107.246 52.1665 107.513 52.1665ZM99.3039 52.7562C99.4038 52.7561 99.5037 52.7487 99.6025 52.7342L99.6297 52.7301C100.161 52.6478 100.638 52.3591 100.957 51.9267C101.276 51.4943 101.411 50.9533 101.332 50.4218C101.254 49.8902 100.969 49.411 100.539 49.0887C100.109 48.7665 99.5695 48.6272 99.0373 48.7013L99.0101 48.7051C98.5008 48.7791 98.0384 49.0433 97.716 49.4444C97.3936 49.8456 97.235 50.3539 97.2722 50.8673C97.3095 51.3806 97.5397 51.8608 97.9166 52.2112C98.2936 52.5617 98.7892 52.7564 99.3039 52.7562ZM163.453 101.141C163.512 101.141 163.572 101.139 163.632 101.134C163.898 101.11 164.156 101.035 164.393 100.912C164.63 100.789 164.841 100.62 165.012 100.416C165.184 100.211 165.314 99.975 165.394 99.7204C165.475 99.4658 165.504 99.1978 165.481 98.9318L165.472 98.8433C165.421 98.4559 165.259 98.0913 165.007 97.7931C164.754 97.495 164.421 97.276 164.047 97.1623C163.673 97.0486 163.274 97.0451 162.899 97.1521C162.523 97.2591 162.186 97.4722 161.928 97.7658C161.67 98.0594 161.502 98.4211 161.444 98.8076C161.387 99.1941 161.442 99.589 161.603 99.9452C161.763 100.301 162.024 100.603 162.352 100.816C162.68 101.028 163.062 101.141 163.453 101.141ZM149.024 92.9532C154.557 92.9531 159.966 91.3121 164.566 88.238C169.167 85.1638 172.752 80.7945 174.87 75.6824C176.987 70.5704 177.541 64.9453 176.462 59.5185C175.382 54.0917 172.718 49.1068 168.805 45.1943C164.892 41.2818 159.908 38.6173 154.481 37.5379C149.054 36.4584 143.429 37.0124 138.317 39.1298C133.205 41.2472 128.835 44.8329 125.761 49.4335C122.687 54.0342 121.046 59.443 121.046 64.9762C121.055 72.3936 124.005 79.5048 129.25 84.7496C134.495 89.9944 141.606 92.945 149.024 92.9532ZM149.024 88.881C144.193 88.8862 139.476 87.4195 135.5 84.6762C136.347 81.7445 138.124 79.1675 140.563 77.3335C143.003 75.4995 145.972 74.5078 149.024 74.5077C152.075 74.5076 155.045 75.4992 157.484 77.3331C159.923 79.1671 161.7 81.7439 162.548 84.6757C158.572 87.4193 153.854 88.8862 149.024 88.881ZM140.936 62.3472C140.936 60.7476 141.41 59.184 142.299 57.854C143.188 56.524 144.451 55.4874 145.929 54.8753C147.406 54.2631 149.033 54.103 150.601 54.415C152.17 54.7271 153.611 55.4974 154.742 56.6284C155.873 57.7595 156.644 59.2005 156.956 60.7694C157.268 62.3382 157.108 63.9643 156.495 65.4421C155.883 66.9199 154.847 68.183 153.517 69.0717C152.187 69.9603 150.623 70.4347 149.024 70.4347C146.879 70.4323 144.824 69.5795 143.307 68.0633C141.791 66.5471 140.938 64.4914 140.936 62.3472ZM149.024 41.072C153.754 41.0697 158.379 42.4717 162.311 45.1003C166.244 47.7288 169.308 51.4656 171.116 55.8373C172.923 60.2089 173.391 65.0186 172.463 69.6569C171.534 74.2952 169.249 78.5534 165.897 81.8919C164.144 77.4836 160.739 73.9342 156.407 71.9998C158.428 70.4554 159.913 68.3162 160.655 65.8832C161.396 63.4503 161.356 60.8461 160.54 58.4371C159.724 56.0282 158.173 53.9357 156.106 52.4543C154.039 50.9728 151.559 50.1769 149.015 50.1786C146.472 50.1803 143.993 50.9794 141.927 52.4636C139.862 53.9478 138.314 56.0424 137.501 58.4524C136.688 60.8624 136.652 63.4667 137.396 65.8986C138.141 68.3306 139.63 70.4678 141.652 72.0096C137.319 73.9415 133.91 77.4876 132.151 81.8938C128.799 78.5554 126.514 74.2972 125.584 69.6587C124.655 65.0202 125.124 60.2102 126.931 55.8382C128.738 51.4663 131.802 47.7291 135.735 45.1004C139.668 42.4716 144.293 41.0696 149.024 41.072ZM165.771 107.549L165.775 107.465C165.776 107.456 165.776 107.446 165.776 107.436L165.776 107.434L165.78 107.351C165.787 107.084 165.743 106.819 165.648 106.57C165.553 106.32 165.41 106.092 165.227 105.898C165.044 105.704 164.824 105.548 164.581 105.439C164.338 105.33 164.075 105.27 163.809 105.262C163.788 105.261 163.767 105.261 163.746 105.261C163.22 105.262 162.714 105.467 162.335 105.833C161.957 106.199 161.735 106.697 161.715 107.223C161.714 107.247 161.714 107.269 161.713 107.292L161.711 107.338C161.686 107.873 161.873 108.396 162.232 108.794C162.59 109.192 163.091 109.432 163.626 109.462C163.666 109.465 163.705 109.466 163.744 109.466C164.263 109.466 164.762 109.267 165.139 108.91C165.516 108.554 165.742 108.067 165.771 107.549ZM149.024 119.952C143.49 119.952 138.081 121.592 133.481 124.666C128.88 127.741 125.294 132.11 123.177 137.222C121.059 142.334 120.505 147.959 121.585 153.386C122.664 158.813 125.329 163.798 129.241 167.71C133.154 171.623 138.139 174.287 143.566 175.367C148.993 176.446 154.618 175.892 159.73 173.775C164.842 171.657 169.211 168.072 172.285 163.471C175.359 158.87 177 153.461 177 147.928C176.992 140.511 174.041 133.4 168.797 128.155C163.552 122.91 156.441 119.96 149.024 119.952ZM149.024 171.832C144.193 171.838 139.476 170.371 135.5 167.628C136.347 164.697 138.124 162.12 140.563 160.285C143.003 158.451 145.972 157.46 149.024 157.46C152.075 157.46 155.044 158.451 157.484 160.285C159.923 162.119 161.7 164.696 162.548 167.627C158.572 170.371 153.854 171.838 149.024 171.832ZM140.936 145.299C140.936 143.7 141.41 142.136 142.299 140.806C143.188 139.476 144.451 138.439 145.929 137.827C147.406 137.215 149.033 137.055 150.601 137.367C152.17 137.679 153.611 138.449 154.742 139.58C155.873 140.712 156.644 142.153 156.956 143.721C157.268 145.29 157.108 146.916 156.495 148.394C155.883 149.872 154.847 151.135 153.517 152.024C152.187 152.912 150.623 153.387 149.024 153.387C146.879 153.384 144.824 152.531 143.308 151.015C141.791 149.499 140.938 147.443 140.936 145.299ZM165.897 164.844C164.144 160.436 160.739 156.886 156.407 154.952C158.428 153.407 159.913 151.268 160.655 148.835C161.396 146.402 161.356 143.798 160.54 141.389C159.724 138.98 158.173 136.887 156.106 135.406C154.038 133.925 151.558 133.129 149.015 133.131C146.471 133.132 143.993 133.931 141.927 135.416C139.862 136.9 138.314 138.994 137.501 141.405C136.688 143.815 136.652 146.419 137.396 148.851C138.141 151.283 139.63 153.42 141.652 154.962C137.319 156.893 133.91 160.44 132.151 164.846C128.799 161.506 126.514 157.247 125.585 152.608C124.655 147.969 125.124 143.158 126.93 138.785C128.737 134.412 131.8 130.674 135.733 128.043C139.666 125.413 144.291 124.009 149.022 124.008C153.753 124.008 158.378 125.412 162.311 128.042C166.244 130.672 169.308 134.41 171.115 138.783C172.922 143.156 173.391 147.966 172.462 152.605C171.533 157.245 169.249 161.504 165.897 164.844ZM160.837 115.208C160.734 115.736 160.844 116.282 161.144 116.729C161.443 117.175 161.906 117.485 162.433 117.591C162.96 117.696 163.507 117.589 163.955 117.292C164.403 116.995 164.716 116.533 164.824 116.007L164.84 115.923C164.928 115.395 164.804 114.854 164.496 114.416C164.187 113.979 163.719 113.681 163.192 113.587C162.665 113.493 162.122 113.61 161.681 113.914C161.24 114.217 160.937 114.683 160.837 115.208ZM115.749 162.118C115.649 162.118 115.549 162.125 115.45 162.139L115.423 162.143C114.893 162.226 114.416 162.515 114.098 162.947C113.779 163.38 113.644 163.92 113.722 164.451C113.8 164.982 114.085 165.461 114.515 165.784C114.944 166.106 115.483 166.246 116.015 166.172L116.042 166.168C116.551 166.094 117.013 165.83 117.335 165.429C117.657 165.028 117.815 164.52 117.778 164.007C117.741 163.494 117.511 163.014 117.135 162.663C116.758 162.313 116.263 162.118 115.749 162.118ZM65.9765 119.952C60.4433 119.952 55.0343 121.592 50.4336 124.666C45.8329 127.741 42.2471 132.11 40.1296 137.222C38.0121 142.334 37.4581 147.959 38.5376 153.386C39.6171 158.813 42.2815 163.798 46.1941 167.71C50.1067 171.623 55.0916 174.287 60.5185 175.367C65.9454 176.446 71.5706 175.892 76.6826 173.775C81.7946 171.657 86.164 168.072 89.2381 163.471C92.3121 158.87 93.9529 153.461 93.9529 147.928C93.9445 140.511 90.9942 133.4 85.7495 128.155C80.5047 122.91 73.3937 119.96 65.9765 119.952ZM65.9765 171.832C61.146 171.838 56.4285 170.371 52.4525 167.628C53.2517 164.881 54.867 162.442 57.0842 160.634C59.3014 158.826 62.0158 157.735 64.8675 157.505C65.2332 157.538 65.6024 157.558 65.9765 157.558C66.3484 157.558 66.7155 157.538 67.0787 157.505C69.9331 157.729 72.6516 158.817 74.8712 160.626C77.0908 162.434 78.7059 164.877 79.501 167.627C75.5249 170.371 70.8073 171.838 65.9765 171.832ZM57.8395 145.349C57.8391 143.783 58.2903 142.251 59.139 140.935C59.9877 139.62 61.1978 138.577 62.6243 137.932C64.0508 137.287 65.633 137.067 67.1812 137.299C68.7295 137.531 70.178 138.204 71.353 139.239C72.5281 140.273 73.3798 141.625 73.806 143.131C74.2323 144.637 74.2149 146.235 73.756 147.731C73.2971 149.228 72.4162 150.561 71.2189 151.569C70.0217 152.578 68.5589 153.22 67.0059 153.418C66.6628 153.398 66.3191 153.388 65.9754 153.387C65.6349 153.388 65.2945 153.399 64.9546 153.419C62.9905 153.168 61.1849 152.211 59.8755 150.725C58.566 149.24 57.8423 147.329 57.8395 145.349ZM82.8503 164.844C81.1095 160.468 77.7405 156.937 73.451 154.992C75.4649 153.433 76.9407 151.282 77.6717 148.842C78.4026 146.403 78.3522 143.795 77.5274 141.385C76.7026 138.975 75.1448 136.884 73.0721 135.404C70.9994 133.923 68.5156 133.128 65.9685 133.13C63.4215 133.131 60.9387 133.93 58.8679 135.413C56.797 136.896 55.2419 138.989 54.4202 141.4C53.5985 143.811 53.5513 146.418 54.2854 148.857C55.0195 151.296 56.498 153.445 58.5139 155.002C54.2229 156.943 50.8506 160.471 49.1043 164.846C45.7526 161.506 43.4674 157.247 42.538 152.608C41.6086 147.969 42.0768 143.158 43.8834 138.785C45.6899 134.412 48.7536 130.674 52.6863 128.043C56.619 125.412 61.2439 124.008 65.9753 124.008C70.7067 124.008 75.3317 125.412 79.2647 128.042C83.1977 130.672 86.2617 134.41 88.0687 138.783C89.8757 143.156 90.3444 147.966 89.4154 152.605C88.4864 157.245 86.2016 161.504 82.8503 164.844ZM107.54 162.72H107.513C106.973 162.72 106.455 162.935 106.073 163.316C105.691 163.698 105.477 164.216 105.477 164.756C105.477 165.296 105.691 165.814 106.073 166.196C106.455 166.578 106.973 166.792 107.513 166.792H107.54C108.08 166.792 108.598 166.578 108.98 166.196C109.362 165.814 109.576 165.296 109.576 164.756C109.576 164.216 109.362 163.698 108.98 163.316C108.598 162.935 108.08 162.72 107.54 162.72ZM111.565 163.09L111.568 163.125L111.544 162.728L111.565 163.09ZM99.6294 162.156L99.6023 162.152C99.5034 162.138 99.4036 162.131 99.3036 162.131C98.7896 162.131 98.2949 162.327 97.9188 162.677C97.5427 163.027 97.3131 163.507 97.2759 164.02C97.2388 164.532 97.3969 165.04 97.7186 165.441C98.0402 165.842 98.5016 166.106 99.0101 166.181L99.0373 166.186C99.5716 166.264 100.115 166.127 100.548 165.805C100.982 165.482 101.269 165.001 101.348 164.467C101.426 163.933 101.289 163.389 100.967 162.956C100.645 162.522 100.164 162.235 99.6294 162.156ZM103.291 162.995L103.316 162.714L103.292 162.977L103.291 162.995ZM119.73 161.762L119.732 161.773L119.686 161.549L119.73 161.762ZM65.9765 92.9529C71.5097 92.9529 76.9187 91.3122 81.5194 88.2381C86.1201 85.164 89.7059 80.7946 91.8234 75.6826C93.9408 70.5706 94.4949 64.9454 93.4154 59.5185C92.3359 54.0916 89.6714 49.1067 85.7588 45.1941C81.8462 41.2815 76.8613 38.6171 71.4344 37.5376C66.0075 36.4581 60.3824 37.0121 55.2703 39.1296C50.1583 41.2471 45.789 44.8329 42.7149 49.4336C39.6408 54.0343 38 59.4433 38 64.9765C38.0085 72.3937 40.9587 79.5046 46.2035 84.7494C51.4483 89.9941 58.5593 92.9445 65.9765 92.9529ZM65.9765 88.8807C61.146 88.886 56.4285 87.4194 52.4525 84.6762C53.3002 81.7446 55.0774 79.1678 57.5166 77.334C59.9558 75.5001 62.9249 74.5085 65.9765 74.5084C69.0282 74.5083 71.9973 75.4999 74.4366 77.3336C76.8758 79.1674 78.6532 81.7441 79.501 84.6757C75.5249 87.4192 70.8073 88.8859 65.9765 88.8807ZM57.889 62.3472C57.889 60.7476 58.3633 59.184 59.2519 57.854C60.1406 56.524 61.4037 55.4874 62.8815 54.8753C64.3593 54.2631 65.9854 54.103 67.5543 54.415C69.1231 54.7271 70.5642 55.4974 71.6952 56.6284C72.8263 57.7595 73.5965 59.2005 73.9086 60.7694C74.2207 62.3382 74.0605 63.9643 73.4484 65.4421C72.8362 66.9199 71.7996 68.183 70.4697 69.0717C69.1397 69.9603 67.576 70.4347 65.9765 70.4347C63.8323 70.4323 61.7765 69.5795 60.2604 68.0633C58.7442 66.5471 57.8913 64.4914 57.889 62.3472ZM65.9765 41.072C70.7069 41.0697 75.3316 42.4716 79.2645 45.1001C83.1974 47.7287 86.2616 51.4655 88.0688 55.8371C89.8759 60.2088 90.3447 65.0185 89.4157 69.6568C88.4868 74.2951 86.2019 78.5533 82.8506 81.8919C81.0969 77.4837 77.6916 73.9344 73.3598 71.9998C75.3806 70.4554 76.8664 68.3162 77.6079 65.8833C78.3494 63.4503 78.3093 60.8461 77.4933 58.4371C76.6773 56.0281 75.1265 53.9357 73.0591 52.4542C70.9916 50.9727 68.5117 50.1768 65.9683 50.1785C63.4248 50.1802 60.9459 50.9793 58.8805 52.4636C56.815 53.9478 55.267 56.0423 54.4542 58.4524C53.6414 60.8624 53.6047 63.4667 54.3495 65.8987C55.0942 68.3306 56.5828 70.4679 58.6057 72.0096C54.2724 73.9415 50.8636 77.4876 49.1043 81.8938C45.7524 78.5555 43.467 74.2973 42.5376 69.6588C41.6082 65.0203 42.0767 60.2103 43.8837 55.8384C45.6907 51.4664 48.7548 47.7293 52.6879 45.1005C56.6209 42.4717 61.2458 41.0697 65.9765 41.072ZM51.2482 109.301C51.2683 109.301 51.2889 109.301 51.309 109.3C51.848 109.284 52.3586 109.055 52.7285 108.663C53.0984 108.271 53.2974 107.747 53.2816 107.208L53.2778 107.125C53.25 106.73 53.1074 106.352 52.8676 106.036C52.6278 105.721 52.3011 105.483 51.9278 105.351C51.5544 105.219 51.1506 105.199 50.7659 105.293C50.3813 105.387 50.0325 105.591 49.7623 105.881C49.4922 106.171 49.3126 106.533 49.2454 106.923C49.1783 107.313 49.2266 107.715 49.3844 108.078C49.5422 108.441 49.8026 108.75 50.1337 108.968C50.4648 109.185 50.8521 109.301 51.2482 109.301ZM50.9148 107.278L51.2493 107.268L50.8847 107.279L50.9148 107.278ZM51.3174 101.078C51.3971 101.087 51.4772 101.092 51.5574 101.092C52.055 101.091 52.5351 100.908 52.9067 100.577C53.2783 100.246 53.5156 99.7904 53.5737 99.2962L53.5832 99.2077C53.6124 98.8104 53.5243 98.4132 53.3298 98.0656C53.1353 97.7179 52.8429 97.4351 52.489 97.2521C52.1351 97.0692 51.7353 96.9942 51.3392 97.0366C50.943 97.0789 50.5681 97.2367 50.2608 97.4903C49.9536 97.7439 49.7276 98.0821 49.611 98.4631C49.4943 98.844 49.4921 99.2508 49.6047 99.6329C49.7172 100.015 49.9395 100.356 50.244 100.613C50.5485 100.87 50.9218 101.031 51.3174 101.078ZM52.13 117.469C52.427 117.469 52.7205 117.404 52.9897 117.278C53.259 117.153 53.4975 116.97 53.6886 116.743C53.8796 116.515 54.0185 116.249 54.0956 115.962C54.1726 115.675 54.186 115.375 54.1346 115.082L54.1186 114.999C54.0362 114.624 53.8497 114.281 53.5805 114.008C53.3113 113.735 52.9705 113.544 52.5974 113.456C52.2242 113.368 51.8339 113.388 51.4714 113.513C51.1089 113.637 50.789 113.862 50.5487 114.161C50.3083 114.459 50.1573 114.82 50.1129 115.2C50.0686 115.581 50.1328 115.967 50.2981 116.313C50.4634 116.658 50.723 116.95 51.0472 117.155C51.3713 117.36 51.7466 117.468 52.13 117.469ZM51.8069 115.492L52.1327 115.435L51.7781 115.498L51.8069 115.492Z" fill="#554992"/>
</g>
<defs>
<clipPath id="clip0_2824_4527">
<rect width="139" height="139" fill="white" transform="translate(38 37)"/>
</clipPath>
</defs>
</svg>
