<svg width="214" height="214" viewBox="0 0 214 214" fill="none" xmlns="http://www.w3.org/2000/svg">
<path fill-rule="evenodd" clip-rule="evenodd" d="M172.615 164.138C170.618 165.184 168.549 166.135 166.41 166.991C164.317 167.895 162.154 168.703 159.919 169.417C157.731 170.13 155.52 170.82 153.285 171.485C151.003 172.104 148.696 172.722 146.366 173.34C144.036 173.911 141.682 174.481 139.305 175.052C136.927 175.67 134.549 176.288 132.172 176.907C129.747 177.525 127.322 178.191 124.896 178.904C122.471 179.617 120.046 180.402 117.621 181.258C115.196 182.066 112.77 182.994 110.345 184.04C107.968 185.039 105.566 186.156 103.141 187.393C100.764 188.582 98.3859 189.866 96.0083 191.245C93.6307 192.576 91.3006 193.955 89.0181 195.382C86.688 196.809 84.4055 198.235 82.1705 199.662C79.9831 201.041 77.8195 202.396 75.6796 203.728C73.5398 205.06 71.4712 206.296 69.474 207.437C67.4293 208.579 65.4796 209.601 63.6251 210.505C61.723 211.408 59.916 212.145 58.2041 212.716C56.4922 213.334 54.8517 213.738 53.2824 213.929C51.7608 214.071 50.3104 214 48.9314 213.715C47.5999 213.429 46.3636 212.882 45.2223 212.074C44.0811 211.218 43.0111 210.148 42.0125 208.864C41.0615 207.532 40.1818 206.011 39.3734 204.299C38.5174 202.634 37.7328 200.78 37.0195 198.735C36.3538 196.69 35.7118 194.526 35.0937 192.243C34.4755 189.961 33.8811 187.607 33.3104 185.181C32.7398 182.708 32.1692 180.212 31.5986 177.691C31.0279 175.123 30.4573 172.555 29.8867 169.987C29.3636 167.467 28.793 164.946 28.1748 162.426C27.5566 159.906 26.8909 157.48 26.1776 155.15C25.5119 152.772 24.7748 150.49 23.9664 148.302C23.2056 146.162 22.3734 144.093 21.4699 142.096C20.614 140.146 19.7105 138.244 18.7594 136.389C17.8559 134.582 16.9286 132.846 15.9776 131.182C15.0266 129.47 14.0755 127.829 13.1245 126.26C12.221 124.691 11.3175 123.145 10.414 121.623C9.51048 120.149 8.63076 118.699 7.77482 117.272C6.91887 115.798 6.13426 114.371 5.42097 112.992C4.66013 111.565 3.97062 110.139 3.35244 108.712C2.73426 107.285 2.21119 105.859 1.78321 104.432C1.30769 103.005 0.927272 101.555 0.641957 100.081C0.356643 98.5589 0.166433 97.0609 0.0713286 95.5867C-0.0237762 94.0649 -0.0237762 92.5431 0.0713286 91.0213C0.118881 89.4995 0.261538 87.9778 0.4993 86.456C0.737062 84.9818 1.06993 83.5076 1.4979 82.0333C1.87832 80.5591 2.35384 79.1087 2.92447 77.682C3.4951 76.2553 4.13706 74.8762 4.85034 73.5447C5.56363 72.2131 6.34824 70.9291 7.20419 69.6927C8.10768 68.4562 9.05873 67.2911 10.0573 66.1973C11.0559 65.056 12.1259 64.0098 13.2671 63.0587C14.4084 62.1076 15.621 61.2278 16.9049 60.4193C18.1412 59.6109 19.4727 58.85 20.8993 58.1367C22.2783 57.4709 23.7049 56.8527 25.179 56.282C26.7007 55.6638 28.2461 55.0931 29.8153 54.57C31.4321 53.9993 33.0727 53.4524 34.737 52.9293C36.4014 52.4062 38.1132 51.8593 39.8727 51.2887C41.5846 50.718 43.344 50.1236 45.151 49.5053C46.958 48.8871 48.7887 48.2213 50.6433 47.508C52.4978 46.7471 54.3762 45.9387 56.2783 45.0827C58.1328 44.1791 60.0111 43.2042 61.9132 42.158C63.8629 41.1118 65.7887 39.9467 67.6908 38.6627C69.5929 37.4262 71.5188 36.0947 73.4684 34.668C75.4181 33.2413 77.3677 31.7433 79.3174 30.174C81.267 28.6522 83.2405 27.1067 85.2377 25.5373C87.2349 23.9204 89.2321 22.3273 91.2293 20.758C93.274 19.1887 95.3188 17.6431 97.3635 16.1213C99.4083 14.5996 101.477 13.1491 103.569 11.77C105.709 10.3909 107.849 9.08311 109.989 7.84667C112.129 6.61022 114.316 5.51644 116.551 4.56533C118.738 3.56667 120.973 2.73444 123.256 2.06867C125.538 1.40289 127.845 0.879778 130.175 0.499333C132.505 0.166444 134.859 0 137.236 0C139.614 0 141.991 0.142667 144.369 0.428C146.794 0.713333 149.196 1.16511 151.573 1.78333C153.951 2.354 156.305 3.09111 158.635 3.99467C161.012 4.85067 163.342 5.82556 165.625 6.91933C167.907 8.06067 170.142 9.32089 172.33 10.7C174.517 12.0316 176.633 13.482 178.678 15.0513C180.77 16.6207 182.791 18.2851 184.741 20.0447C186.691 21.8042 188.545 23.6589 190.305 25.6087C192.064 27.5584 193.728 29.5796 195.298 31.672C196.867 33.7644 198.341 35.9282 199.72 38.1633C201.147 40.3984 202.431 42.7049 203.572 45.0827C204.761 47.4129 205.854 49.7907 206.853 52.216C207.851 54.6889 208.731 57.1856 209.492 59.706C210.3 62.2264 210.99 64.7707 211.561 67.3387C212.131 69.9067 212.607 72.4747 212.987 75.0427C213.368 77.6582 213.629 80.2738 213.772 82.8893C213.962 85.5049 214.033 88.1204 213.986 90.736C213.938 93.3515 213.796 95.9433 213.558 98.5113C213.272 101.079 212.892 103.624 212.417 106.144C211.989 108.664 211.442 111.161 210.776 113.634C210.11 116.107 209.349 118.532 208.493 120.91C207.637 123.24 206.686 125.547 205.64 127.829C204.594 130.112 203.453 132.323 202.217 134.463C201.028 136.603 199.744 138.672 198.365 140.669C196.986 142.714 195.535 144.64 194.014 146.447C192.492 148.302 190.899 150.085 189.235 151.797C187.57 153.462 185.859 155.031 184.099 156.505C182.292 157.98 180.438 159.359 178.535 160.643C176.633 161.927 174.66 163.092 172.615 164.138Z" fill="#F4F4F4"/>
<path d="M146.781 125.844V155.156C146.779 158.487 145.454 161.681 143.099 164.036C140.743 166.392 137.55 167.716 134.219 167.719H79.7812C76.4503 167.716 73.2565 166.392 70.9012 164.036C68.5458 161.681 67.2214 158.487 67.2188 155.156V125.844C67.2188 113.281 77.6875 113.281 77.6875 104.906V100.719H136.312V104.906C136.312 113.281 146.781 113.281 146.781 125.844Z" fill="white"/>
<path d="M77.6875 125.844V155.156C77.6902 158.487 79.0146 161.681 81.3699 164.036C83.7253 166.392 86.919 167.716 90.25 167.719H79.7812C76.4495 167.719 73.2541 166.395 70.8982 164.039C68.5423 161.683 67.2188 158.488 67.2188 155.156V125.844C67.2188 113.281 77.6875 113.281 77.6875 104.906V100.719H136.312V107H99.2002C95.2837 106.949 91.4216 107.92 87.9956 109.819C84.5697 111.717 81.6983 114.477 79.6655 117.825C78.286 120.267 77.6019 123.04 77.6875 125.844Z" fill="#E0E0E0"/>
<path d="M107 88.1562C118.563 88.1562 127.938 78.7822 127.938 67.2188C127.938 55.6553 118.563 46.2812 107 46.2812C95.4365 46.2812 86.0625 55.6553 86.0625 67.2188C86.0625 78.7822 95.4365 88.1562 107 88.1562Z" fill="#FFB74D"/>
<path d="M113.281 83.9685C109.108 83.9713 105.029 82.7261 101.569 80.3928C98.1087 78.0596 95.4254 74.7449 93.8637 70.8748C92.3021 67.0046 91.9334 62.7559 92.8052 58.6746C93.6769 54.5934 95.7492 50.866 98.7558 47.9717C95.9324 49.178 93.4089 50.9906 91.3642 53.281C89.3195 55.5715 87.8037 58.2836 86.9241 61.2253C86.0446 64.1669 85.8229 67.266 86.2748 70.3029C86.7266 73.3398 87.841 76.2401 89.5389 78.7982C91.2367 81.3564 93.4765 83.5097 96.0995 85.1056C98.7225 86.7015 101.664 87.7009 104.717 88.033C107.769 88.365 110.857 88.0215 113.762 87.027C116.666 86.0324 119.317 84.411 121.525 82.2778C118.921 83.3955 116.115 83.9708 113.281 83.9685Z" fill="#FFA726"/>
<path d="M123.75 157.25H90.25C87.9373 157.25 86.0625 159.125 86.0625 161.438V163.531C86.0625 165.844 87.9373 167.719 90.25 167.719H123.75C126.063 167.719 127.938 165.844 127.938 163.531V161.438C127.938 159.125 126.063 157.25 123.75 157.25Z" fill="#FFB74D"/>
<path d="M123.75 146.781H90.25C87.9373 146.781 86.0625 148.656 86.0625 150.969V153.062C86.0625 155.375 87.9373 157.25 90.25 157.25H123.75C126.063 157.25 127.938 155.375 127.938 153.062V150.969C127.938 148.656 126.063 146.781 123.75 146.781Z" fill="#FFD54F"/>
<path d="M119.562 136.312H86.0625C83.7498 136.312 81.875 138.187 81.875 140.5V142.594C81.875 144.906 83.7498 146.781 86.0625 146.781H119.562C121.875 146.781 123.75 144.906 123.75 142.594V140.5C123.75 138.187 121.875 136.312 119.562 136.312Z" fill="#FFB74D"/>
<path d="M127.938 125.844H94.4375C92.1248 125.844 90.25 127.719 90.25 130.031V132.125C90.25 134.438 92.1248 136.312 94.4375 136.312H127.938C130.25 136.312 132.125 134.438 132.125 132.125V130.031C132.125 127.719 130.25 125.844 127.938 125.844Z" fill="#FFD54F"/>
<path d="M119.562 115.375H86.0625C83.7498 115.375 81.875 117.25 81.875 119.562V121.656C81.875 123.969 83.7498 125.844 86.0625 125.844H119.562C121.875 125.844 123.75 123.969 123.75 121.656V119.562C123.75 117.25 121.875 115.375 119.562 115.375Z" fill="#FFB74D"/>
<path d="M120.609 121.656H95.4844C94.6514 121.656 93.8526 121.325 93.2636 120.736C92.6746 120.147 92.3438 119.349 92.3438 118.516C92.3438 117.683 92.6746 116.884 93.2636 116.295C93.8526 115.706 94.6514 115.375 95.4844 115.375H86.0625C84.9519 115.375 83.8868 115.816 83.1015 116.601C82.3162 117.387 81.875 118.452 81.875 119.562V121.656C81.875 122.767 82.3162 123.832 83.1015 124.617C83.8868 125.403 84.9519 125.844 86.0625 125.844H119.562C120.673 125.844 121.738 125.403 122.524 124.617C123.309 123.832 123.75 122.767 123.75 121.656V119.562C123.744 119.387 123.726 119.212 123.697 119.039C123.575 119.77 123.198 120.434 122.632 120.913C122.067 121.392 121.35 121.655 120.609 121.656Z" fill="#FFA726"/>
<path d="M128.984 132.125H103.859C103.026 132.125 102.228 131.794 101.639 131.205C101.05 130.616 100.719 129.817 100.719 128.984C100.719 128.151 101.05 127.353 101.639 126.764C102.228 126.175 103.026 125.844 103.859 125.844H94.4375C93.3269 125.844 92.2618 126.285 91.4765 127.07C90.6912 127.856 90.25 128.921 90.25 130.031V132.125C90.25 133.236 90.6912 134.301 91.4765 135.086C92.2618 135.871 93.3269 136.312 94.4375 136.312H127.938C129.048 136.312 130.113 135.871 130.899 135.086C131.684 134.301 132.125 133.236 132.125 132.125V130.031C132.119 129.856 132.101 129.681 132.072 129.508C131.95 130.239 131.573 130.903 131.007 131.382C130.442 131.861 129.725 132.124 128.984 132.125Z" fill="#FFC107"/>
<path d="M120.609 142.594H95.4844C94.6514 142.594 93.8526 142.263 93.2636 141.674C92.6746 141.085 92.3438 140.286 92.3438 139.453C92.3438 138.62 92.6746 137.821 93.2636 137.232C93.8526 136.643 94.6514 136.312 95.4844 136.312H86.0625C84.9519 136.312 83.8868 136.754 83.1015 137.539C82.3162 138.324 81.875 139.389 81.875 140.5V142.594C81.875 143.704 82.3162 144.769 83.1015 145.555C83.8868 146.34 84.9519 146.781 86.0625 146.781H119.562C120.673 146.781 121.738 146.34 122.524 145.555C123.309 144.769 123.75 143.704 123.75 142.594V140.5C123.744 140.325 123.726 140.15 123.697 139.977C123.575 140.707 123.198 141.371 122.632 141.85C122.067 142.33 121.35 142.593 120.609 142.594ZM124.797 163.531H99.6719C98.8389 163.531 98.0401 163.2 97.4511 162.611C96.8621 162.022 96.5312 161.224 96.5312 160.391C96.5312 159.558 96.8621 158.759 97.4511 158.17C98.0401 157.581 98.8389 157.25 99.6719 157.25H90.25C89.1394 157.25 88.0743 157.691 87.289 158.476C86.5037 159.262 86.0625 160.327 86.0625 161.438V163.531C86.0625 164.642 86.5037 165.707 87.289 166.492C88.0743 167.278 89.1394 167.719 90.25 167.719H123.75C124.861 167.719 125.926 167.278 126.711 166.492C127.496 165.707 127.938 164.642 127.938 163.531V161.438C127.931 161.262 127.913 161.087 127.885 160.914C127.762 161.645 127.385 162.309 126.82 162.788C126.255 163.267 125.538 163.53 124.797 163.531Z" fill="#FFA726"/>
<path d="M124.797 153.062H99.6719C98.8389 153.062 98.0401 152.732 97.4511 152.143C96.8621 151.554 96.5312 150.755 96.5312 149.922C96.5312 149.089 96.8621 148.29 97.4511 147.701C98.0401 147.112 98.8389 146.781 99.6719 146.781H90.25C89.1394 146.781 88.0743 147.222 87.289 148.008C86.5037 148.793 86.0625 149.858 86.0625 150.969V153.062C86.0625 154.173 86.5037 155.238 87.289 156.024C88.0743 156.809 89.1394 157.25 90.25 157.25H123.75C124.861 157.25 125.926 156.809 126.711 156.024C127.496 155.238 127.938 154.173 127.938 153.062V150.969C127.931 150.793 127.913 150.618 127.885 150.445C127.762 151.176 127.385 151.84 126.82 152.319C126.255 152.798 125.538 153.062 124.797 153.062Z" fill="#FFC107"/>
<path d="M138.406 88.1562H75.5938C73.2811 88.1562 71.4062 90.0311 71.4062 92.3438V96.5312C71.4062 98.8439 73.2811 100.719 75.5938 100.719H138.406C140.719 100.719 142.594 98.8439 142.594 96.5312V92.3438C142.594 90.0311 140.719 88.1562 138.406 88.1562Z" fill="#81C784"/>
<path d="M139.453 94.4375H85.0156C84.1827 94.4375 83.3839 94.1066 82.7949 93.5176C82.2059 92.9286 81.875 92.1298 81.875 91.2969C81.875 90.4639 82.2059 89.6651 82.7949 89.0761C83.3839 88.4871 84.1827 88.1562 85.0156 88.1562H75.5938C74.4832 88.1562 73.418 88.5974 72.6327 89.3827C71.8474 90.168 71.4062 91.2332 71.4062 92.3438V96.5312C71.4062 97.6418 71.8474 98.707 72.6327 99.4923C73.418 100.278 74.4832 100.719 75.5938 100.719H138.406C139.517 100.719 140.582 100.278 141.367 99.4923C142.153 98.707 142.594 97.6418 142.594 96.5312V92.3438C142.587 92.1683 142.57 91.9935 142.541 91.8203C142.419 92.5512 142.041 93.215 141.476 93.6942C140.911 94.1733 140.194 94.4366 139.453 94.4375Z" fill="#66BB6A"/>
<path d="M107 81.8748C106.445 81.8748 105.912 81.6543 105.519 81.2616C105.127 80.8689 104.906 80.3364 104.906 79.7811V77.6873H100.719C100.163 77.6873 99.6309 77.4668 99.2382 77.0741C98.8456 76.6814 98.625 76.1489 98.625 75.5936C98.625 75.0383 98.8456 74.5057 99.2382 74.1131C99.6309 73.7204 100.163 73.4998 100.719 73.4998H109.094C109.649 73.4998 110.182 73.2793 110.574 72.8866C110.967 72.4939 111.187 71.9614 111.187 71.4061C111.187 70.8508 110.967 70.3182 110.574 69.9256C110.182 69.5329 109.649 69.3123 109.094 69.3123H104.906C103.24 69.3123 101.643 68.6506 100.465 67.4726C99.2868 66.2946 98.625 64.697 98.625 63.0311C98.625 61.3652 99.2868 59.7675 100.465 58.5896C101.643 57.4116 103.24 56.7498 104.906 56.7498V54.6561C104.906 54.1008 105.127 53.5682 105.519 53.1756C105.912 52.7829 106.445 52.5623 107 52.5623C107.555 52.5623 108.088 52.7829 108.48 53.1756C108.873 53.5682 109.094 54.1008 109.094 54.6561V56.7498H113.281C113.837 56.7498 114.369 56.9704 114.762 57.3631C115.154 57.7557 115.375 58.2883 115.375 58.8436C115.375 59.3989 115.154 59.9314 114.762 60.3241C114.369 60.7168 113.837 60.9373 113.281 60.9373H104.906C104.351 60.9373 103.818 61.1579 103.426 61.5506C103.033 61.9432 102.812 62.4758 102.812 63.0311C102.812 63.5864 103.033 64.1189 103.426 64.5116C103.818 64.9043 104.351 65.1248 104.906 65.1248H109.094C110.76 65.1248 112.357 65.7866 113.535 66.9646C114.713 68.1425 115.375 69.7402 115.375 71.4061C115.375 73.072 114.713 74.6696 113.535 75.8476C112.357 77.0256 110.76 77.6873 109.094 77.6873V79.7811C109.094 80.3364 108.873 80.8689 108.48 81.2616C108.088 81.6543 107.555 81.8748 107 81.8748ZM148.875 125.844V155.156C148.87 159.042 147.325 162.767 144.577 165.514C141.83 168.262 138.104 169.808 134.219 169.812H79.7812C75.8956 169.808 72.1705 168.262 69.4229 165.514C66.6754 162.767 65.1297 159.042 65.125 155.156V125.844C65.0747 123.109 65.6476 120.399 66.8004 117.919C67.9532 115.439 69.6555 113.253 71.7783 111.529C73.9929 109.36 75.5937 107.791 75.5937 104.906V102.812C73.9284 102.811 72.3318 102.148 71.1543 100.971C69.9767 99.793 69.3143 98.1964 69.3125 96.5311V92.3436C69.3143 90.6783 69.9767 89.0817 71.1543 87.9041C72.3318 86.7265 73.9284 86.0642 75.5937 86.0623H93.7995C89.785 83.2544 86.7704 79.2395 85.1939 74.601C83.6173 69.9625 83.5609 64.9422 85.0329 60.2695C86.5049 55.5968 89.4285 51.5152 93.379 48.6178C97.3295 45.7204 102.101 44.1582 107 44.1582C111.899 44.1582 116.671 45.7204 120.621 48.6178C124.571 51.5152 127.495 55.5968 128.967 60.2695C130.439 64.9422 130.383 69.9625 128.806 74.601C127.23 79.2395 124.215 83.2544 120.2 86.0623H138.406C140.072 86.0642 141.668 86.7265 142.846 87.9041C144.023 89.0817 144.686 90.6783 144.687 92.3436V96.5311C144.686 98.1964 144.023 99.793 142.846 100.971C141.668 102.148 140.072 102.811 138.406 102.812V104.906C138.406 107.791 140.007 109.36 142.222 111.529C144.344 113.253 146.047 115.439 147.2 117.919C148.352 120.399 148.925 123.109 148.875 125.844ZM107 86.0623C110.727 86.0623 114.37 84.9572 117.469 82.8866C120.568 80.816 122.983 77.873 124.409 74.4298C125.836 70.9865 126.209 67.1977 125.482 63.5424C124.755 59.887 122.96 56.5294 120.325 53.8941C117.689 51.2587 114.332 49.464 110.676 48.7369C107.021 48.0098 103.232 48.383 99.7888 49.8092C96.3456 51.2355 93.4026 53.6507 91.332 56.7496C89.2614 59.8484 88.1562 63.4917 88.1562 67.2186C88.1618 72.2146 90.1489 77.0043 93.6816 80.537C97.2143 84.0697 102.004 86.0568 107 86.0623ZM75.5937 98.6248H138.406C138.961 98.6245 139.494 98.4038 139.886 98.0112C140.279 97.6187 140.5 97.0863 140.5 96.5311V92.3436C140.5 91.7884 140.279 91.256 139.886 90.8635C139.494 90.4709 138.961 90.2502 138.406 90.2498H75.5937C75.0386 90.2502 74.5062 90.4709 74.1136 90.8635C73.721 91.256 73.5003 91.7884 73.5 92.3436V96.5311C73.5003 97.0863 73.721 97.6187 74.1136 98.0112C74.5062 98.4038 75.0386 98.6245 75.5937 98.6248ZM92.3437 132.125C92.3441 132.68 92.5648 133.212 92.9574 133.605C93.3499 133.998 93.8823 134.218 94.4375 134.219H127.937C128.493 134.218 129.025 133.998 129.418 133.605C129.81 133.212 130.031 132.68 130.031 132.125V130.031C130.031 129.476 129.81 128.944 129.418 128.551C129.025 128.158 128.493 127.938 127.937 127.937H94.4375C93.8823 127.938 93.3499 128.158 92.9574 128.551C92.5648 128.944 92.3441 129.476 92.3437 130.031V132.125ZM119.562 123.75C120.118 123.75 120.65 123.529 121.043 123.136C121.435 122.744 121.656 122.211 121.656 121.656V119.562C121.656 119.007 121.435 118.475 121.043 118.082C120.65 117.69 120.118 117.469 119.562 117.469H86.0625C85.5073 117.469 84.9749 117.69 84.5824 118.082C84.1898 118.475 83.9691 119.007 83.9687 119.562V121.656C83.9691 122.211 84.1898 122.744 84.5824 123.136C84.9749 123.529 85.5073 123.75 86.0625 123.75H119.562ZM86.0625 138.406C85.5073 138.406 84.9749 138.627 84.5824 139.02C84.1898 139.412 83.9691 139.945 83.9687 140.5V142.594C83.9691 143.149 84.1898 143.681 84.5824 144.074C84.9749 144.466 85.5073 144.687 86.0625 144.687H119.562C120.118 144.687 120.65 144.466 121.043 144.074C121.435 143.681 121.656 143.149 121.656 142.594V140.5C121.656 139.945 121.435 139.412 121.043 139.02C120.65 138.627 120.118 138.406 119.562 138.406H86.0625ZM125.844 161.437C125.843 160.882 125.623 160.35 125.23 159.957C124.838 159.565 124.305 159.344 123.75 159.344H90.25C89.6948 159.344 89.1624 159.565 88.7699 159.957C88.3773 160.35 88.1566 160.882 88.1562 161.437V163.531C88.1566 164.086 88.3773 164.619 88.7699 165.011C89.1624 165.404 89.6948 165.625 90.25 165.625H123.75C124.305 165.625 124.838 165.404 125.23 165.011C125.623 164.619 125.843 164.086 125.844 163.531V161.437ZM125.844 150.969C125.843 150.413 125.623 149.881 125.23 149.488C124.838 149.096 124.305 148.875 123.75 148.875H90.25C89.6948 148.875 89.1624 149.096 88.7699 149.488C88.3773 149.881 88.1566 150.413 88.1562 150.969V153.062C88.1566 153.618 88.3773 154.15 88.7699 154.542C89.1624 154.935 89.6948 155.156 90.25 155.156H123.75C124.305 155.156 124.838 154.935 125.23 154.542C125.623 154.15 125.843 153.618 125.844 153.062V150.969ZM144.687 125.844C144.687 119.808 142.066 117.24 139.292 114.52C136.797 112.077 134.219 109.55 134.219 104.906V102.812H79.7812V104.906C79.7812 109.55 77.203 112.077 74.7083 114.52C71.9339 117.24 69.3125 119.808 69.3125 125.844V155.156C69.3158 157.932 70.4198 160.592 72.3823 162.555C74.3449 164.518 77.0058 165.622 79.7812 165.625H84.3546C84.1064 164.954 83.9759 164.246 83.9687 163.531V161.437C83.9734 159.887 84.5556 158.394 85.6019 157.25C84.5556 156.106 83.9734 154.613 83.9687 153.062V150.969C83.9708 150.168 84.1272 149.374 84.4294 148.633C83.0991 148.276 81.9232 147.491 81.0831 146.4C80.2431 145.308 79.7856 143.971 79.7812 142.594V140.5C79.7831 138.835 80.4454 137.238 81.623 136.06C82.8006 134.883 84.3972 134.22 86.0625 134.219H88.5421C88.2939 133.548 88.1634 132.84 88.1562 132.125V130.031C88.1633 129.316 88.2938 128.608 88.5421 127.937H86.0625C84.3972 127.936 82.8006 127.273 81.623 126.096C80.4454 124.918 79.7831 123.321 79.7812 121.656V119.562C79.7831 117.897 80.4454 116.3 81.623 115.123C82.8006 113.945 84.3972 113.283 86.0625 113.281H119.562C121.228 113.283 122.824 113.945 124.002 115.123C125.18 116.3 125.842 117.897 125.844 119.562V121.656C125.837 122.371 125.706 123.079 125.458 123.75H127.937C129.603 123.752 131.199 124.414 132.377 125.592C133.555 126.769 134.217 128.366 134.219 130.031V132.125C134.217 133.79 133.555 135.387 132.377 136.564C131.199 137.742 129.603 138.404 127.937 138.406H125.458C125.706 139.077 125.837 139.785 125.844 140.5V142.594C125.842 143.395 125.685 144.188 125.383 144.93C126.713 145.286 127.889 146.071 128.729 147.162C129.569 148.254 130.027 149.591 130.031 150.969V153.062C130.027 154.613 129.444 156.106 128.398 157.25C129.444 158.394 130.027 159.887 130.031 161.437V163.531C130.024 164.246 129.894 164.954 129.645 165.625H134.219C136.994 165.622 139.655 164.518 141.618 162.555C143.58 160.592 144.684 157.932 144.687 155.156V125.844Z" fill="#554992"/>
</svg>
