<svg width="214" height="214" viewBox="0 0 214 214" fill="none" xmlns="http://www.w3.org/2000/svg">
<path fill-rule="evenodd" clip-rule="evenodd" d="M212.264 157.219C211.836 159.596 211.29 161.974 210.624 164.352C209.958 166.682 209.221 169.036 208.413 171.414C207.557 173.744 206.606 176.051 205.56 178.333C204.561 180.568 203.444 182.78 202.208 184.967C201.019 187.107 199.735 189.176 198.356 191.173C197.025 193.218 195.574 195.144 194.005 196.951C192.484 198.758 190.867 200.447 189.155 202.016C187.491 203.585 185.731 205.012 183.877 206.296C182.022 207.628 180.097 208.769 178.1 209.72C176.102 210.719 174.034 211.527 171.894 212.145C169.754 212.811 167.567 213.287 165.332 213.572C163.097 213.857 160.839 214 158.556 214C156.226 214 153.896 213.834 151.566 213.501C149.237 213.215 146.907 212.764 144.577 212.145C142.247 211.575 139.94 210.861 137.658 210.005C135.376 209.197 133.117 208.27 130.882 207.223C128.647 206.13 126.484 204.941 124.392 203.657C122.299 202.42 120.278 201.065 118.329 199.591C116.379 198.116 114.501 196.571 112.694 194.954C110.935 193.337 109.271 191.649 107.701 189.889C106.132 188.13 104.658 186.299 103.279 184.397C101.853 182.494 100.498 180.568 99.2136 178.619C97.9773 176.621 96.741 174.6 95.5047 172.555C94.316 170.51 93.1272 168.442 91.9384 166.349C90.7497 164.257 89.5609 162.164 88.3722 160.072C87.1359 157.98 85.8758 155.887 84.5919 153.795C83.3081 151.702 81.9529 149.634 80.5264 147.589C79.0999 145.544 77.602 143.523 76.0329 141.525C74.4637 139.528 72.7519 137.578 70.8975 135.676C69.0905 133.774 67.1648 131.919 65.1201 130.112C63.0279 128.305 60.8406 126.545 58.5582 124.833C56.3233 123.121 53.9933 121.433 51.5683 119.769C49.1432 118.104 46.6944 116.464 44.2218 114.847C41.7967 113.23 39.3479 111.613 36.8752 109.996C34.4026 108.379 31.9776 106.762 29.6 105.145C27.2701 103.481 24.9877 101.816 22.7528 100.152C20.5179 98.44 18.402 96.7042 16.4048 94.9447C14.4077 93.1851 12.577 91.3542 10.9128 89.452C9.20098 87.5973 7.67937 85.6713 6.34796 83.674C5.01655 81.6291 3.89912 79.5367 2.99567 77.3967C2.09221 75.2567 1.40273 73.0453 0.92723 70.7627C0.451728 68.48 0.166426 66.1736 0.0713254 63.8433C-0.0713254 61.4656 0 59.0878 0.285302 56.71C0.570603 54.3322 0.998556 51.9544 1.56916 49.5767C2.18731 47.2464 2.97189 44.9162 3.9229 42.586C4.82635 40.2558 5.89623 37.9731 7.13254 35.738C8.3213 33.5029 9.65271 31.3629 11.1268 29.318C12.6484 27.2256 14.2651 25.2282 15.9769 23.326C17.6887 21.3762 19.5194 19.5691 21.4689 17.9047C23.4185 16.2402 25.4632 14.6947 27.6029 13.268C29.6951 11.8413 31.9062 10.5336 34.2362 9.34467C36.5186 8.15578 38.8723 7.08578 41.2974 6.13467C43.7225 5.23111 46.1713 4.42267 48.6439 3.70933C51.1641 2.996 53.708 2.37778 56.2757 1.85467C58.891 1.37911 61.4825 0.998667 64.0502 0.713333C66.6655 0.380444 69.2807 0.166444 71.896 0.0713333C74.5113 -0.0237778 77.1028 -0.0237778 79.6705 0.0713333C82.2382 0.118889 84.7584 0.261556 87.231 0.499333C89.7511 0.737111 92.2 1.04622 94.5775 1.42667C97.0026 1.80711 99.3563 2.28267 101.639 2.85333C103.921 3.37644 106.132 3.94711 108.272 4.56533C110.459 5.18356 112.575 5.87311 114.62 6.634C116.712 7.34733 118.733 8.10822 120.683 8.91667C122.68 9.67756 124.653 10.486 126.603 11.342C128.505 12.1504 130.407 12.9589 132.309 13.7673C134.211 14.6233 136.089 15.4556 137.943 16.264C139.798 17.0724 141.652 17.8571 143.507 18.618C145.361 19.4264 147.216 20.1873 149.07 20.9007C150.972 21.5664 152.874 22.2084 154.776 22.8267C156.678 23.4449 158.58 24.0156 160.482 24.5387C162.432 25.0142 164.381 25.466 166.331 25.894C168.328 26.2744 170.278 26.6549 172.18 27.0353C174.129 27.3682 176.055 27.7011 177.957 28.034C179.859 28.3669 181.713 28.7236 183.52 29.104C185.327 29.4369 187.087 29.7936 188.798 30.174C190.51 30.5544 192.127 30.9824 193.648 31.458C195.218 31.886 196.692 32.3853 198.071 32.956C199.45 33.5267 200.733 34.1687 201.922 34.882C203.111 35.5953 204.181 36.4038 205.132 37.3073C206.035 38.1633 206.844 39.1382 207.557 40.232C208.223 41.3258 208.769 42.5147 209.197 43.7987C209.625 45.0351 209.982 46.3667 210.267 47.7933C210.505 49.22 210.671 50.7418 210.767 52.3587C210.862 53.928 210.909 55.5687 210.909 57.2807C210.862 58.9927 210.79 60.7522 210.695 62.5593C210.6 64.3664 210.505 66.2211 210.41 68.1233C210.267 70.0256 210.125 71.9516 209.982 73.9013C209.839 75.8511 209.744 77.8484 209.697 79.8933C209.602 81.8907 209.554 83.9118 209.554 85.9567C209.554 88.0015 209.602 90.0464 209.697 92.0913C209.792 94.1362 209.934 96.1811 210.125 98.226C210.315 100.318 210.529 102.387 210.767 104.432C211.052 106.524 211.313 108.617 211.551 110.709C211.836 112.802 212.098 114.918 212.336 117.058C212.621 119.15 212.883 121.29 213.12 123.478C213.311 125.618 213.501 127.782 213.691 129.969C213.834 132.157 213.929 134.368 213.976 136.603C214.024 138.838 214 141.074 213.905 143.309C213.81 145.591 213.62 147.898 213.334 150.228C213.097 152.511 212.74 154.841 212.264 157.219Z" fill="#F4F4F4"/>
<path d="M65.4167 73.8857C64.5797 73.8857 63.7769 74.2183 63.1849 74.8102C62.593 75.4021 62.2605 76.2049 62.2605 77.042V144.375C62.2605 146.118 63.6745 147.532 65.4167 147.532H149.583C150.421 147.532 151.223 147.199 151.815 146.607C152.407 146.015 152.74 145.212 152.74 144.375V77.042C152.74 76.2049 152.407 75.4021 151.815 74.8102C151.223 74.2183 150.421 73.8857 149.583 73.8857H65.4167Z" fill="white"/>
<path d="M65.4167 73.8857C64.5797 73.8857 63.7769 74.2183 63.1849 74.8102C62.593 75.4021 62.2605 76.2049 62.2605 77.042V98.0837C62.2605 99.8259 63.6745 101.24 65.4167 101.24H149.583C150.421 101.24 151.223 100.907 151.815 100.315C152.407 99.7236 152.74 98.9207 152.74 98.0837V77.042C152.74 76.2049 152.407 75.4021 151.815 74.8102C151.223 74.2183 150.421 73.8857 149.583 73.8857H65.4167Z" fill="#EE4D4D"/>
<path fill-rule="evenodd" clip-rule="evenodd" d="M78.0417 65.4688C78.8788 65.4688 79.6816 65.8013 80.2736 66.3932C80.8655 66.9851 81.198 67.7879 81.198 68.625V83.3542C81.198 84.1913 80.8655 84.9941 80.2736 85.586C79.6816 86.1779 78.8788 86.5104 78.0417 86.5104C77.2047 86.5104 76.4019 86.1779 75.8099 85.586C75.218 84.9941 74.8855 84.1913 74.8855 83.3542V68.625C74.8855 67.7879 75.218 66.9851 75.8099 66.3932C76.4019 65.8013 77.2047 65.4688 78.0417 65.4688ZM107.5 65.4688C108.337 65.4688 109.14 65.8013 109.732 66.3932C110.324 66.9851 110.656 67.7879 110.656 68.625V83.3542C110.656 84.1913 110.324 84.9941 109.732 85.586C109.14 86.1779 108.337 86.5104 107.5 86.5104C106.663 86.5104 105.86 86.1779 105.268 85.586C104.676 84.9941 104.344 84.1913 104.344 83.3542V68.625C104.344 67.7879 104.676 66.9851 105.268 66.3932C105.86 65.8013 106.663 65.4688 107.5 65.4688ZM136.958 65.4688C137.796 65.4688 138.598 65.8013 139.19 66.3932C139.782 66.9851 140.115 67.7879 140.115 68.625V83.3542C140.115 84.1913 139.782 84.9941 139.19 85.586C138.598 86.1779 137.796 86.5104 136.958 86.5104C136.121 86.5104 135.319 86.1779 134.727 85.586C134.135 84.9941 133.802 84.1913 133.802 83.3542V68.625C133.802 67.7879 134.135 66.9851 134.727 66.3932C135.319 65.8013 136.121 65.4688 136.958 65.4688Z" fill="#ECEFF1"/>
<path fill-rule="evenodd" clip-rule="evenodd" d="M91.7188 108.604C91.7188 107.767 92.0513 106.965 92.6432 106.373C93.2351 105.781 94.0379 105.448 94.875 105.448H103.292C107.357 105.448 110.656 108.748 110.656 112.813V121.229C110.656 122.067 110.324 122.869 109.732 123.461C109.14 124.053 108.337 124.386 107.5 124.386H94.875C94.0379 124.386 93.2351 124.053 92.6432 123.461C92.0513 122.869 91.7188 122.067 91.7188 121.229C91.7188 120.392 92.0513 119.59 92.6432 118.998C93.2351 118.406 94.0379 118.073 94.875 118.073H104.344V112.813C104.344 112.534 104.233 112.266 104.036 112.069C103.838 111.872 103.571 111.761 103.292 111.761H94.875C94.0379 111.761 93.2351 111.428 92.6432 110.836C92.0513 110.244 91.7188 109.442 91.7188 108.604Z" fill="#8B98A6"/>
<path fill-rule="evenodd" clip-rule="evenodd" d="M91.7188 121.229C91.7188 120.392 92.0513 119.59 92.6432 118.998C93.2351 118.406 94.0379 118.073 94.875 118.073H107.5C108.337 118.073 109.14 118.406 109.732 118.998C110.324 119.59 110.656 120.392 110.656 121.229V129.646C110.656 131.599 109.88 133.473 108.499 134.854C107.118 136.235 105.245 137.011 103.292 137.011H94.875C94.0379 137.011 93.2351 136.678 92.6432 136.086C92.0513 135.494 91.7188 134.692 91.7188 133.854C91.7188 133.017 92.0513 132.215 92.6432 131.623C93.2351 131.031 94.0379 130.698 94.875 130.698H103.292C103.571 130.698 103.838 130.587 104.036 130.39C104.233 130.193 104.344 129.925 104.344 129.646V124.386H94.875C94.0379 124.386 93.2351 124.053 92.6432 123.461C92.0513 122.869 91.7188 122.067 91.7188 121.229ZM120.125 105.448C120.962 105.448 121.765 105.781 122.357 106.373C122.949 106.965 123.281 107.767 123.281 108.604V133.854C123.281 134.692 122.949 135.494 122.357 136.086C121.765 136.678 120.962 137.011 120.125 137.011C119.288 137.011 118.485 136.678 117.893 136.086C117.301 135.494 116.969 134.692 116.969 133.854V108.604C116.969 107.767 117.301 106.965 117.893 106.373C118.485 105.781 119.288 105.448 120.125 105.448Z" fill="#8B98A6"/>
<path fill-rule="evenodd" clip-rule="evenodd" d="M62.2605 77.042C62.2605 76.2049 62.593 75.4021 63.1849 74.8102C63.7769 74.2183 64.5797 73.8857 65.4167 73.8857H149.583C150.421 73.8857 151.223 74.2183 151.815 74.8102C152.407 75.4021 152.74 76.2049 152.74 77.042V144.375C152.74 145.212 152.407 146.015 151.815 146.607C151.223 147.199 150.421 147.532 149.583 147.532H65.4167C64.5797 147.532 63.7769 147.199 63.1849 146.607C62.593 146.015 62.2605 145.212 62.2605 144.375V77.042ZM68.573 80.1982V141.219H146.427V80.1982H68.573Z" fill="#554992"/>
<path fill-rule="evenodd" clip-rule="evenodd" d="M62.2605 77.042C62.2605 76.2049 62.593 75.4021 63.1849 74.8102C63.7769 74.2183 64.5797 73.8857 65.4167 73.8857H149.583C150.421 73.8857 151.223 74.2183 151.815 74.8102C152.407 75.4021 152.74 76.2049 152.74 77.042V98.0837C152.74 98.9207 152.407 99.7236 151.815 100.315C151.223 100.907 150.421 101.24 149.583 101.24H136.958C136.121 101.24 135.319 100.907 134.727 100.315C134.135 99.7236 133.802 98.9207 133.802 98.0837C133.802 97.2466 134.135 96.4438 134.727 95.8519C135.319 95.2599 136.121 94.9274 136.958 94.9274H146.427V80.1982H68.573V94.9274H120.125C120.962 94.9274 121.765 95.2599 122.357 95.8519C122.949 96.4438 123.281 97.2466 123.281 98.0837C123.281 98.9207 122.949 99.7236 122.357 100.315C121.765 100.907 120.962 101.24 120.125 101.24H65.4167C64.5797 101.24 63.7769 100.907 63.1849 100.315C62.593 99.7236 62.2605 98.9207 62.2605 98.0837V77.042Z" fill="#554992"/>
<path fill-rule="evenodd" clip-rule="evenodd" d="M78.0417 65.4688C78.8788 65.4688 79.6816 65.8013 80.2736 66.3932C80.8655 66.9851 81.198 67.7879 81.198 68.625V83.3542C81.198 84.1913 80.8655 84.9941 80.2736 85.586C79.6816 86.1779 78.8788 86.5104 78.0417 86.5104C77.2047 86.5104 76.4019 86.1779 75.8099 85.586C75.218 84.9941 74.8855 84.1913 74.8855 83.3542V68.625C74.8855 67.7879 75.218 66.9851 75.8099 66.3932C76.4019 65.8013 77.2047 65.4688 78.0417 65.4688ZM107.5 65.4688C108.337 65.4688 109.14 65.8013 109.732 66.3932C110.324 66.9851 110.656 67.7879 110.656 68.625V83.3542C110.656 84.1913 110.324 84.9941 109.732 85.586C109.14 86.1779 108.337 86.5104 107.5 86.5104C106.663 86.5104 105.86 86.1779 105.268 85.586C104.676 84.9941 104.344 84.1913 104.344 83.3542V68.625C104.344 67.7879 104.676 66.9851 105.268 66.3932C105.86 65.8013 106.663 65.4688 107.5 65.4688ZM136.958 65.4688C137.796 65.4688 138.598 65.8013 139.19 66.3932C139.782 66.9851 140.115 67.7879 140.115 68.625V83.3542C140.115 84.1913 139.782 84.9941 139.19 85.586C138.598 86.1779 137.796 86.5104 136.958 86.5104C136.121 86.5104 135.319 86.1779 134.727 85.586C134.135 84.9941 133.802 84.1913 133.802 83.3542V68.625C133.802 67.7879 134.135 66.9851 134.727 66.3932C135.319 65.8013 136.121 65.4688 136.958 65.4688ZM91.7188 108.604C91.7188 107.767 92.0514 106.964 92.6433 106.372C93.2352 105.78 94.038 105.448 94.8751 105.448H103.292C107.357 105.448 110.656 108.747 110.656 112.812V121.229C110.656 122.066 110.324 122.869 109.732 123.461C109.14 124.053 108.337 124.385 107.5 124.385H94.8751C94.038 124.385 93.2352 124.053 92.6433 123.461C92.0514 122.869 91.7188 122.066 91.7188 121.229C91.7188 120.392 92.0514 119.589 92.6433 118.997C93.2352 118.405 94.038 118.073 94.8751 118.073H104.344V112.812C104.344 112.533 104.233 112.266 104.036 112.069C103.838 111.871 103.571 111.76 103.292 111.76H94.8751C94.038 111.76 93.2352 111.428 92.6433 110.836C92.0514 110.244 91.7188 109.441 91.7188 108.604Z" fill="#554992"/>
<path fill-rule="evenodd" clip-rule="evenodd" d="M91.7188 121.229C91.7188 120.392 92.0513 119.59 92.6432 118.998C93.2351 118.406 94.0379 118.073 94.875 118.073H107.5C108.337 118.073 109.14 118.406 109.732 118.998C110.324 119.59 110.656 120.392 110.656 121.229V129.646C110.656 131.599 109.88 133.473 108.499 134.854C107.118 136.235 105.245 137.011 103.292 137.011H94.875C94.0379 137.011 93.2351 136.678 92.6432 136.086C92.0513 135.494 91.7188 134.692 91.7188 133.854C91.7188 133.017 92.0513 132.215 92.6432 131.623C93.2351 131.031 94.0379 130.698 94.875 130.698H103.292C103.571 130.698 103.838 130.587 104.036 130.39C104.233 130.193 104.344 129.925 104.344 129.646V124.386H94.875C94.0379 124.386 93.2351 124.053 92.6432 123.461C92.0513 122.869 91.7188 122.067 91.7188 121.229ZM120.125 105.448C120.962 105.448 121.765 105.781 122.357 106.373C122.949 106.965 123.281 107.767 123.281 108.604V133.854C123.281 134.692 122.949 135.494 122.357 136.086C121.765 136.678 120.962 137.011 120.125 137.011C119.288 137.011 118.485 136.678 117.893 136.086C117.301 135.494 116.969 134.692 116.969 133.854V108.604C116.969 107.767 117.301 106.965 117.893 106.373C118.485 105.781 119.288 105.448 120.125 105.448Z" fill="#554992"/>
</svg>
