<svg width="214" height="214" viewBox="0 0 214 214" fill="none" xmlns="http://www.w3.org/2000/svg">
<path fill-rule="evenodd" clip-rule="evenodd" d="M172.615 164.138C170.618 165.184 168.549 166.135 166.41 166.991C164.317 167.895 162.154 168.703 159.919 169.417C157.731 170.13 155.52 170.82 153.285 171.485C151.003 172.104 148.696 172.722 146.366 173.34C144.036 173.911 141.682 174.481 139.305 175.052C136.927 175.67 134.549 176.288 132.172 176.907C129.747 177.525 127.322 178.191 124.896 178.904C122.471 179.617 120.046 180.402 117.621 181.258C115.196 182.066 112.77 182.994 110.345 184.04C107.968 185.039 105.566 186.156 103.141 187.393C100.764 188.582 98.3859 189.866 96.0083 191.245C93.6307 192.576 91.3006 193.955 89.0181 195.382C86.688 196.809 84.4055 198.235 82.1705 199.662C79.9831 201.041 77.8195 202.396 75.6796 203.728C73.5398 205.06 71.4712 206.296 69.474 207.437C67.4293 208.579 65.4796 209.601 63.6251 210.505C61.723 211.408 59.916 212.145 58.2041 212.716C56.4922 213.334 54.8517 213.738 53.2824 213.929C51.7608 214.071 50.3104 214 48.9314 213.715C47.5999 213.429 46.3636 212.882 45.2223 212.074C44.0811 211.218 43.0111 210.148 42.0125 208.864C41.0615 207.532 40.1818 206.011 39.3734 204.299C38.5174 202.634 37.7328 200.78 37.0195 198.735C36.3538 196.69 35.7118 194.526 35.0937 192.243C34.4755 189.961 33.8811 187.607 33.3104 185.181C32.7398 182.708 32.1692 180.212 31.5986 177.691C31.0279 175.123 30.4573 172.555 29.8867 169.987C29.3636 167.467 28.793 164.946 28.1748 162.426C27.5566 159.906 26.8909 157.48 26.1776 155.15C25.5119 152.772 24.7748 150.49 23.9664 148.302C23.2056 146.162 22.3734 144.093 21.4699 142.096C20.614 140.146 19.7105 138.244 18.7594 136.389C17.8559 134.582 16.9286 132.846 15.9776 131.182C15.0266 129.47 14.0755 127.829 13.1245 126.26C12.221 124.691 11.3175 123.145 10.414 121.623C9.51048 120.149 8.63076 118.699 7.77482 117.272C6.91887 115.798 6.13426 114.371 5.42097 112.992C4.66013 111.565 3.97062 110.139 3.35244 108.712C2.73426 107.285 2.21119 105.859 1.78321 104.432C1.30769 103.005 0.927272 101.555 0.641957 100.081C0.356643 98.5589 0.166433 97.0609 0.0713286 95.5867C-0.0237762 94.0649 -0.0237762 92.5431 0.0713286 91.0213C0.118881 89.4995 0.261538 87.9778 0.4993 86.456C0.737062 84.9818 1.06993 83.5076 1.4979 82.0333C1.87832 80.5591 2.35384 79.1087 2.92447 77.682C3.4951 76.2553 4.13706 74.8762 4.85034 73.5447C5.56363 72.2131 6.34824 70.9291 7.20419 69.6927C8.10768 68.4562 9.05873 67.2911 10.0573 66.1973C11.0559 65.056 12.1259 64.0098 13.2671 63.0587C14.4084 62.1076 15.621 61.2278 16.9049 60.4193C18.1412 59.6109 19.4727 58.85 20.8993 58.1367C22.2783 57.4709 23.7049 56.8527 25.179 56.282C26.7007 55.6638 28.2461 55.0931 29.8153 54.57C31.4321 53.9993 33.0727 53.4524 34.737 52.9293C36.4014 52.4062 38.1132 51.8593 39.8727 51.2887C41.5846 50.718 43.344 50.1236 45.151 49.5053C46.958 48.8871 48.7887 48.2213 50.6433 47.508C52.4978 46.7471 54.3762 45.9387 56.2783 45.0827C58.1328 44.1791 60.0111 43.2042 61.9132 42.158C63.8629 41.1118 65.7887 39.9467 67.6908 38.6627C69.5929 37.4262 71.5188 36.0947 73.4684 34.668C75.4181 33.2413 77.3677 31.7433 79.3174 30.174C81.267 28.6522 83.2405 27.1067 85.2377 25.5373C87.2349 23.9204 89.2321 22.3273 91.2293 20.758C93.274 19.1887 95.3188 17.6431 97.3635 16.1213C99.4083 14.5996 101.477 13.1491 103.569 11.77C105.709 10.3909 107.849 9.08311 109.989 7.84667C112.129 6.61022 114.316 5.51644 116.551 4.56533C118.738 3.56667 120.973 2.73444 123.256 2.06867C125.538 1.40289 127.845 0.879778 130.175 0.499333C132.505 0.166444 134.859 0 137.236 0C139.614 0 141.991 0.142667 144.369 0.428C146.794 0.713333 149.196 1.16511 151.573 1.78333C153.951 2.354 156.305 3.09111 158.635 3.99467C161.012 4.85067 163.342 5.82556 165.625 6.91933C167.907 8.06067 170.142 9.32089 172.33 10.7C174.517 12.0316 176.633 13.482 178.678 15.0513C180.77 16.6207 182.791 18.2851 184.741 20.0447C186.691 21.8042 188.545 23.6589 190.305 25.6087C192.064 27.5584 193.728 29.5796 195.298 31.672C196.867 33.7644 198.341 35.9282 199.72 38.1633C201.147 40.3984 202.431 42.7049 203.572 45.0827C204.761 47.4129 205.854 49.7907 206.853 52.216C207.851 54.6889 208.731 57.1856 209.492 59.706C210.3 62.2264 210.99 64.7707 211.561 67.3387C212.131 69.9067 212.607 72.4747 212.987 75.0427C213.368 77.6582 213.629 80.2738 213.772 82.8893C213.962 85.5049 214.033 88.1204 213.986 90.736C213.938 93.3515 213.796 95.9433 213.558 98.5113C213.272 101.079 212.892 103.624 212.417 106.144C211.989 108.664 211.442 111.161 210.776 113.634C210.11 116.107 209.349 118.532 208.493 120.91C207.637 123.24 206.686 125.547 205.64 127.829C204.594 130.112 203.453 132.323 202.217 134.463C201.028 136.603 199.744 138.672 198.365 140.669C196.986 142.714 195.535 144.64 194.014 146.447C192.492 148.302 190.899 150.085 189.235 151.797C187.57 153.462 185.859 155.031 184.099 156.505C182.292 157.98 180.438 159.359 178.535 160.643C176.633 161.927 174.66 163.092 172.615 164.138Z" fill="#F4F4F4"/>
<g clip-path="url(#clip0_4194_13015)">
<path d="M159.562 73.75C159.082 72.1681 157.877 68.9712 154.922 66.0156C153.752 64.8462 151.187 62.5919 147.188 61.375C148.769 60.8944 151.966 59.6899 154.922 56.7344C157.877 53.7788 159.082 50.5819 159.562 49C160.043 50.5819 161.248 53.7788 164.203 56.7344C165.373 57.9038 167.938 60.1581 171.938 61.375C170.356 61.8556 167.159 63.0601 164.203 66.0156C161.248 68.9712 160.043 72.1681 159.562 73.75ZM56.4375 73.75C55.9569 72.1681 54.7524 68.9712 51.7969 66.0156C50.6274 64.8462 48.0617 62.5919 44.0625 61.375C45.6444 60.8944 48.8413 59.6899 51.7969 56.7344C54.7524 53.7788 55.9569 50.5819 56.4375 49C56.9181 50.5819 58.1226 53.7788 61.0781 56.7344C62.2476 57.9038 64.8133 60.1581 68.8125 61.375C67.2306 61.8556 64.0337 63.0601 61.0781 66.0156C58.1226 68.9712 56.9181 72.1681 56.4375 73.75Z" fill="#90F494"/>
<path d="M138.938 67.5625H77.0625L89.4375 51.0625H126.562L138.938 67.5625Z" fill="#C5CAE9"/>
<path d="M126.562 51.0625L108 67.5625L89.4375 51.0625H126.562Z" fill="#EDE7F6"/>
<path d="M138.938 67.5625L113.692 99.5519L108 106.75L77.0625 67.5625H138.938Z" fill="#7285E6"/>
<path d="M113.217 141.812L112.248 125.251C112.05 125.011 110.542 123.25 107.999 123.25C105.456 123.25 103.949 125.011 103.751 125.251C103.427 130.772 103.105 136.291 102.781 141.812" fill="#EDE7F6"/>
<path d="M143.062 156.25V170.688C143.062 175.246 139.371 178.938 134.812 178.938H81.1875C76.6294 178.938 72.9375 175.246 72.9375 170.688V156.25H143.062Z" fill="#FFCA5F"/>
<path d="M108.001 123.311C106.722 124.033 98.9255 128.22 88.943 127.519C85.9524 127.312 82.7555 126.652 79.4968 125.332C71.7005 122.197 66.8124 116.649 63.8011 111.431C60.3155 105.409 65.1005 98.0248 71.9274 98.9735C72.9174 99.1179 73.9486 99.2829 75.0211 99.4892C78.3211 100.17 81.9099 101.242 85.6018 102.934C99.0699 109.059 105.773 119.454 108.001 123.311Z" fill="#90F494"/>
<path d="M102.556 115.68C99.3999 112.937 95.4811 110.255 90.758 108.09C87.0661 106.399 83.4774 105.326 80.1774 104.645C79.1049 104.439 78.0736 104.274 77.0836 104.13C70.2568 103.181 65.4718 110.565 68.9574 116.587C69.803 118.052 70.793 119.537 71.948 120.98C68.318 118.114 65.6986 114.71 63.8011 111.431C60.3155 105.409 65.1005 98.0248 71.9274 98.9735C72.9174 99.1179 73.9486 99.2829 75.0211 99.4892C78.3211 100.17 81.9099 101.242 85.6018 102.934C93.3568 106.46 98.8636 111.39 102.556 115.68Z" fill="white"/>
<path d="M152.199 111.431C149.188 116.649 144.3 122.197 136.504 125.332C133.245 126.652 130.048 127.312 127.058 127.519C117.075 128.22 109.279 124.033 108 123.311C110.228 119.454 116.931 109.059 130.399 102.934C134.091 101.242 137.679 100.17 140.979 99.4892C142.052 99.2829 143.083 99.1179 144.073 98.9735C150.9 98.0248 155.685 105.409 152.199 111.431Z" fill="#90F494"/>
<path d="M149.25 149.031C149.25 151.011 148.446 152.826 147.126 154.126C145.826 155.446 144.011 156.25 142.031 156.25H73.9688C69.9881 156.25 66.75 153.012 66.75 149.031C66.75 147.051 67.5544 145.236 68.8744 143.937C70.1737 142.617 71.9887 141.812 73.9688 141.812H142.031C146.012 141.812 149.25 145.051 149.25 149.031Z" fill="#A572FE"/>
<path d="M149.25 149.031C149.25 151.011 148.446 152.826 147.126 154.126C145.826 155.446 144.011 156.25 142.031 156.25H108V141.812H142.031C146.012 141.812 149.25 145.051 149.25 149.031Z" fill="#7458FF"/>
<path d="M143.062 156.25H72.9375V166.562H143.062V156.25Z" fill="#FF845E"/>
<path d="M108 123.312C106.721 124.034 98.925 128.221 88.9425 127.52C80.5069 121.538 75 111.7 75 100.563C75 100.191 75 99.8409 75.0206 99.4902C78.3206 100.171 81.9094 101.243 85.6012 102.935C99.0694 109.06 105.772 119.455 108 123.312ZM141 100.563C141 111.7 135.493 121.538 127.058 127.52C117.075 128.221 109.279 124.034 108 123.312C110.228 119.455 116.931 109.06 130.399 102.935C134.091 101.243 137.679 100.171 140.979 99.4902C141 99.8409 141 100.191 141 100.563Z" fill="#0FB9A9"/>
<path d="M138.938 67.5625L108 106.75V67.5625H138.938Z" fill="#566CEC"/>
<path d="M110.062 104.688L108 106.75L77.0625 67.5625L89.4375 51.0625H101.812L85.3125 67.5625L110.062 104.688Z" fill="white"/>
<path d="M159.562 73.75C159.082 72.1681 157.877 68.9712 154.922 66.0156C153.752 64.8462 151.187 62.5919 147.188 61.375C148.769 60.8944 151.966 59.6899 154.922 56.7344C157.877 53.7788 159.082 50.5819 159.562 49C160.043 50.5819 161.248 53.7788 164.203 56.7344C165.373 57.9038 167.938 60.1581 171.938 61.375C170.356 61.8556 167.159 63.0601 164.203 66.0156C161.248 68.9712 160.043 72.1681 159.562 73.75ZM56.4375 73.75C55.9569 72.1681 54.7524 68.9712 51.7969 66.0156C50.6274 64.8462 48.0617 62.5919 44.0625 61.375C45.6444 60.8944 48.8413 59.6899 51.7969 56.7344C54.7524 53.7788 55.9569 50.5819 56.4375 49C56.9181 50.5819 58.1226 53.7788 61.0781 56.7344C62.2476 57.9038 64.8133 60.1581 68.8125 61.375C67.2306 61.8556 64.0337 63.0601 61.0781 66.0156C58.1226 68.9712 56.9181 72.1681 56.4375 73.75Z" fill="#FFE88F" stroke="#554992" stroke-width="4.125" stroke-linecap="round" stroke-linejoin="round"/>
<path d="M138.938 67.5625H77.0625L89.4375 51.0625H126.562L138.938 67.5625Z" stroke="#554992" stroke-width="4.125" stroke-linecap="round" stroke-linejoin="round"/>
<path d="M126.562 51.0625L108 67.5625L89.4375 51.0625H126.562Z" stroke="#554992" stroke-width="4.125" stroke-linecap="round" stroke-linejoin="round"/>
<path d="M77.0625 67.5625L108 106.75L138.938 67.5625H77.0625Z" stroke="#554992" stroke-width="4.125" stroke-linecap="round" stroke-linejoin="round"/>
<path d="M118.312 77.875L112.125 84.0625" stroke="#FAFAFA" stroke-width="4.125" stroke-linecap="round" stroke-linejoin="round"/>
<path d="M92.2238 117.732C86.6757 117.613 81.1873 115.567 76.918 112.023M123.776 117.732C129.324 117.613 134.812 115.567 139.082 112.023" stroke="white" stroke-width="4.125" stroke-linecap="round" stroke-linejoin="round"/>
<path d="M103.751 125.252L102.781 141.814" stroke="#554992" stroke-width="4.125" stroke-linecap="round" stroke-linejoin="round"/>
<path d="M113.217 141.814L112.248 125.252" stroke="#554992" stroke-width="4.125" stroke-linecap="round" stroke-linejoin="round"/>
<path d="M108.001 123.302C105.771 119.451 99.0724 109.058 85.6104 102.926C80.7326 100.705 76.0507 99.5355 71.9299 98.9684C65.0989 98.0279 60.3056 105.401 63.7933 111.426C66.8149 116.646 71.7009 122.204 79.5034 125.339C93.6851 131.036 106.326 124.238 108.001 123.302ZM108.001 123.302C110.23 119.451 116.929 109.058 130.391 102.926C135.269 100.705 139.951 99.5355 144.072 98.9684C150.903 98.0279 155.696 105.401 152.209 111.426C149.187 116.646 144.301 122.204 136.498 125.339C122.317 131.036 109.676 124.238 108.001 123.302ZM143.063 156.25V170.688C143.063 175.246 139.372 178.938 134.813 178.938H81.1884C76.6303 178.938 72.9384 175.246 72.9384 170.688V156.25H143.063ZM149.251 149.031C149.251 151.011 148.447 152.826 147.127 154.126C145.827 155.446 144.012 156.25 142.032 156.25H73.9697C69.989 156.25 66.7509 153.012 66.7509 149.031C66.7509 147.051 67.5553 145.236 68.8753 143.937C70.1747 142.617 71.9897 141.813 73.9697 141.813H142.032C146.013 141.813 149.251 145.051 149.251 149.031Z" stroke="#554992" stroke-width="4.125" stroke-linecap="round" stroke-linejoin="round"/>
<path d="M83.25 168.625H91.5" stroke="#554992" stroke-width="4.125" stroke-linecap="round" stroke-linejoin="round"/>
<path d="M103.875 168.625H112.125" stroke="#554992" stroke-width="4.125" stroke-linecap="round" stroke-linejoin="round"/>
<path d="M124.5 168.625H132.75" stroke="#554992" stroke-width="4.125" stroke-linecap="round" stroke-linejoin="round"/>
</g>
<defs>
<clipPath id="clip0_4194_13015">
<rect width="132" height="132" fill="white" transform="translate(42 49)"/>
</clipPath>
</defs>
</svg>
