<svg width="268" height="268" viewBox="0 0 268 268" fill="none" xmlns="http://www.w3.org/2000/svg">
<path d="M142.176 40.9364C188.614 47.9993 194.002 75.999 196.131 92.1908C198.929 113.47 192.749 128.271 186.5 147.999C186.5 147.999 189.447 138.319 186.193 127.202C185.222 123.885 183.04 121.511 179.842 120.444C165.213 115.565 156.322 104.867 149.279 92.2155C148.862 91.4668 148.589 90.6316 147.822 89.8262C146.609 91.1483 145.423 92.4064 144.276 93.6973C140.928 97.4637 137.646 101.29 133.517 104.302C130.144 106.762 126.402 108.383 122.243 109.065C122.037 109.099 121.827 109.124 121.619 109.133C121.541 109.136 121.46 109.084 121.326 109.039C120.997 108.106 121.183 107.113 121.166 106.139C121.135 104.367 121.169 102.594 121.149 100.822C121.144 100.354 121.349 99.7508 120.76 99.4966C120.277 99.2882 119.884 99.6865 119.512 99.9395C116.013 102.318 112.513 104.694 109.028 107.091C100.836 112.727 91.7711 116.758 82.7002 120.783C80.9156 121.575 78.9875 122.145 77.8536 123.961C77.288 124.867 76.7686 126.753 76.774 127.787C76.8208 129.365 76.774 133.791 76.774 135.999C76.9275 140.72 77.5123 142.371 78.0193 147.134C77.5257 147.465 74.2593 137.867 73.9443 137.729C68.0333 122.3 63.5315 109.59 66.4708 89.8256C68.4148 69.6545 95.7381 33.8736 142.176 40.9364Z" fill="#DCA57F"/>
<path d="M146.028 80L157 68C153.817 70 148.42 73.0359 146.634 74.5C142.366 78 132 93 132 93C132 93 141.76 83.8333 146.028 80Z" fill="#BB8C6C"/>
<path d="M187.5 142.5L190.263 128.879C190.921 123.851 190.855 120.314 189.276 119.147C187.519 117.847 170.513 111.918 166.456 109.947L165.599 109.414C165.653 109.521 165.956 109.704 166.456 109.947L178.917 117.687C179.903 118.498 187.302 122.261 187.302 124.986C187.302 127.711 187.829 136.174 187.5 142.5Z" fill="#BB8C6C"/>
<path d="M75.7211 142.505L72.7603 128.879C72.1026 123.851 72.1691 120.314 73.7475 119.147C75.5042 117.847 92.5102 111.918 96.5676 109.947L97.4248 109.414C97.3707 109.521 97.0674 109.704 96.5676 109.947L84.1066 117.687C83.1201 118.498 75.7211 122.261 75.7211 124.986C75.7211 127.711 75.3921 136.178 75.7211 142.505Z" fill="#BB8C6C"/>
</svg>
