<svg width="268" height="268" viewBox="0 0 268 268" fill="none" xmlns="http://www.w3.org/2000/svg">
<path d="M211.942 187.489C214.452 194.684 212.166 201.502 208.547 206.705C202.748 215.042 203.743 212.573 207.898 220.141C214.291 231.785 207.727 241.713 197.317 245.827C194.869 246.794 192.611 249.329 190 249C187.889 249.151 186.971 250.763 185.249 250.813C179.161 250.99 173.066 251.268 166.984 251.094C164.53 251.024 162.101 249.886 159.66 249.234C161.854 248.244 160.098 235.878 159.735 233.961C159.037 232.32 158.319 231.037 157.602 229.755C154.298 222.35 152.201 222.43 153 213.599C154.412 198 149.102 189.85 157.602 187.489C166.602 184.989 181.593 175.816 184 160C185 155.5 189.343 131.135 188.907 124C188.497 117.301 189.533 115.33 183.814 113.516C178 112.5 161.744 106.336 152.964 96.7841C149.986 93.5441 146.645 90.7184 143.47 87.7032C143.04 87.9194 142.609 88.1354 142.178 88.3515C142.354 90.0056 142.248 91.7778 142.759 93.2911C144.189 97.5264 145.873 101.655 147.422 105.858C147.386 105.89 147.318 105.959 146.995 105.909C139.303 99.9118 133.566 92.49 130.614 82.2856C117.125 101.115 106.097 108.227 84.9396 114.618C82.6678 115.305 80.2371 116.107 78.4174 117.645C76.9056 118.924 76.9736 121.703 77.3173 123.234C79.0393 130.903 79 152 80.5 160C82.9174 177 106.454 190.311 113.5 194.5C120.546 198.689 109.094 212.133 116.5 216C116.406 218.099 108.951 229.32 107.241 230.162C106.86 230.568 106.643 230.985 106.247 231.292C103.439 237.312 101.5 241 103.642 249.239C103.642 249.239 104.324 250.987 104 251C102.916 251.772 101.548 250.769 100.788 251.528C90.3905 257.362 64.4252 247.935 58.5691 238.028C55.6 233.006 54.712 227.777 57.6502 222.177C59.0682 219.474 60.0197 216.468 61.1833 213.599C63.298 208.386 62.9816 214.112 60.1217 209.23C53.646 198.175 53.0553 187.287 59.8196 175.672C65.6032 165.741 64.3204 124.146 63.7394 112.487C63.2211 102.087 65.0696 91.746 68.3567 81.6754C71.6544 71.5718 83.5 50.6529 99.1848 44.1193C108.417 40.2734 117.491 37.9214 127.132 39.8675C128.076 40.0579 129.171 39.3116 130.196 39C137.737 40.5394 144.812 43.2786 150.732 48.9378C165.038 40.6143 181.048 48.3207 193.053 67.4759C195.734 71.7537 197.424 76.8038 199.357 82.1468C200 86 199.794 86.988 200 88.5C200.724 93.8238 201.287 98.008 201.566 103.354C201.952 110.719 201.164 118.182 201.811 125.5C202.263 130.609 204.277 165.547 205.593 170.562C205.593 170.562 205.521 170.574 205.509 170.947C206.482 173.544 207.466 175.768 208.451 177.992C208.451 177.992 208.375 178.001 208.388 178.297C208.733 179.105 209.064 179.616 209.395 180.127C209.395 180.127 209.32 180.121 209.307 180.5C209.891 182.394 210.487 183.909 211.083 185.424C211.083 185.424 211.182 185.912 211.271 186.377C211.487 187.132 211.681 187.348 211.942 187.489Z" fill="#FAAA2C"/>
<path d="M78.4848 162.5L77 120C78.4931 129 81.0854 161.365 92.4197 171C98.8896 176.5 107.49 179.95 111.332 183C117 187.5 121.968 209 115.996 216.5C115.996 216.5 112.312 211.828 110.496 208.5C107.065 202.212 108.959 196.968 104.996 191C99.0254 182.01 87.4887 185.458 81.4706 176.5C77.9933 171.324 78.4848 162.5 78.4848 162.5Z" fill="#E79D28"/>
<path d="M187.832 160L189 120.5C187.507 129.5 185.107 159 175.496 168.5C169.457 174.469 162.605 178.892 157.971 180.5C144.996 185 147.334 206.5 153.306 214C153.306 214 156.99 209.328 158.806 206C162.238 199.712 160.343 194.467 164.306 188.5C170.277 179.51 177.978 184.958 183.996 176C187.474 170.824 187.832 160 187.832 160Z" fill="#E79D28"/>
<path d="M210.004 228L204.07 217C206.57 236 195.598 238 193.002 242.497C190.924 246.095 173.469 248.998 165.002 250C183.57 258.5 203.57 243.5 207.088 240.5C209.181 238.715 210.217 231.037 210.004 228Z" fill="#E79D28"/>
<path d="M58.0666 229L64 218C61.5 237 72.4722 239 75.0688 243.497C77.1461 247.095 94.601 249.998 103.069 251C84.5 259.5 64.5 244.5 60.9822 241.5C58.8897 239.715 57.8529 232.037 58.0666 229Z" fill="#E79D28"/>
</svg>
