<svg width="268" height="268" viewBox="0 0 268 268" fill="none" xmlns="http://www.w3.org/2000/svg">
<path d="M113.356 195.615C111.044 194.994 108.721 194.413 106.424 193.744C103.257 192.822 100.109 191.834 96.783 190.823C96.783 192.416 96.783 193.845 96.783 195.494C87.9385 194.553 77.2443 189.625 71.3072 180.491C70.0616 182.112 72.0882 187.668 70.9029 189.211C66.6066 187.719 63.6552 183.23 64.0324 178.243C65.411 160.021 64.8352 141.772 64.9074 123.533C64.9179 120.89 64.3769 118.25 64.2727 115.602C63.6024 98.5577 65.5116 86.6628 73 71.9996C98.8727 21.3382 188.738 31.9557 198.759 85.0451C199.64 88.2372 203.481 98.1966 204.272 104.791C205.122 111.888 205.785 120.245 204.272 127.27C203.544 145.777 205.395 158.27 204.099 176.195C204.335 180.874 202.408 184.636 198.837 187.629C196.9 189.625 197.513 188.463 196.696 187.634C195.684 186.608 194.498 185.751 193.247 184.705C191.138 187.692 188.377 189.786 185.054 191.098C183.191 191.834 181.267 192.414 179.382 193.093C175.813 194.379 172.252 195.686 168.645 197C169.099 194.443 173.545 192.556 174.065 189.625C169.178 191.694 160.503 192.845 155.729 194.737C156.091 194.373 156.511 194.106 156.939 193.854C162.93 190.322 167.636 184.51 173.608 180.948C183.66 174.951 183.238 168.688 184.569 154.916C183.941 149.954 185.946 143.552 185.193 138.608C185.089 130.774 183.537 121.766 184.975 114.045C164.018 110.159 158.994 102.41 154.087 85.5553C148.856 89.8657 143.807 94.1441 138.616 98.244C136.584 99.849 134.302 101.18 132.013 102.41C128.756 104.159 127.022 102.956 127.272 99.2333C127.598 94.385 127.986 89.5409 128.343 84.6947C128.365 84.3972 128.346 84.0967 128.346 83.4508C127.435 84.1742 126.575 84.6712 125.954 85.3769C116.151 96.5141 104.267 97.6543 91.4269 104.914C89.3657 106.079 87.426 107.612 85.7724 109.307C83.0267 112.122 82.8614 115.743 83.2655 119.447C83.4052 120.728 83.3037 122.035 83.3237 123.33C83.3514 125.129 83.3312 126.931 83.4361 128.725C83.6408 132.225 83.918 135.72 84.0612 139.434C83.1254 144.104 82.2507 148.55 81.4788 153.013C81.0638 155.412 80.5194 157.85 80.5838 160.256C80.6658 163.323 82.3001 165.561 82.7248 168.617C82.776 168.986 83.4137 169.68 83.6382 169.987C85.4664 172.485 87.2428 173.461 89.1186 175.924C90.4159 177.627 95.1034 179.294 96.783 180.491C100.563 183.184 105.203 185.442 109.213 187.798C112.401 189.671 110.111 193.838 113.356 195.615ZM153.54 77.9885C153.589 77.9951 153.638 78.0018 153.688 78.0084C153.667 77.9772 153.646 77.9461 153.54 77.9885Z" fill="#3255A4"/>
<path d="M184.674 127.514C184.879 128.519 185.265 136.739 185.338 137.869C185.586 141.701 185.551 145.564 186.032 149.365C186.715 154.761 185.661 163.647 185.055 168.931C184.612 172.78 178.718 178.067 176.436 181.1C175.937 181.764 175.265 182.363 174.551 182.789C168.578 186.352 159.909 192.365 159.909 192.365C158.709 193.156 158.082 193.735 155.937 194.845C153.972 195.562 151.695 196.932 151.695 191.9C151.937 188.543 151.122 183.31 154.746 181.636C161.969 178.298 170.653 170.487 175.54 164.05C179.303 159.093 181.385 151.906 182.391 145.782C183.03 141.888 184.217 132.537 184.674 127.514Z" fill="#38487A"/>
<path d="M113.455 195.641C110.112 193.839 106.598 188.301 103.41 186.428C99.3999 184.072 95.6393 182.727 91.8595 180.034C87.9581 177.255 85.5157 176.084 82.7254 172.27C82.5009 171.964 81.7701 169.803 81.7188 169.434C81.2942 166.378 80.6671 163.324 80.585 160.256C80.5207 157.851 80.6641 148.841 81.079 146.442C81.8509 141.978 82.7256 137.533 83.6388 132.994C84.0199 137.752 84.9466 149.295 85.2862 154.136C85.3477 155.012 85.8931 157.019 86.2116 157.837C88.1671 162.864 89.8578 166.535 94.2663 169.892C97.1108 172.059 100.264 173.859 103.41 175.584C108.901 178.595 121.547 181.405 114.599 195.416C114.183 195.519 113.891 195.672 113.455 195.641Z" fill="#38487A"/>
</svg>
