<svg width="268" height="268" viewBox="0 0 268 268" fill="none" xmlns="http://www.w3.org/2000/svg">
<path d="M103.5 182.5C101.48 180.66 102.519 181.639 100.439 180.071C99.4427 179.32 97.9589 179.157 96.6628 178.958C94.9908 178.701 93.7279 177.914 92.6284 176.619C89.2335 172.622 83.0466 171.25 79.9849 167C78.5243 164.973 80.5135 159.704 79.9849 157.117C79.6214 155.339 78.5305 141.913 79.4593 140C81.4182 145.464 84.8808 161.924 88.829 166.089C95.5 172.5 94.5 176 110 182.528C111.56 183.108 113.19 183.528 112.784 183.528C111.801 184.614 110 184.743 110 184.743C110 184.743 107.907 185.228 107.5 185C106.76 184.586 104.29 183.052 103.5 182.5Z" fill="#9093AB"/>
<path d="M164.751 183.528C166.771 181.688 164.325 183.639 166.406 182.071C167.402 181.32 168.886 181.157 170.182 180.958C171.854 180.701 173.117 179.914 174.216 178.619C177.611 174.622 183.798 173.25 186.86 169C188.32 166.973 186.331 161.704 186.86 159.117C187.223 157.339 186.429 142.413 185.5 140.5C184 153.5 180.941 162.336 176.993 166.5C170.301 173.558 167.993 177 154.276 183.512C152.716 184.092 152.635 183.767 153.751 185C154.734 186.086 156.29 184.426 157.535 185.215C157.847 185.413 162.844 184.728 163.251 184.5C163.991 184.086 163.96 184.08 164.751 183.528Z" fill="#9093AB"/>
<path d="M107.503 185C104.837 184.122 102.185 183.236 99.5623 182.241C97.8389 181.586 96.1965 181.288 94.3344 181.578C89.4029 182.346 86.4468 180.644 83.9128 175.858C83.3242 174.746 82.7575 173.616 82.0809 172.56C80.7869 170.54 79.5968 171.869 76.5173 170.439C68.334 161.083 69.5354 153.513 68.4914 141.847C67.9309 135.585 66.9009 129.365 66.0548 123.129C65.7502 120.885 65.2095 118.656 65.0972 116.404C64.277 99.9645 65 85 73.0019 72C91.5 37.0001 149.5 34 172.305 52.5749C177.836 56.3019 184.116 61.336 188.191 66.5805C195 77 197.5 84 200.318 91.1592C201.877 97.1605 203.293 103.249 202.952 109.466C202.671 114.581 201.709 119.667 200.903 124.742C199.504 133.551 197.98 136.306 196.503 145.101C196.341 146.065 196.091 153.048 195.876 153.985C195.876 169.849 185.395 167.929 184.978 171.597C184.802 173.153 184.361 174.73 183.753 176.176C182.01 180.321 178.101 182.766 173.695 182.227C171.415 181.948 169.397 182.49 167.332 183.132C163.65 184.276 163.003 185 161.003 185C162.987 183.194 160.407 183.157 162.298 181.288C163.727 179.876 165.519 180.203 167.503 180C169.764 179.769 171.22 177.412 172.717 175.645C180.937 165.944 185.607 167.584 184.838 153.116C185.085 148.084 185.317 143.051 185.586 138.02C185.706 135.779 185.94 133.544 186.049 131.303C186.309 125.993 186.729 120.679 186.662 115.373C186.633 113.169 186.443 110.96 185.725 108.799C185.576 108.349 184.03 107.914 183.515 107.783C177.647 105.098 177.077 104.366 175.503 100.5C173.503 97.0004 166.714 96.3391 166.003 96.3391C156.214 94.2107 158.62 87.2258 153.507 85.0839C152.932 84.843 151.503 86.0105 151.377 86.8314C151.003 90.556 146.513 96.2835 143.842 97.3784C139.533 99.1446 135.134 98.3089 131.055 96.3391C127.389 94.5691 122.503 89.0408 120.308 84.441C118.59 83.3436 119.469 84.0776 118.728 83.6234C118.247 85.1266 118.003 86.0105 117.331 87.6783C116.095 90.7435 115.226 94.7304 111.833 96.312C108.821 97.7158 106.038 98.6184 102.546 98.3257C100.988 98.1951 99.45 97.7982 97.9085 97.4933C94.9059 96.8993 94.177 97.1896 92.6606 99.8501C90.5357 103.578 87.5785 106.201 83.4073 107.383C81.4538 107.937 79.7682 110.428 79.7499 112.501C79.7345 114.258 79.8141 116.02 79.7072 117.771C79.6069 119.414 79.9287 123.671 80.016 125.292C80.4371 133.111 80.1554 138.311 80.6502 146.127C80.7884 148.31 80.827 150.501 80.7961 152.905C80.5336 156.908 79.7699 163.853 82.2329 167.195C85.3627 171.441 91.0031 170 93.6183 176.156C94.7422 177.45 96.0333 178.236 97.7425 178.493C99.0675 178.692 100.584 178.855 101.603 179.605C103.729 181.173 105.538 183.211 107.503 185Z" fill="#9C9FB7"/>
</svg>
