<svg width="268" height="268" viewBox="0 0 268 268" fill="none" xmlns="http://www.w3.org/2000/svg">
<path d="M118.922 98.3367C118.386 98.6549 117.865 99.0031 117.311 99.2865C113.5 101.237 109.665 103.142 105.87 105.124C99.5078 108.449 92.9286 111.258 86.1654 113.65C85.0332 114.051 83.9443 114.577 82.8435 115.063C79.7533 116.429 79.7289 116.452 79.3699 119.714C78.0781 131.449 80.9202 152.039 86.1654 161.997C90.1609 169.583 98.5773 174.938 107.777 178.41C113.555 181.708 114.84 184.702 114.555 186.983C114.073 190.827 113.658 190.816 112.629 193.71C101.5 185.179 96.5945 192.332 87.5744 192.374C82.0045 192.4 77.1247 190.609 73.3016 186.389C72.8879 185.932 72.5246 184.884 71.9885 185.179C71.3788 185.515 70.7002 187.652 70.1066 188.011C68.1877 189.172 66.2241 189.119 64.1666 188.43C58.9503 186.684 55.2869 183.164 52.7131 178.41C50.9286 175.114 50.1337 171.575 50.0199 167.814C49.8098 160.865 51.2615 154.322 54.3716 148.13C64.5351 127.895 61.779 106.513 67.992 85.7909C69.117 82.0387 70.8108 76.229 73.1107 73.106C78.8884 63.5051 80.3329 59.6612 97.9763 47.5972C109.964 42.0658 122.423 38.5141 135.712 39.0541C141.71 39.2978 147.671 40.054 153.341 42.0283C156.911 43.2713 160.243 44.2443 163.674 45.8847C174.664 51.1393 183.488 60.8639 190.795 70.3347C201.108 83.7026 203.232 103.664 204.281 119.688C204.667 125.599 204.404 131.519 206.229 137.203C209.025 145.912 213.335 155.332 214.426 164.425C215.362 172.23 213.614 181.135 207.838 186.742C204.877 189.616 201.251 191.337 197.22 192.157C195.164 192.574 192.998 190.346 192.865 187.618C192.741 187.227 192.653 186.825 192.538 186.389C190.811 186.525 189.643 189.507 188.587 190.674C181.201 198.828 165.205 188.791 156 193.684C155.686 193.725 155.41 192.924 155.321 192.693C150.259 179.566 158.943 181.611 167.48 175.931C171.331 174.49 178.571 166.518 180.961 163.439C183.806 159.773 186.863 150.12 187.239 145.782C189.16 134.522 188.25 133.467 188.5 122.33C188.548 120.207 187.572 118.485 186.016 117.061C183.868 115.098 181.524 113.352 179.306 111.464C176.097 108.731 172.873 106.012 169.751 103.181C166.485 100.218 163.251 97.2106 160.156 94.0714C157.487 91.364 155.032 88.4443 152.483 85.6174C152.145 85.2435 151.815 84.8636 151.553 84.5684C146.131 88.8122 140.909 93.2009 135.373 97.1475C129.827 101.102 123.351 103.381 117.299 106.357C116.336 105.567 116.177 104.727 116.696 103.639C117.185 102.612 117.456 101.483 117.902 100.434C118.184 99.7729 118.612 99.175 119.02 98.4627C119.057 98.3364 119.049 98.2963 119.04 98.2562C119.001 98.283 118.961 98.3098 118.922 98.3367Z" fill="#673721"/>
<path d="M75.0333 141.816C75.0333 134.896 77.9221 124.197 79.3665 119.713C76.4803 136.05 81.295 150.464 83.7024 157.191C90.2303 175.432 102.111 176.774 105 178.215C107.311 179.369 112.912 184.981 112.109 186.624L91.8849 181.216C71.1815 175.68 75.0333 150.464 75.0333 141.816Z" fill="#5A311E"/>
<path d="M189.635 141.953C189.635 135.019 189.194 121.494 187.592 117C190.793 133.371 182.892 156.025 179.449 162.407C172.449 175.381 160.988 178.548 157.784 179.992C155.22 181.148 155.949 185.859 156.716 186.856C158.949 185.36 157.945 184.861 170.944 181.437C193.787 175.418 189.635 150.62 189.635 141.953Z" fill="#5A311E"/>
</svg>
