<svg width="268" height="268" viewBox="0 0 268 268" fill="none" xmlns="http://www.w3.org/2000/svg">
<path d="M104.237 178.74C99.2787 184.321 94.3612 184.413 87.8832 179.046C79.5207 185.416 70.3401 183.042 66.4568 173.742C63.0153 174.342 59.5395 175.765 56.2978 175.352C47.8796 174.281 42.8069 166.067 45.9286 156.847C48.6345 148.854 53.5675 141.63 57.2786 133.952C58.5364 131.349 59.8089 128.398 59.8125 125.604C59.8357 107.427 61.5742 89.7255 71.1333 73.6163C83.8502 52.1856 109.37 40.5649 133.969 44.8991C137.88 45.5882 142.002 45.0745 146.027 45.1274C169.252 45.4323 190.549 65.0224 197.267 88.8639C200.887 101.712 200.131 114.856 200.322 127.965C200.367 130.984 201.269 134.301 202.754 136.931C207.642 145.589 212.572 154.106 211.946 164.586C211.288 175.619 201.717 180.877 192.499 175.075C187.55 180.701 181.679 182.171 174.721 178.927C174.061 178.619 172.648 178.94 172.125 179.486C169.068 182.672 166.227 182.334 163.445 178.744C173.892 172.74 180.434 164.497 182.817 152.866C185.974 137.453 183.136 122.274 181.517 107.034C181.44 106.306 180.989 105.412 180.42 104.974C176.802 102.191 173.102 99.5151 169.263 96.6814C168.845 109.299 168.024 110.602 160.615 110.779C151.636 110.994 150.398 109.393 148.876 95.886C147.934 98.2051 147.273 100.615 146.58 103.017C145.065 108.27 140.423 111.085 134.5 110.361C128.595 109.64 127.344 108.082 127.193 101.191C127.153 99.3422 127.187 97.492 127.187 95.6425C126.756 95.5715 126.324 95.5005 125.893 95.4296C125.331 97.1513 124.806 98.8863 124.201 100.593C121.628 107.84 116.553 111.085 108.93 110.715C105.852 110.566 104.513 109.326 104.634 106.248C104.749 103.293 104.659 100.33 104.659 96.7328C100.192 105.052 93.4634 109.157 84.9601 110.946C83.586 111.235 81.6123 113.184 81.5435 114.454C80.9579 125.273 80.247 136.127 80.5489 146.943C80.9603 161.677 91.7212 175.544 104.237 178.74Z" fill="#AE6EB9"/>
<path d="M74.1888 155.11C73.5634 149.129 75 134.5 80.9164 123.507C80 130 78.1624 145.799 82.5124 159.256C85.9573 169.913 96.263 174.485 99.5197 178.659C97.4638 178.506 82.3104 172.132 80 170.5C77.9172 169.03 74.9706 162.586 74.1888 155.11Z" fill="#905999"/>
<path d="M190.335 155.126C190.96 149.145 189.523 134.516 183.607 123.523C184.523 130.016 186.361 145.815 182.011 159.271C178.566 169.928 168.26 174.501 165.004 178.675C167.06 178.522 182.213 172.147 184.523 170.516C186.606 169.046 189.553 162.601 190.335 155.126Z" fill="#905999"/>
</svg>
