<svg width="268" height="268" viewBox="0 0 268 268" fill="none" xmlns="http://www.w3.org/2000/svg">
<path d="M70.7668 130.01C68.9884 126.007 66.6544 122.351 64.6824 118.534C62.1175 113.57 61.4072 108.379 62.0665 102.949C62.5342 99.0973 63.533 95.3654 64.6036 91.6372C64.734 91.1829 65.0193 90.6681 64.6081 90.2769C64.1521 89.8431 63.6137 90.226 63.1538 90.3894C59.7812 91.5874 56.4189 92.8095 53.0512 94.0188C52.7389 94.1309 52.4114 94.2075 52.0008 94.3267C51.9757 93.6598 52.5177 93.4398 52.8507 93.1437C57.8803 88.6704 65.7539 82.2459 68.9937 76.3236C71.2606 72.1797 76.5387 69.6132 80.0904 66.289C80.4086 65.9912 83.8858 64.7734 83.9281 63.9344C79.6777 65.4545 76.5667 64.9247 72.1862 66.4914C72.5263 65.6206 73.0682 65.2812 73.5134 64.8969C77.5143 61.4431 77.8504 61.3582 82.2311 58.3248C87.6201 54.5933 93.1503 51.0482 98.7557 47.5885C102.839 45.0684 107.244 38.69 112.073 38.0546C118.105 37.2608 124.133 36.432 130.209 36.0199C135.083 35.6893 146.376 39.5441 150.589 43.292C152.53 45.0176 154.411 46.7859 156.067 48.7482C157.179 50.0656 158.018 50.0532 159.075 48.7247C159.951 47.6242 161.245 47.3197 162.608 47.1549C165.867 46.761 169.027 47.369 172.176 47.9993C174.134 48.3912 176.031 48.9975 177.957 49.4977C180.699 50.2098 182.912 55.5419 184.741 57.5334C188.145 61.2388 193.255 67.117 195.629 71.4565C195.781 71.7338 196.037 71.985 195.944 72.523C193.533 71.2444 189.3 67.7767 186.363 66.8071C188.191 68.8444 189.789 70.6208 191.117 72.5808C194.729 77.9142 196.959 79.773 198.964 85.7173C200.425 90.0469 202.331 94.2514 203.293 98.7213C203.947 101.762 204.707 104.795 204.953 107.885C205.308 112.351 203.627 116.327 201.04 120.04C200.029 121.492 198.924 122.857 197.523 124.024C195.427 125.768 194.245 127.981 193.501 130.464C192.57 133.569 191.481 136.635 190.444 139.714C190.335 140.036 190.346 140.446 189.812 140.642C190.049 139.161 190.34 137.732 190.498 136.29C191.06 131.139 189.863 130.036 188.027 125.082C187.035 122.406 185.105 120.4 182.159 119.503C169.654 115.693 161.805 103.92 154.887 94.0061C153.409 91.8887 152.032 89.7191 150.73 87.5085C150.527 87.164 150.401 86.7613 149.813 86.5764C148.593 87.3321 147.668 88.4426 146.668 89.4708C143.28 92.9542 140.016 96.5436 135.953 99.424C132.521 101.857 118.727 111.553 114.454 112.339C112.467 112.704 112.109 112.363 112.188 110.485C112.271 108.501 122.229 98.5112 122.178 96.525C122.15 95.4639 121.621 95.2807 120.527 95.9614C117.428 97.891 114.326 99.8193 111.268 101.803C103.942 106.556 95.9677 114.229 87.8209 117.618C85.6392 118.526 83.4558 119.432 81.2511 120.292C78.2878 121.447 76.9369 123.475 76.6796 126.402C76.1601 132.313 75.9419 134.228 75.9181 140.153C75.9175 140.3 75.8634 140.446 75.6749 140.637C73.6836 137.258 72.5274 133.565 70.7668 130.01Z" fill="#565970"/>
<path d="M128.64 70.16L146 57C141.544 60.36 131.987 58.4603 129.488 60.92C123.512 66.8 115 83 115 83C115 83 122.664 76.6 128.64 70.16Z" fill="#3C3F55"/>
<path d="M190.999 137L194 123C194.667 117.833 194.599 114.2 192.999 113C191.219 111.665 173.98 105.573 169.868 103.547L168.999 103C169.054 103.11 169.361 103.298 169.868 103.547L182.499 111.5C183.499 112.333 190.999 116.2 190.999 119C190.999 121.8 191.332 130.5 190.999 137Z" fill="#3C3F55"/>
<path d="M75.3997 135L72.3984 121C71.7318 115.833 71.7992 112.2 73.3992 111C75.1798 109.665 92.4181 103.573 96.5308 101.547L97.3997 101C97.3449 101.11 97.0374 101.298 96.5308 101.547L83.8997 109.5C82.8997 110.333 75.3997 114.2 75.3997 117C75.3997 119.8 75.0662 128.5 75.3997 135Z" fill="#3C3F55"/>
</svg>
