<svg width="268" height="268" viewBox="0 0 268 268" fill="none" xmlns="http://www.w3.org/2000/svg">
<path d="M144.592 41.6407C178.5 47.4995 190.521 58.8688 197.144 80.815C200.308 88.7516 200.13 94.4359 201 99.6353C202.333 107.608 202.496 117.24 200.184 120.764C198.96 123.24 195.014 124.73 193.923 129.768C192.392 134.74 189.866 142.74 189.866 142.74C189.866 142.74 193.007 132.7 189.674 121.277C188.68 117.869 186.445 115.429 183.169 114.333C168.186 109.32 159.08 98.3281 151.866 85.3291C151.439 84.5598 151.16 83.7017 150.375 82.8741C149.132 84.2326 147.917 85.5253 146.742 86.8517C143.314 90.7215 139.952 94.6533 135.723 97.7475C132.269 100.275 128.436 101.941 124.176 102.642C123.965 102.677 123.751 102.702 123.537 102.712C123.457 102.715 123.375 102.662 123.238 102.615C122.9 101.657 123.091 100.636 123.074 99.6353C123.042 97.8147 123.077 95.993 123.056 94.172C123.051 93.6911 123.261 93.0715 122.657 92.8103C122.162 92.5962 121.76 93.0054 121.379 93.2653C117.796 95.7088 114.211 98.1502 110.642 100.613C102.251 106.404 92.9672 110.546 83.6768 114.682C81.849 115.495 79.8743 116.081 78.7129 117.947C78.1336 118.878 77.6017 119.816 77.6072 120.878C77.6263 124.521 76.9648 124.14 77.0824 127.768C77.2395 132.619 76.315 136.863 76.8342 141.757C76.3287 142.097 72.9832 132.236 72.6607 132.093C66.6066 116.24 58.524 113.74 66.0219 88.1923C72.5 55 110.684 35.7819 144.592 41.6407Z" fill="#2B2636"/>
<path d="M145.349 73L154.44 61C151.803 63 147.331 66.0359 145.851 67.5C142.315 71 133.727 86 133.727 86C133.727 86 141.813 76.8333 145.349 73Z" fill="black"/>
<path d="M190.815 137L193.847 123C194.521 117.833 194.453 114.2 192.836 113C191.037 111.665 173.62 105.573 169.464 103.547L168.586 103C168.641 103.11 168.952 103.298 169.464 103.547L182.226 111.5C183.237 112.333 190.815 116.2 190.815 119C190.815 121.8 191.152 130.5 190.815 137Z" fill="black"/>
<path d="M76.5367 137L73.5041 123C72.8305 117.833 72.8987 114.2 74.5153 113C76.3145 111.665 93.732 105.573 97.8875 103.547L98.7655 103C98.7101 103.11 98.3994 103.298 97.8875 103.547L85.1251 111.5C84.1147 112.333 76.5367 116.2 76.5367 119C76.5367 121.8 76.1997 130.5 76.5367 137Z" fill="black"/>
</svg>
