<svg width="268" height="268" viewBox="0 0 268 268" fill="none" xmlns="http://www.w3.org/2000/svg">
<path d="M155.951 189.504C155.349 187.992 154.057 186.21 154.854 184.313C155.175 183.547 155.637 182.823 156.096 182.622C165.142 178.673 173.632 173.854 178.932 164.621C181.312 160.474 183.195 156.003 185.303 151.68C184.945 163.18 181.337 173.005 172.526 180.254C171.999 180.688 171.821 182.088 171.8 183.264C166.601 185.496 161.621 187.496 155.951 189.504Z" fill="#CAB6A7"/>
<path d="M114.5 185.097C114.648 186.07 113.698 187.473 113.698 187.473C113.698 187.473 102.896 185.865 96.0058 182.39C94.3581 181.513 94.1984 181.308 93.1224 180.636C92.631 180.219 90.4243 179.09 89.827 178.444C90.8496 176.662 91.9791 176.297 90.9972 174.107C88.2012 167.873 83.7303 158.476 84.5023 151C84.8862 151.069 85.8662 153.757 85.9365 154.029C89.7193 168.66 99.3526 178.462 112.788 183.017C113.494 183.257 114.338 184.031 114.5 185.097Z" fill="#CAB6A7"/>
<path d="M201.002 102.499C204.429 122.965 202.191 143.485 192.747 162.432C188.062 171.83 181.304 178.892 171.803 183.265C171.525 182.114 171.178 180.688 171.705 180.255C180.516 173.006 181.875 163.964 183.594 151.327C184.052 147.964 184.878 144.949 184.846 141.945C184.742 132.087 185.696 128.186 184.802 118.393C184.048 110.146 178.541 104.368 173.235 98.871C166.869 92.2761 160.012 80.1476 157.018 70.7644C156.97 70.6132 156.545 70.5982 156.577 70.6082C152.64 75.3712 148.793 80.0249 144.666 84.8069C133.08 93.081 120.989 105.123 107.349 107.45C103.255 108.149 99.3276 109.963 95.0822 111.409C86.9556 115.169 84.3839 122.479 84.1671 130.648C83.9205 139.936 84.626 143.252 84.9853 152.772C85.0276 153.891 85.0491 153.938 84.9982 154.499C84.4432 162.179 90.2056 167.871 93.0016 174.105C93.9835 176.294 93.9982 180.999 90.5895 179.032C61.6674 158.728 62.4188 109.824 69.2853 80.0116C69.7947 78.2859 71.8679 74.9348 72.7473 73.3501C73.1568 72.6737 73.502 71.7084 74.4955 69.9986C75.1707 69.0848 75.5401 68.1818 75.9141 67.092C84.7879 50.5867 105.002 39.999 119.515 41.7304C136.441 36.6175 151.582 38.5312 167.502 47.499C169.58 48.6699 179.629 56.9771 184.469 64.3132C187.456 68.3781 188.822 71.7906 191.037 75.6156C191.053 75.5647 190.971 75.627 191.019 75.8823C191.515 76.9468 192.778 77.3851 193 78.499C196.795 86.0099 199.592 94.0782 201.002 102.499Z" fill="#D6C9BD"/>
</svg>
