<svg width="268" height="268" viewBox="0 0 268 268" fill="none" xmlns="http://www.w3.org/2000/svg">
<path d="M142.164 94.5404C142.551 91.6095 142.857 88.863 143.353 86.1507C143.637 84.5959 143.3 83.5391 142.095 82.4244C139.897 80.391 137.887 78.149 135.89 75.9137C135.398 75.3628 134.819 74.2598 135.054 73.8419C135.411 73.2082 136.404 72.723 137.201 72.5768C139.927 72.0767 142.704 71.8422 145.421 71.3047C146.228 71.1451 147.142 70.4754 147.594 69.7757C149.379 67.0144 150.968 64.1289 152.692 61.328C153.775 59.569 154.719 59.5468 155.82 61.3247C157.511 64.0571 159.001 66.9148 160.741 69.6143C161.22 70.3564 162.222 71.0358 163.091 71.2081C165.955 71.7759 168.889 71.9936 171.757 72.546C174.325 73.0405 174.659 74.134 172.907 75.9634C170.729 78.2372 168.404 80.3742 166.281 82.6959C165.736 83.2919 165.432 84.3824 165.5 85.2065C165.757 88.3257 166.337 91.4201 166.554 94.5405C166.734 97.143 166.059 97.5507 163.66 96.3699C161.242 95.1797 158.855 93.8888 156.605 92.4142C155.127 91.4451 153.98 91.5369 152.518 92.3695C149.981 93.8146 147.361 95.1278 144.717 96.373C142.706 97.3201 142.378 97.0494 142.164 94.5404Z" fill="#E34225"/>
</svg>
